SplineFontDB: 3.0
FontName: vDosMono
FullName: vDos Mono
FamilyName: vDos Mono
Weight: Book
Copyright: Copyright (c) 2013 by JHM Schaars
Version: 1.0
DefaultBaseFilename: vDos
ItalicAngle: 0
UnderlinePosition: 341.333
UnderlineWidth: 76.8
Ascent: 2048
Descent: 0
LayerCount: 2
Layer: 0 1 "Back"  1
Layer: 1 1 "Fore"  0
XUID: [1021 76 7247 17231]
FSType: 0
OS2Version: 3
OS2_WeightWidthSlopeOnly: 0
OS2_UseTypoMetrics: 1
CreationTime: 1358417250
ModificationTime: 1393264081
PfmFamily: 17
TTFWeight: 400
TTFWidth: 5
LineGap: 0
VLineGap: 0
Panose: 2 11 6 9 3 8 4 2 2 4
OS2TypoAscent: 2048
OS2TypoAOffset: 0
OS2TypoDescent: 0
OS2TypoDOffset: 0
OS2TypoLinegap: 0
OS2WinAscent: 2048
OS2WinAOffset: 0
OS2WinDescent: 0
OS2WinDOffset: 0
HheadAscent: 2048
HheadAOffset: 0
HheadDescent: 0
HheadDOffset: 0
OS2SubXSize: 1153
OS2SubYSize: 1153
OS2SubXOff: 0
OS2SubYOff: 188
OS2SupXSize: 1153
OS2SupYSize: 1153
OS2SupXOff: 0
OS2SupYOff: 482
OS2StrikeYSize: 96
OS2StrikeYPos: 399
OS2Vendor: 'PfEd'
OS2CodePages: 60000003.04000000
OS2UnicodeRanges: e60026ff.d200f9fb.02000028.00000000
MarkAttachClasses: 1
DEI: 91125
ShortTable: maxp 16
  1
  0
  255
  128
  20
  50
  4
  0
  0
  0
  0
  0
  0
  0
  2
  1
EndShort
LangName: 1033 "" "" "Regular" "vDos Mono" "" "Version 1.0" "" "" "JHM Schaars" "" "" "http://schaars.nl" 
GaspTable: 2 8 2 65535 1 1
Encoding: UnicodeBmp
UnicodeInterp: none
NameList: Adobe Glyph List
DisplaySize: -36
AntiAlias: 1
FitToEm: 1
WinInfo: 9376 32 9
BeginPrivate: 0
EndPrivate
TeXData: 1 0 0 655360 327680 218453 572418 740994 218453 783286 444596 497025 792723 393216 433062 380633 303038 157286 324010 404750 52429 2506097 1059062 262144
BeginChars: 65539 300

StartChar: exclam
Encoding: 33 33 2
Width: 1024
VWidth: 1747
Flags: W
LayerCount: 2
Fore
SplineSet
430.5 1684 m 5,0,-1
 593.5 1684 l 5,1,-1
 593 820 l 5,2,-1
 430 820 l 5,3,-1
 430.5 1684 l 5,0,-1
430 626 m 5,4,-1
 593 626 l 5,5,-1
 593 410 l 5,6,-1
 430 410 l 5,7,-1
 430 626 l 5,4,-1
EndSplineSet
EndChar

StartChar: quotedbl
Encoding: 34 34 3
Width: 1024
VWidth: 1747
Flags: W
LayerCount: 2
Fore
SplineSet
735 1684 m 1,0,-1
 735 1210 l 1,1,-1
 596 1210 l 1,2,-1
 596 1684 l 1,3,-1
 735 1684 l 1,0,-1
429 1684 m 1,4,-1
 429 1210 l 1,5,-1
 289 1210 l 1,6,-1
 289 1684 l 1,7,-1
 429 1684 l 1,4,-1
EndSplineSet
EndChar

StartChar: numbersign
Encoding: 35 35 4
Width: 1024
VWidth: 1747
Flags: W
LayerCount: 2
Fore
SplineSet
567 1664 m 5,0,-1
 483 1310 l 5,1,-1
 679 1310 l 5,2,-1
 764 1664 l 5,3,-1
 891 1664 l 5,4,-1
 808 1310 l 5,5,-1
 1003 1310 l 5,6,-1
 1003 1178 l 5,7,-1
 778 1178 l 5,8,-1
 710 893 l 5,9,-1
 911 893 l 5,10,-1
 911 763 l 5,11,-1
 679 763 l 5,12,-1
 596 410 l 5,13,-1
 468 410 l 5,14,-1
 552 763 l 5,15,-1
 355 763 l 5,16,-1
 271 410 l 5,17,-1
 144 410 l 5,18,-1
 227 763 l 5,19,-1
 21 763 l 5,20,-1
 21 893 l 5,21,-1
 258 893 l 5,22,-1
 326 1178 l 5,23,-1
 113 1178 l 5,24,-1
 113 1310 l 5,25,-1
 355 1310 l 5,26,-1
 438 1664 l 5,27,-1
 567 1664 l 5,0,-1
649 1178 m 5,28,-1
 453 1178 l 5,29,-1
 387 893 l 5,30,-1
 584 893 l 5,31,-1
 649 1178 l 5,28,-1
EndSplineSet
EndChar

StartChar: dollar
Encoding: 36 36 5
Width: 1024
VWidth: 1747
Flags: W
LayerCount: 2
Fore
SplineSet
544 905 m 5,0,-1
 544 534 l 5,1,2
 632 534 632 534 681.5 585 c 132,-1,3
 731 636 731 636 731 718 c 132,-1,4
 731 800 731 800 686.5 844.5 c 132,-1,5
 642 889 642 889 544 905 c 5,0,-1
464 1067 m 5,6,-1
 464 1419 l 5,7,8
 381 1419 381 1419 334 1369.5 c 132,-1,9
 287 1320 287 1320 287 1243.5 c 132,-1,10
 287 1167 287 1167 330.5 1124.5 c 132,-1,11
 374 1082 374 1082 464 1067 c 5,6,-1
464 922 m 5,12,13
 142 975 142 975 142 1231 c 4,14,15
 142 1365 142 1365 226.5 1451 c 132,-1,16
 311 1537 311 1537 464 1537 c 5,17,-1
 464 1737 l 5,18,-1
 544 1737 l 5,19,-1
 544 1537 l 5,20,21
 672 1537 672 1537 805 1485 c 5,22,-1
 805 1337 l 5,23,24
 669 1417 669 1417 544 1417 c 5,25,-1
 544 1050 l 5,26,27
 709 1024 709 1024 795.5 941 c 132,-1,28
 882 858 882 858 882 726 c 260,29,30
 882 595 882 595 788.5 502.5 c 132,-1,31
 695 410 695 410 544 410 c 5,32,-1
 544 153 l 5,33,-1
 463 153 l 5,34,-1
 463 410 l 5,35,36
 299 410 299 410 142 488 c 5,37,-1
 142 642 l 5,38,39
 304 531 304 531 464 531 c 5,40,-1
 464 922 l 5,12,13
EndSplineSet
EndChar

StartChar: percent
Encoding: 37 37 6
Width: 1024
VWidth: 1747
Flags: W
LayerCount: 2
Fore
SplineSet
760.5 1807 m 1,0,-1
 864.5 1807 l 1,1,-1
 240.5 410 l 1,2,-1
 136.5 410 l 1,3,-1
 760.5 1807 l 1,0,-1
870.5 658 m 256,4,5
 870.5 723 870.5 723 827.5 768.5 c 128,-1,6
 784.5 814 784.5 814 723.5 814 c 128,-1,7
 662.5 814 662.5 814 621 769 c 128,-1,8
 579.5 724 579.5 724 579.5 657.5 c 128,-1,9
 579.5 591 579.5 591 621.5 547 c 128,-1,10
 663.5 503 663.5 503 724.5 503 c 128,-1,11
 785.5 503 785.5 503 828 547.5 c 128,-1,12
 870.5 592 870.5 592 870.5 658 c 256,4,5
562 833 m 128,-1,14
 628.5 904 628.5 904 724.5 904 c 128,-1,15
 820.5 904 820.5 904 888 830 c 128,-1,16
 955.5 756 955.5 756 955.5 656 c 128,-1,17
 955.5 556 955.5 556 888.5 484.5 c 128,-1,18
 821.5 413 821.5 413 723.5 413 c 128,-1,19
 625.5 413 625.5 413 560.5 483.5 c 128,-1,20
 495.5 554 495.5 554 495.5 658 c 128,-1,13
 495.5 762 495.5 762 562 833 c 128,-1,14
297.5 1714 m 256,21,22
 235.5 1714 235.5 1714 194 1669.5 c 128,-1,23
 152.5 1625 152.5 1625 152.5 1558.5 c 128,-1,24
 152.5 1492 152.5 1492 194 1448 c 128,-1,25
 235.5 1404 235.5 1404 297.5 1404 c 128,-1,26
 359.5 1404 359.5 1404 402 1449 c 128,-1,27
 444.5 1494 444.5 1494 444.5 1559 c 256,28,29
 444.5 1624 444.5 1624 401.5 1669 c 128,-1,30
 358.5 1714 358.5 1714 297.5 1714 c 256,21,22
68.5 1559 m 256,31,32
 68.5 1663 68.5 1663 134.5 1734 c 128,-1,33
 200.5 1805 200.5 1805 297 1805 c 128,-1,34
 393.5 1805 393.5 1805 460.5 1733 c 256,35,36
 528.5 1661 528.5 1661 528.5 1559 c 128,-1,37
 528.5 1457 528.5 1457 461.5 1385.5 c 128,-1,38
 394.5 1314 394.5 1314 297.5 1314 c 128,-1,39
 200.5 1314 200.5 1314 134.5 1385 c 128,-1,40
 68.5 1456 68.5 1456 68.5 1559 c 256,31,32
EndSplineSet
EndChar

StartChar: ampersand
Encoding: 38 38 7
Width: 1024
VWidth: 1747
Flags: W
LayerCount: 2
Fore
SplineSet
700.5 1510 m 5,0,1
 608.5 1575 608.5 1575 514 1575 c 132,-1,2
 419.5 1575 419.5 1575 375 1536.5 c 132,-1,3
 330.5 1498 330.5 1498 330.5 1440 c 132,-1,4
 330.5 1382 330.5 1382 353.5 1326.5 c 132,-1,5
 376.5 1271 376.5 1271 438.5 1184 c 5,6,-1
 771.5 707 l 5,7,8
 833.5 790 833.5 790 832.5 965 c 4,9,10
 832.5 1034 832.5 1034 829.5 1058 c 5,11,-1
 960.5 1058 l 5,12,-1
 960.5 1025 l 6,13,14
 960.5 754 960.5 754 841.5 605 c 5,15,-1
 977.5 410 l 5,16,-1
 806.5 410 l 5,17,-1
 745.5 503 l 5,18,19
 614.5 385 614.5 385 443 385 c 132,-1,20
 271.5 385 271.5 385 159 499.5 c 132,-1,21
 46.5 614 46.5 614 46.5 788 c 4,22,23
 46.5 1020 46.5 1020 267.5 1190 c 5,24,25
 188.5 1310 188.5 1310 188.5 1434 c 132,-1,26
 188.5 1558 188.5 1558 268.5 1632.5 c 132,-1,27
 348.5 1707 348.5 1707 467 1707 c 132,-1,28
 585.5 1707 585.5 1707 700.5 1667 c 5,29,-1
 700.5 1510 l 5,0,1
333.5 1095 m 5,30,31
 187.5 971 187.5 971 187.5 815 c 4,32,33
 187.5 686 187.5 686 267 601 c 132,-1,34
 346.5 516 346.5 516 463 516 c 132,-1,35
 579.5 516 579.5 516 675.5 600 c 5,36,-1
 333.5 1095 l 5,30,31
EndSplineSet
EndChar

StartChar: quotesingle
Encoding: 39 39 8
Width: 1024
VWidth: 1747
Flags: W
LayerCount: 2
Fore
SplineSet
581.5 1684 m 1,0,-1
 581.5 1210 l 1,1,-1
 442.5 1210 l 1,2,-1
 442.5 1684 l 1,3,-1
 581.5 1684 l 1,0,-1
EndSplineSet
EndChar

StartChar: parenleft
Encoding: 40 40 9
Width: 1024
VWidth: 1747
Flags: W
LayerCount: 2
Fore
SplineSet
567.5 179 m 1,0,1
 328.5 581 328.5 581 328.5 959 c 128,-1,2
 328.5 1337 328.5 1337 567.5 1736 c 1,3,-1
 695.5 1736 l 1,4,5
 484.5 1349 484.5 1349 484.5 959 c 128,-1,6
 484.5 569 484.5 569 695.5 179 c 1,7,-1
 567.5 179 l 1,0,1
EndSplineSet
EndChar

StartChar: parenright
Encoding: 41 41 10
Width: 1024
VWidth: 1747
Flags: W
LayerCount: 2
Fore
SplineSet
219.166 179 m 1,0,1
 430.166 572 430.166 572 429.666 959.5 c 128,-1,2
 429.166 1347 429.166 1347 219.166 1736 c 1,3,-1
 346.166 1736 l 1,4,5
 585.166 1337 585.166 1337 585.666 957.5 c 128,-1,6
 586.166 578 586.166 578 346.166 179 c 1,7,-1
 219.166 179 l 1,0,1
EndSplineSet
EndChar

StartChar: asterisk
Encoding: 42 42 11
Width: 1024
VWidth: 1747
Flags: W
LayerCount: 2
Fore
SplineSet
872.5 1474 m 5,0,-1
 585.5 1308 l 5,1,-1
 872.5 1142 l 5,2,-1
 826.5 1058 l 5,3,-1
 557.5 1231 l 5,4,-1
 557.5 910 l 5,5,-1
 465.5 910 l 5,6,-1
 465.5 1231 l 5,7,-1
 196.5 1058 l 5,8,-1
 151.5 1142 l 5,9,-1
 437.5 1308 l 5,10,-1
 151.5 1474 l 5,11,-1
 196.5 1558 l 5,12,-1
 465.5 1385 l 5,13,-1
 465.5 1707 l 5,14,-1
 557.5 1707 l 5,15,-1
 557.5 1385 l 5,16,-1
 826.5 1558 l 5,17,-1
 872.5 1474 l 5,0,-1
EndSplineSet
EndChar

StartChar: plus
Encoding: 43 43 12
Width: 1024
VWidth: 1747
Flags: W
LayerCount: 2
Fore
SplineSet
579 1409 m 1,0,-1
 579 1030 l 1,1,-1
 935 1030 l 1,2,-1
 935 885 l 1,3,-1
 579 885 l 1,4,-1
 579 506 l 1,5,-1
 445 506 l 1,6,-1
 445 885 l 1,7,-1
 89 885 l 1,8,-1
 89 1030 l 1,9,-1
 445 1030 l 1,10,-1
 445 1409 l 1,11,-1
 579 1409 l 1,0,-1
EndSplineSet
EndChar

StartChar: comma
Encoding: 44 44 13
Width: 1024
VWidth: 1747
Flags: W
LayerCount: 2
Fore
SplineSet
450 668 m 1,0,-1
 652 668 l 1,1,-1
 652 492 l 1,2,-1
 494 165 l 1,3,-1
 372 165 l 1,4,-1
 450 492 l 1,5,-1
 450 668 l 1,0,-1
EndSplineSet
EndChar

StartChar: hyphen
Encoding: 45 45 14
Width: 1024
VWidth: 1747
Flags: W
LayerCount: 2
Fore
SplineSet
304 958 m 1,0,-1
 720 958 l 1,1,-1
 720 818 l 1,2,-1
 304 818 l 1,3,-1
 304 958 l 1,0,-1
EndSplineSet
EndChar

StartChar: period
Encoding: 46 46 15
Width: 1024
VWidth: 1747
Flags: W
LayerCount: 2
Fore
SplineSet
409 513 m 128,-1,1
 409 555.642 409 555.642 439.179 585.821 c 128,-1,2
 469.358 616 469.358 616 512 616 c 128,-1,3
 554.642 616 554.642 616 584.821 585.821 c 128,-1,4
 615 555.642 615 555.642 615 513 c 128,-1,5
 615 470.358 615 470.358 584.821 440.179 c 128,-1,6
 554.642 410 554.642 410 512 410 c 132,-1,7
 469.358 410 469.358 410 439.179 440.179 c 128,-1,0
 409 470.358 409 470.358 409 513 c 128,-1,1
EndSplineSet
EndChar

StartChar: slash
Encoding: 47 47 16
Width: 1024
VWidth: 1747
Flags: W
LayerCount: 2
Fore
SplineSet
751 1684 m 5,0,-1
 903 1684 l 5,1,-1
 273 247 l 5,2,-1
 121 247 l 5,3,-1
 751 1684 l 5,0,-1
EndSplineSet
EndChar

StartChar: zero
Encoding: 48 48 17
Width: 1024
VWidth: 1747
Flags: W
LayerCount: 2
Fore
SplineSet
452.125 1051 m 0,0,1
 452.125 1076.5 452.125 1076.5 468.625 1092.25 c 0,2,3
 485.875 1108.75 485.875 1108.75 509.875 1108.75 c 0,4,5
 534.625 1108.75 534.625 1108.75 550.375 1092.25 c 0,6,7
 566.875 1075 566.875 1075 566.875 1051 c 128,-1,8
 566.875 1027 566.875 1027 550.375 1010.5 c 0,9,10
 533.125 993.25 533.125 993.25 509.125 993.25 c 0,11,12
 485.875 993.25 485.875 993.25 469 1010.5 c 128,-1,13
 452.125 1027.75 452.125 1027.75 452.125 1051 c 0,0,1
736 1046 m 0,14,15
 736 1570 736 1570 512 1570 c 128,-1,16
 288 1570 288 1570 288 1046 c 0,17,18
 288 521 288 521 512 521 c 128,-1,19
 736 521 736 521 736 1046 c 0,14,15
512 1707 m 256,20,21
 703 1707 703 1707 801 1540 c 0,22,23
 900 1371 900 1371 900 1046 c 0,24,25
 900 719 900 719 802 552 c 128,-1,26
 704 385 704 385 512 385 c 256,27,28
 318 385 318 385 222 552 c 0,29,30
 124 722 124 722 124 1046 c 0,31,32
 124 1373 124 1373 222 1540 c 128,-1,33
 320 1707 320 1707 512 1707 c 256,20,21
EndSplineSet
EndChar

StartChar: one
Encoding: 49 49 18
Width: 1024
VWidth: 1747
Flags: W
LayerCount: 2
Fore
SplineSet
191.5 555 m 1,0,-1
 442.5 555 l 1,1,-1
 442.5 1528 l 1,2,-1
 172.5 1463 l 1,3,-1
 172.5 1620 l 1,4,-1
 441.5 1684 l 1,5,-1
 602.5 1684 l 1,6,-1
 602.5 555 l 1,7,-1
 851.5 555 l 1,8,-1
 851.5 410 l 1,9,-1
 191.5 410 l 1,10,-1
 191.5 555 l 1,0,-1
EndSplineSet
EndChar

StartChar: two
Encoding: 50 50 19
Width: 1024
VWidth: 1747
Flags: W
LayerCount: 2
Fore
SplineSet
158 1622 m 1,0,1
 324 1706 324 1706 488 1706.5 c 128,-1,2
 652 1707 652 1707 759 1607.5 c 128,-1,3
 866 1508 866 1508 866 1347 c 0,4,5
 866 1265 866 1265 830.5 1183 c 128,-1,6
 795 1101 795 1101 733 1024 c 0,7,8
 625 890 625 890 325 555 c 1,9,-1
 875 555 l 1,10,-1
 875 410 l 1,11,-1
 149 410 l 1,12,-1
 149 555 l 1,13,14
 474 920 474 920 564 1033 c 1,15,16
 644 1137 644 1137 672.5 1201.5 c 128,-1,17
 701 1266 701 1266 701 1334 c 0,18,19
 701 1441 701 1441 642 1501.5 c 128,-1,20
 583 1562 583 1562 481 1562 c 0,21,22
 337 1562 337 1562 158 1448 c 1,23,-1
 158 1622 l 1,0,1
EndSplineSet
EndChar

StartChar: three
Encoding: 51 51 20
Width: 1024
VWidth: 1747
Flags: W
LayerCount: 2
Fore
SplineSet
861 1364 m 0,0,1
 861 1152 861 1152 646 1091 c 1,2,3
 763 1058 763 1058 826 973 c 128,-1,4
 889 888 889 888 889 761 c 0,5,6
 889 585 889 585 777.5 485 c 128,-1,7
 666 385 666 385 485 385 c 132,-1,8
 304 385 304 385 135 448 c 1,9,-1
 135 620 l 1,10,11
 296 530 296 530 441 530 c 128,-1,12
 586 530 586 530 657 594 c 128,-1,13
 728 658 728 658 728 773.5 c 128,-1,14
 728 889 728 889 657 954.5 c 128,-1,15
 586 1020 586 1020 464 1020 c 2,16,-1
 341 1020 l 1,17,-1
 341 1161 l 1,18,-1
 464 1161 l 2,19,20
 576 1161 576 1161 638 1213 c 128,-1,21
 700 1265 700 1265 700 1361 c 128,-1,22
 700 1457 700 1457 642 1509.5 c 128,-1,23
 584 1562 584 1562 460.5 1562 c 128,-1,24
 337 1562 337 1562 170 1493 c 1,25,-1
 170 1652 l 1,26,27
 364 1707 364 1707 477 1707 c 0,28,29
 651 1707 651 1707 756 1612.5 c 128,-1,30
 861 1518 861 1518 861 1364 c 0,0,1
EndSplineSet
EndChar

StartChar: four
Encoding: 52 52 21
Width: 1024
VWidth: 1747
Flags: W
LayerCount: 2
Fore
SplineSet
604.5 1527 m 1,0,-1
 227.5 853 l 1,1,-1
 604.5 853 l 1,2,-1
 604.5 1527 l 1,0,-1
578.5 1684 m 1,3,-1
 765.5 1684 l 1,4,-1
 765.5 853 l 1,5,-1
 925.5 853 l 1,6,-1
 925.5 713 l 1,7,-1
 765.5 713 l 1,8,-1
 765.5 410 l 1,9,-1
 604.5 410 l 1,10,-1
 604.5 713 l 1,11,-1
 98.5 713 l 1,12,-1
 98.5 876 l 1,13,-1
 578.5 1684 l 1,3,-1
EndSplineSet
EndChar

StartChar: five
Encoding: 53 53 22
Width: 1024
VWidth: 1747
Flags: W
LayerCount: 2
Fore
SplineSet
645.5 1031 m 128,-1,1
 570.5 1107 570.5 1107 438 1107 c 128,-1,2
 305.5 1107 305.5 1107 193.5 1044 c 1,3,-1
 193.5 1684 l 1,4,-1
 798.5 1684 l 1,5,-1
 798.5 1539 l 1,6,-1
 340.5 1539 l 1,7,-1
 340.5 1225 l 1,8,9
 407.5 1251 407.5 1251 479.5 1252 c 0,10,11
 665.5 1252 665.5 1252 774 1135 c 128,-1,12
 882.5 1018 882.5 1018 882.5 817.5 c 128,-1,13
 882.5 617 882.5 617 768.5 501 c 128,-1,14
 654.5 385 654.5 385 460.5 385 c 128,-1,15
 266.5 385 266.5 385 141.5 439 c 1,16,-1
 141.5 614 l 1,17,18
 286.5 530 286.5 530 431.5 530 c 128,-1,19
 576.5 530 576.5 530 648.5 605 c 128,-1,20
 720.5 680 720.5 680 720.5 817.5 c 128,-1,0
 720.5 955 720.5 955 645.5 1031 c 128,-1,1
EndSplineSet
EndChar

StartChar: six
Encoding: 54 54 23
Width: 1024
VWidth: 1747
Flags: W
LayerCount: 2
Fore
SplineSet
578.5 1707 m 0,0,1
 696.5 1707 696.5 1707 811.5 1655 c 1,2,-1
 811.5 1497 l 1,3,4
 708.5 1562 708.5 1562 585.5 1562 c 0,5,6
 431.5 1562 431.5 1562 352.5 1438.5 c 128,-1,7
 273.5 1315 273.5 1315 273.5 1075 c 1,8,9
 311.5 1160 311.5 1160 379.5 1206 c 128,-1,10
 447.5 1252 447.5 1252 536.5 1252 c 0,11,12
 709.5 1252 709.5 1252 804.5 1139 c 128,-1,13
 899.5 1026 899.5 1026 899.5 819 c 128,-1,14
 899.5 612 899.5 612 801.5 498.5 c 128,-1,15
 703.5 385 703.5 385 526.5 385 c 0,16,17
 318.5 385 318.5 385 221.5 544 c 128,-1,18
 124.5 703 124.5 703 124.5 1035.5 c 128,-1,19
 124.5 1368 124.5 1368 241 1537.5 c 128,-1,20
 357.5 1707 357.5 1707 578.5 1707 c 0,0,1
739.5 818.5 m 128,-1,22
 739.5 1117 739.5 1117 522.5 1117 c 0,23,24
 419.5 1117 419.5 1117 360.5 1037.5 c 128,-1,25
 301.5 958 301.5 958 301.5 818 c 256,26,27
 301.5 678 301.5 678 360.5 599 c 128,-1,28
 419.5 520 419.5 520 522.5 520 c 0,29,21
 739.5 520 739.5 520 739.5 818.5 c 128,-1,22
EndSplineSet
EndChar

StartChar: seven
Encoding: 55 55 24
Width: 1024
VWidth: 1747
Flags: W
LayerCount: 2
Fore
SplineSet
136 1684 m 1,0,-1
 888 1684 l 1,1,-1
 888 1610 l 1,2,-1
 460 410 l 1,3,-1
 291 410 l 1,4,-1
 708 1539 l 1,5,-1
 136 1539 l 1,6,-1
 136 1684 l 1,0,-1
EndSplineSet
EndChar

StartChar: eight
Encoding: 56 56 25
Width: 1024
VWidth: 1747
Flags: W
LayerCount: 2
Fore
SplineSet
681 950 m 128,-1,1
 621.5 1015 621.5 1015 513.5 1015 c 128,-1,2
 405.5 1015 405.5 1015 347 950.5 c 128,-1,3
 288.5 886 288.5 886 288.5 768 c 256,4,5
 288.5 650 288.5 650 348 585 c 128,-1,6
 407.5 520 407.5 520 515.5 520 c 128,-1,7
 623.5 520 623.5 520 682 584.5 c 128,-1,8
 740.5 649 740.5 649 740.5 767 c 128,-1,0
 740.5 885 740.5 885 681 950 c 128,-1,1
325.5 1086 m 1,9,10
 222.5 1114 222.5 1114 188.5 1191 c 128,-1,11
 154.5 1268 154.5 1268 154.5 1376 c 0,12,13
 154.5 1528 154.5 1528 251 1617.5 c 128,-1,14
 347.5 1707 347.5 1707 514.5 1707 c 128,-1,15
 681.5 1707 681.5 1707 778.5 1617.5 c 128,-1,16
 875.5 1528 875.5 1528 875.5 1376 c 1,17,18
 844.5 1105 844.5 1105 704.5 1086 c 1,19,20
 824.5 1058 824.5 1058 863.5 972.5 c 128,-1,21
 902.5 887 902.5 887 902.5 752 c 0,22,23
 902.5 580 902.5 580 799.5 482.5 c 128,-1,24
 696.5 385 696.5 385 514.5 385 c 0,25,26
 435.5 385 435.5 385 362.5 415 c 128,-1,27
 289.5 445 289.5 445 236.5 496 c 128,-1,28
 183.5 547 183.5 547 152.5 617 c 128,-1,29
 121.5 687 121.5 687 121.5 765 c 0,30,31
 121.5 1004 121.5 1004 325.5 1086 c 1,9,10
366.5 1518.5 m 128,-1,33
 315.5 1463 315.5 1463 315.5 1360.5 c 128,-1,34
 315.5 1258 315.5 1258 366.5 1204 c 128,-1,35
 417.5 1150 417.5 1150 515 1150 c 128,-1,36
 612.5 1150 612.5 1150 663.5 1204 c 128,-1,37
 714.5 1258 714.5 1258 714.5 1361 c 128,-1,38
 714.5 1464 714.5 1464 664 1519 c 128,-1,39
 613.5 1574 613.5 1574 515.5 1574 c 128,-1,32
 417.5 1574 417.5 1574 366.5 1518.5 c 128,-1,33
EndSplineSet
EndChar

StartChar: nine
Encoding: 57 57 26
Width: 1024
VWidth: 1747
Flags: W
LayerCount: 2
Fore
SplineSet
284.5 1273.5 m 128,-1,1
 284.5 975 284.5 975 500.5 975 c 0,2,3
 603.5 975 603.5 975 662.5 1054 c 128,-1,4
 721.5 1133 721.5 1133 721.5 1273 c 256,5,6
 721.5 1413 721.5 1413 662.5 1492.5 c 128,-1,7
 603.5 1572 603.5 1572 500.5 1572 c 0,8,0
 284.5 1572 284.5 1572 284.5 1273.5 c 128,-1,1
444.5 385 m 0,9,10
 327.5 385 327.5 385 211.5 436 c 1,11,-1
 211.5 595 l 1,12,13
 314.5 530 314.5 530 437.5 530 c 0,14,15
 591.5 530 591.5 530 670.5 653.5 c 128,-1,16
 749.5 777 749.5 777 749.5 1016 c 1,17,18
 711.5 931 711.5 931 643.5 885.5 c 128,-1,19
 575.5 840 575.5 840 487.5 840 c 0,20,21
 314.5 840 314.5 840 219.5 953.5 c 128,-1,22
 124.5 1067 124.5 1067 124.5 1274 c 128,-1,23
 124.5 1481 124.5 1481 222 1594 c 128,-1,24
 319.5 1707 319.5 1707 497.5 1707 c 0,25,26
 705.5 1707 705.5 1707 802.5 1547.5 c 128,-1,27
 899.5 1388 899.5 1388 899.5 1056 c 128,-1,28
 899.5 724 899.5 724 782.5 554.5 c 128,-1,29
 665.5 385 665.5 385 444.5 385 c 0,9,10
EndSplineSet
EndChar

StartChar: colon
Encoding: 58 58 27
Width: 1024
VWidth: 1747
Flags: W
LayerCount: 2
Fore
SplineSet
400 522 m 128,-1,1
 400 568.368 400 568.368 432.816 601.185 c 128,-1,2
 465.632 634 465.632 634 512 634 c 128,-1,3
 558.368 634 558.368 634 591.184 601.185 c 128,-1,4
 624 568.368 624 568.368 624 522 c 128,-1,5
 624 475.632 624 475.632 591.184 442.816 c 128,-1,6
 558.368 410 558.368 410 512 410 c 128,-1,7
 465.632 410 465.632 410 432.816 442.816 c 128,-1,0
 400 475.632 400 475.632 400 522 c 128,-1,1
400 1276.3 m 128,-1,9
 400 1322.67 400 1322.67 432.816 1355.48 c 128,-1,10
 465.632 1388.3 465.632 1388.3 512 1388.3 c 128,-1,11
 558.368 1388.3 558.368 1388.3 591.184 1355.48 c 128,-1,12
 624 1322.67 624 1322.67 624 1276.3 c 128,-1,13
 624 1229.93 624 1229.93 591.184 1197.12 c 128,-1,14
 558.368 1164.3 558.368 1164.3 512 1164.3 c 128,-1,15
 465.632 1164.3 465.632 1164.3 432.816 1197.12 c 128,-1,8
 400 1229.93 400 1229.93 400 1276.3 c 128,-1,9
EndSplineSet
EndChar

StartChar: semicolon
Encoding: 59 59 28
Width: 1024
VWidth: 1747
Flags: W
LayerCount: 2
Fore
SplineSet
450 1276.3 m 128,-1,1
 450 1322.67 450 1322.67 482.816 1355.48 c 128,-1,2
 515.632 1388.3 515.632 1388.3 562 1388.3 c 128,-1,3
 608.368 1388.3 608.368 1388.3 641.184 1355.48 c 128,-1,4
 674 1322.67 674 1322.67 674 1276.3 c 128,-1,5
 674 1229.93 674 1229.93 641.184 1197.12 c 128,-1,6
 608.368 1164.3 608.368 1164.3 562 1164.3 c 128,-1,7
 515.632 1164.3 515.632 1164.3 482.816 1197.12 c 128,-1,0
 450 1229.93 450 1229.93 450 1276.3 c 128,-1,1
450 668 m 1,8,-1
 652 668 l 1,9,-1
 652 492 l 1,10,-1
 494 165 l 1,11,-1
 372 165 l 1,12,-1
 450 492 l 5,13,-1
 450 668 l 1,8,-1
EndSplineSet
EndChar

StartChar: less
Encoding: 60 60 29
Width: 1024
VWidth: 1747
Flags: W
LayerCount: 2
Fore
SplineSet
832 1230 m 1,0,-1
 357 957 l 1,1,-1
 832 686 l 1,2,-1
 832 530 l 1,3,-1
 192 887 l 1,4,-1
 192 1028 l 1,5,-1
 832 1385 l 1,6,-1
 832 1230 l 1,0,-1
EndSplineSet
EndChar

StartChar: equal
Encoding: 61 61 30
Width: 1024
VWidth: 1747
Flags: W
LayerCount: 2
Fore
SplineSet
192 857 m 1,0,-1
 832 857 l 5,1,-1
 832 710 l 5,2,-1
 192 710 l 1,3,-1
 192 857 l 1,0,-1
192 1203 m 1,4,-1
 832 1203 l 5,5,-1
 832 1058 l 5,6,-1
 192 1058 l 1,7,-1
 192 1203 l 1,4,-1
EndSplineSet
EndChar

StartChar: greater
Encoding: 62 62 31
Width: 1024
VWidth: 1747
Flags: W
LayerCount: 2
Fore
SplineSet
192 1230 m 1,0,-1
 192 1385 l 1,1,-1
 832 1028 l 1,2,-1
 832 887 l 1,3,-1
 192 530 l 1,4,-1
 192 686 l 1,5,-1
 667 957 l 5,6,-1
 192 1230 l 1,0,-1
EndSplineSet
EndChar

StartChar: question
Encoding: 63 63 32
Width: 1024
VWidth: 1747
Flags: W
LayerCount: 2
Fore
SplineSet
193.5 1610 m 1,0,1
 339.5 1706 339.5 1706 497.5 1706.5 c 128,-1,2
 655.5 1707 655.5 1707 743 1624 c 128,-1,3
 830.5 1541 830.5 1541 830.5 1405 c 0,4,5
 830.5 1340 830.5 1340 803.5 1284.5 c 128,-1,6
 776.5 1229 776.5 1229 701.5 1150 c 2,7,-1
 631.5 1077 l 1,8,9
 576.5 1021 576.5 1021 561.5 985 c 128,-1,10
 546.5 949 546.5 949 546.5 897 c 2,11,-1
 546.5 752 l 1,12,-1
 394.5 752 l 1,13,-1
 394.5 883 l 2,14,15
 394.5 967 394.5 967 418.5 1025.5 c 128,-1,16
 442.5 1084 442.5 1084 509.5 1154 c 2,17,-1
 581.5 1230 l 1,18,19
 631.5 1280 631.5 1280 650 1317.5 c 128,-1,20
 668.5 1355 668.5 1355 668.5 1397 c 0,21,22
 668.5 1473 668.5 1473 616 1520 c 128,-1,23
 563.5 1567 563.5 1567 476.5 1567 c 0,24,25
 350.5 1567 350.5 1567 193.5 1450 c 1,26,-1
 193.5 1610 l 1,0,1
388.5 626 m 1,27,-1
 550.5 626 l 1,28,-1
 550.5 410 l 1,29,-1
 388.5 410 l 1,30,-1
 388.5 626 l 1,27,-1
EndSplineSet
EndChar

StartChar: at
Encoding: 64 64 33
Width: 1024
VWidth: 1747
Flags: W
LayerCount: 2
Fore
SplineSet
810 697.5 m 128,-1,1
 861 764 861 764 861 874.5 c 128,-1,2
 861 985 861 985 810 1051 c 128,-1,3
 759 1117 759 1117 672 1117 c 256,4,5
 587 1117 587 1117 535.5 1051 c 128,-1,6
 484 985 484 985 484 874.5 c 128,-1,7
 484 764 484 764 535.5 697.5 c 128,-1,8
 587 631 587 631 672 631 c 256,9,0
 759 631 759 631 810 697.5 c 128,-1,1
867 179 m 1,10,11
 769 137 769 137 672 137 c 0,12,13
 386 137 386 137 219 336 c 128,-1,14
 52 535 52 535 52 870.5 c 128,-1,15
 52 1206 52 1206 202.5 1403 c 128,-1,16
 353 1600 353 1600 606 1600 c 0,17,18
 773 1600 773 1600 872.5 1486.5 c 128,-1,19
 972 1373 972 1373 972 1182 c 2,20,-1
 972 525 l 1,21,-1
 857 525 l 1,22,-1
 857 620 l 1,23,24
 795 508 795 508 662 508 c 128,-1,25
 529 508 529 508 444.5 611 c 128,-1,26
 360 714 360 714 360 875 c 256,27,28
 360 1035 360 1035 444.5 1138.5 c 128,-1,29
 529 1242 529 1242 657 1242 c 0,30,31
 721 1242 721 1242 775 1212 c 128,-1,32
 829 1182 829 1182 857 1130 c 1,33,-1
 857 1184 l 2,34,35
 857 1317 857 1317 786.5 1398 c 128,-1,36
 716 1479 716 1479 600 1479 c 0,37,38
 403 1479 403 1479 287 1315.5 c 128,-1,39
 171 1152 171 1152 171 872 c 128,-1,40
 171 592 171 592 303 425.5 c 128,-1,41
 435 259 435 259 655 259 c 0,42,43
 741 259 741 259 829 294 c 1,44,-1
 867 179 l 1,10,11
EndSplineSet
EndChar

StartChar: A
Encoding: 65 65 34
Width: 1024
VWidth: 1747
Flags: W
LayerCount: 2
Fore
SplineSet
511.5 1532 m 1,0,-1
 341.5 880 l 1,1,-1
 681.5 880 l 1,2,-1
 511.5 1532 l 1,0,-1
414.5 1684 m 1,3,-1
 610.5 1684 l 1,4,-1
 975.5 410 l 1,5,-1
 808.5 410 l 1,6,-1
 719.5 742 l 1,7,-1
 301.5 742 l 1,8,-1
 215.5 410 l 5,9,-1
 48.5 410 l 1,10,-1
 414.5 1684 l 1,3,-1
EndSplineSet
EndChar

StartChar: B
Encoding: 66 66 35
Width: 1024
VWidth: 1747
Flags: W
LayerCount: 2
Fore
SplineSet
285.5 1018 m 1,0,-1
 285.5 551 l 1,1,-1
 477.5 551 l 2,2,3
 618.5 551 618.5 551 678 603.5 c 128,-1,4
 737.5 656 737.5 656 737.5 778.5 c 128,-1,5
 737.5 901 737.5 901 674.5 959.5 c 128,-1,6
 611.5 1018 611.5 1018 477.5 1018 c 2,7,-1
 285.5 1018 l 1,0,-1
285.5 1542 m 1,8,-1
 285.5 1158 l 1,9,-1
 473.5 1158 l 2,10,11
 590.5 1158 590.5 1158 643 1206 c 128,-1,12
 695.5 1254 695.5 1254 695.5 1355.5 c 128,-1,13
 695.5 1457 695.5 1457 644 1499.5 c 128,-1,14
 592.5 1542 592.5 1542 473.5 1542 c 2,15,-1
 285.5 1542 l 1,8,-1
900.5 759 m 0,16,17
 900.5 409 900.5 409 477.5 410 c 2,18,-1
 123.5 410 l 1,19,-1
 123.5 1684 l 1,20,-1
 477.5 1684 l 2,21,22
 660.5 1684 660.5 1684 759.5 1599.5 c 128,-1,23
 858.5 1515 858.5 1515 858.5 1360 c 0,24,25
 858.5 1125 858.5 1125 648.5 1091 c 1,26,27
 765.5 1072 765.5 1072 833 984 c 128,-1,28
 900.5 896 900.5 896 900.5 759 c 0,16,17
EndSplineSet
EndChar

StartChar: C
Encoding: 67 67 36
Width: 1024
VWidth: 1747
Flags: W
LayerCount: 2
Fore
SplineSet
621.5 525 m 0,0,1
 765.5 525 765.5 525 885.5 631 c 1,2,-1
 885.5 455 l 1,3,4
 762.5 385 762.5 385 621.5 385 c 0,5,6
 391.5 385 391.5 385 265 558 c 128,-1,7
 138.5 731 138.5 731 138.5 1044.5 c 128,-1,8
 138.5 1358 138.5 1358 266 1532.5 c 128,-1,9
 393.5 1707 393.5 1707 621.5 1707 c 0,10,11
 762.5 1707 762.5 1707 885.5 1637 c 1,12,-1
 885.5 1460 l 1,13,14
 763.5 1567 763.5 1567 621.5 1567 c 0,15,16
 307.5 1567 307.5 1567 307.5 1046 c 128,-1,17
 307.5 525 307.5 525 621.5 525 c 0,0,1
EndSplineSet
EndChar

StartChar: D
Encoding: 68 68 37
Width: 1024
VWidth: 1747
Flags: W
LayerCount: 2
Fore
SplineSet
363.5 551 m 2,0,1
 567.5 551 567.5 551 648.5 658 c 128,-1,2
 729.5 765 729.5 765 729.5 1046.5 c 128,-1,3
 729.5 1328 729.5 1328 649 1435 c 128,-1,4
 568.5 1542 568.5 1542 363.5 1542 c 2,5,-1
 286.5 1542 l 1,6,-1
 286.5 551 l 1,7,-1
 363.5 551 l 2,0,1
366.5 1684 m 2,8,9
 640.5 1684 640.5 1684 770 1528.5 c 128,-1,10
 899.5 1373 899.5 1373 899.5 1046 c 128,-1,11
 899.5 719 899.5 719 769.5 564.5 c 128,-1,12
 639.5 410 639.5 410 366.5 410 c 2,13,-1
 124.5 410 l 5,14,-1
 124.5 1684 l 1,15,-1
 366.5 1684 l 2,8,9
EndSplineSet
EndChar

StartChar: E
Encoding: 69 69 38
Width: 1024
VWidth: 1747
Flags: W
LayerCount: 2
Fore
SplineSet
150.5 1684 m 1,0,-1
 858.5 1684 l 1,1,-1
 858.5 1539 l 1,2,-1
 311.5 1539 l 1,3,-1
 311.5 1161 l 1,4,-1
 835.5 1161 l 1,5,-1
 835.5 1016 l 1,6,-1
 311.5 1016 l 1,7,-1
 311.5 555 l 1,8,-1
 873.5 555 l 1,9,-1
 873.5 410 l 1,10,-1
 150.5 410 l 1,11,-1
 150.5 1684 l 1,0,-1
EndSplineSet
EndChar

StartChar: F
Encoding: 70 70 39
Width: 1024
VWidth: 1747
Flags: W
LayerCount: 2
Fore
SplineSet
160.5 1684 m 1,0,-1
 863.5 1684 l 1,1,-1
 863.5 1539 l 1,2,-1
 322.5 1539 l 1,3,-1
 322.5 1163 l 1,4,-1
 812.5 1163 l 1,5,-1
 812.5 1018 l 1,6,-1
 322.5 1018 l 1,7,-1
 322.5 410 l 1,8,-1
 160.5 410 l 1,9,-1
 160.5 1684 l 1,0,-1
EndSplineSet
EndChar

StartChar: G
Encoding: 71 71 40
Width: 1024
VWidth: 1747
Flags: W
LayerCount: 2
Fore
SplineSet
591.5 525 m 4,0,1
 694.5 525 694.5 525 758.5 579 c 5,2,-1
 758.5 922 l 5,3,-1
 584.5 922 l 5,4,-1
 584.5 1063 l 5,5,-1
 912.5 1063 l 5,6,-1
 912.5 515 l 5,7,8
 781.5 385 781.5 385 591.5 385 c 4,9,10
 364.5 385 364.5 385 238 558.5 c 132,-1,11
 111.5 732 111.5 732 111.5 1045.5 c 132,-1,12
 111.5 1359 111.5 1359 240 1533 c 132,-1,13
 368.5 1707 368.5 1707 594.5 1707 c 4,14,15
 743.5 1707 743.5 1707 872.5 1615 c 5,16,-1
 872.5 1439 l 5,17,18
 745.5 1567 745.5 1567 594.5 1567 c 4,19,20
 279.5 1567 279.5 1567 279.5 1045 c 4,21,22
 279.5 780 279.5 780 356.5 652.5 c 132,-1,23
 433.5 525 433.5 525 591.5 525 c 4,0,1
EndSplineSet
EndChar

StartChar: H
Encoding: 72 72 41
Width: 1024
VWidth: 1747
Flags: W
LayerCount: 2
Fore
SplineSet
128.5 1684 m 1,0,-1
 290.5 1684 l 1,1,-1
 290.5 1161 l 1,2,-1
 733.5 1161 l 1,3,-1
 733.5 1684 l 1,4,-1
 895.5 1684 l 1,5,-1
 895.5 410 l 1,6,-1
 733.5 410 l 1,7,-1
 733.5 1016 l 1,8,-1
 290.5 1016 l 1,9,-1
 290.5 410 l 1,10,-1
 128.5 410 l 1,11,-1
 128.5 1684 l 1,0,-1
EndSplineSet
EndChar

StartChar: I
Encoding: 73 73 42
Width: 1024
VWidth: 1747
Flags: W
LayerCount: 2
Fore
SplineSet
180.5 1684 m 1,0,-1
 843.5 1684 l 1,1,-1
 843.5 1539 l 1,2,-1
 593.5 1539 l 1,3,-1
 593.5 555 l 1,4,-1
 843.5 555 l 1,5,-1
 843.5 410 l 1,6,-1
 180.5 410 l 1,7,-1
 180.5 555 l 1,8,-1
 431.5 555 l 1,9,-1
 431.5 1539 l 1,10,-1
 180.5 1539 l 1,11,-1
 180.5 1684 l 1,0,-1
EndSplineSet
EndChar

StartChar: J
Encoding: 74 74 43
Width: 1024
VWidth: 1747
Flags: W
LayerCount: 2
Fore
SplineSet
485 385 m 0,0,1
 335 385 335 385 173 462 c 1,2,-1
 173 663 l 1,3,4
 318 525 318 525 485 525 c 0,5,6
 599 525 599 525 644 588.5 c 128,-1,7
 689 652 689 652 689 825 c 2,8,-1
 689 1539 l 1,9,-1
 384 1539 l 1,10,-1
 384 1684 l 1,11,-1
 851 1684 l 1,12,-1
 851 825 l 2,13,14
 851 584 851 584 767 484.5 c 128,-1,15
 683 385 683 385 485 385 c 0,0,1
EndSplineSet
EndChar

StartChar: K
Encoding: 75 75 44
Width: 1024
VWidth: 1747
Flags: W
LayerCount: 2
Fore
SplineSet
87 1684 m 1,0,-1
 249 1684 l 1,1,-1
 249 1117 l 1,2,-1
 754 1684 l 1,3,-1
 937 1684 l 1,4,-1
 479 1163 l 1,5,-1
 937 410 l 1,6,-1
 754 410 l 1,7,-1
 373 1048 l 1,8,-1
 249 908 l 1,9,-1
 249 410 l 1,10,-1
 87 410 l 1,11,-1
 87 1684 l 1,0,-1
EndSplineSet
EndChar

StartChar: L
Encoding: 76 76 45
Width: 1024
VWidth: 1747
Flags: W
LayerCount: 2
Fore
SplineSet
142.5 1684 m 1,0,-1
 305.5 1684 l 1,1,-1
 305.5 555 l 1,2,-1
 881.5 555 l 1,3,-1
 881.5 410 l 1,4,-1
 142.5 410 l 1,5,-1
 142.5 1684 l 1,0,-1
EndSplineSet
EndChar

StartChar: M
Encoding: 77 77 46
Width: 1024
VWidth: 1747
Flags: W
LayerCount: 2
Fore
SplineSet
88 1684 m 1,0,-1
 305 1684 l 1,1,-1
 511 1035 l 1,2,-1
 720 1684 l 1,3,-1
 936 1684 l 1,4,-1
 936 410 l 1,5,-1
 786 410 l 1,6,-1
 786 1535 l 1,7,-1
 574 864 l 1,8,-1
 451 864 l 1,9,-1
 238 1535 l 1,10,-1
 238 410 l 1,11,-1
 88 410 l 1,12,-1
 88 1684 l 1,0,-1
EndSplineSet
EndChar

StartChar: N
Encoding: 78 78 47
Width: 1024
VWidth: 1747
Flags: W
LayerCount: 2
Fore
SplineSet
130 1684 m 1,0,-1
 334 1684 l 1,1,-1
 737 635 l 1,2,-1
 737 1684 l 1,3,-1
 894 1684 l 1,4,-1
 894 410 l 1,5,-1
 688 410 l 1,6,-1
 285 1458 l 1,7,-1
 285 410 l 1,8,-1
 130 410 l 1,9,-1
 130 1684 l 1,0,-1
EndSplineSet
EndChar

StartChar: O
Encoding: 79 79 48
Width: 1024
VWidth: 1747
Flags: W
LayerCount: 2
Fore
SplineSet
742.5 1045 m 256,0,1
 742.5 1326 742.5 1326 688.5 1446.5 c 128,-1,2
 634.5 1567 634.5 1567 511.5 1567 c 128,-1,3
 388.5 1567 388.5 1567 335 1446.5 c 128,-1,4
 281.5 1326 281.5 1326 281.5 1045.5 c 128,-1,5
 281.5 765 281.5 765 335 645 c 128,-1,6
 388.5 525 388.5 525 511.5 525 c 128,-1,7
 634.5 525 634.5 525 688.5 644.5 c 128,-1,8
 742.5 764 742.5 764 742.5 1045 c 256,0,1
813 1543 m 128,-1,10
 911.5 1379 911.5 1379 911.5 1046 c 128,-1,11
 911.5 713 911.5 713 813 549 c 128,-1,12
 714.5 385 714.5 385 511.5 385 c 256,13,14
 308.5 385 308.5 385 210.5 548 c 128,-1,15
 112.5 711 112.5 711 112.5 1045 c 128,-1,16
 112.5 1379 112.5 1379 211.5 1543 c 128,-1,17
 310.5 1707 310.5 1707 512.5 1707 c 128,-1,9
 714.5 1707 714.5 1707 813 1543 c 128,-1,10
EndSplineSet
EndChar

StartChar: P
Encoding: 80 80 49
Width: 1024
VWidth: 1747
Flags: W
LayerCount: 2
Fore
SplineSet
295.5 1542 m 1,0,-1
 295.5 1063 l 1,1,-1
 482.5 1063 l 2,2,3
 594.5 1063 594.5 1063 658 1126.5 c 128,-1,4
 721.5 1190 721.5 1190 721.5 1303 c 256,5,6
 721.5 1416 721.5 1416 658.5 1479 c 128,-1,7
 595.5 1542 595.5 1542 482.5 1542 c 2,8,-1
 295.5 1542 l 1,0,-1
134.5 1684 m 1,9,-1
 482.5 1684 l 2,10,11
 682.5 1684 682.5 1684 786 1587 c 128,-1,12
 889.5 1490 889.5 1490 889.5 1302 c 128,-1,13
 889.5 1114 889.5 1114 786.5 1018 c 128,-1,14
 683.5 922 683.5 922 482.5 922 c 2,15,-1
 295.5 922 l 1,16,-1
 295.5 410 l 1,17,-1
 134.5 410 l 1,18,-1
 134.5 1684 l 1,9,-1
EndSplineSet
EndChar

StartChar: Q
Encoding: 81 81 50
Width: 1024
VWidth: 1747
Flags: W
LayerCount: 2
Fore
SplineSet
911.5 1045 m 0,0,1
 911.5 548 911.5 548 690.5 427 c 1,2,-1
 850.5 265 l 1,3,-1
 730.5 179 l 1,4,-1
 542.5 387 l 1,5,6
 536.5 386 536.5 386 526.5 386 c 2,7,-1
 468.5 386 l 1,8,9
 311.5 386 311.5 386 212 549.5 c 128,-1,10
 112.5 713 112.5 713 112.5 1046 c 128,-1,11
 112.5 1379 112.5 1379 211.5 1543 c 128,-1,12
 310.5 1707 310.5 1707 512.5 1707 c 128,-1,13
 714.5 1707 714.5 1707 813 1543 c 128,-1,14
 911.5 1379 911.5 1379 911.5 1045 c 0,0,1
742.5 1045 m 256,15,16
 742.5 1326 742.5 1326 688.5 1446.5 c 128,-1,17
 634.5 1567 634.5 1567 511.5 1567 c 128,-1,18
 388.5 1567 388.5 1567 335 1446.5 c 128,-1,19
 281.5 1326 281.5 1326 281.5 1045.5 c 128,-1,20
 281.5 765 281.5 765 335 645 c 128,-1,21
 388.5 525 388.5 525 511.5 525 c 128,-1,22
 634.5 525 634.5 525 688.5 644.5 c 128,-1,23
 742.5 764 742.5 764 742.5 1045 c 256,15,16
EndSplineSet
EndChar

StartChar: R
Encoding: 82 82 51
Width: 1024
VWidth: 1747
Flags: W
LayerCount: 2
Fore
SplineSet
584 1011 m 1,0,1
 647 994 647 994 690.5 946.5 c 128,-1,2
 734 899 734 899 799 758 c 1,3,-1
 935 410 l 1,4,-1
 763 410 l 1,5,-1
 645 731 l 1,6,7
 583 868 583 868 534 908 c 128,-1,8
 485 948 485 948 406 948 c 2,9,-1
 252 948 l 1,10,-1
 252 410 l 1,11,-1
 89 410 l 1,12,-1
 89 1684 l 1,13,-1
 422 1684 l 2,14,15
 619 1684 619 1684 724 1589 c 128,-1,16
 829 1494 829 1494 829 1315 c 0,17,18
 829 1189 829 1189 765 1109 c 128,-1,19
 701 1029 701 1029 584 1011 c 1,0,1
429 1090 m 2,20,21
 659 1090 659 1090 659 1315 c 0,22,23
 659 1425 659 1425 598.5 1483.5 c 128,-1,24
 538 1542 538 1542 422 1542 c 2,25,-1
 252 1542 l 1,26,-1
 252 1090 l 1,27,-1
 429 1090 l 2,20,21
EndSplineSet
EndChar

StartChar: S
Encoding: 83 83 52
Width: 1024
VWidth: 1747
Flags: W
LayerCount: 2
Fore
SplineSet
520.5 1707 m 0,0,1
 657.5 1707 657.5 1707 826.5 1640 c 1,2,-1
 826.5 1465 l 1,3,4
 677.5 1567 677.5 1567 529.5 1567 c 0,5,6
 415.5 1567 415.5 1567 348.5 1510.5 c 128,-1,7
 281.5 1454 281.5 1454 281.5 1363.5 c 128,-1,8
 281.5 1273 281.5 1273 325.5 1228.5 c 128,-1,9
 369.5 1184 369.5 1184 488.5 1154 c 1,10,-1
 573.5 1133 l 1,11,12
 741.5 1091 741.5 1091 818.5 1001.5 c 128,-1,13
 895.5 912 895.5 912 895.5 744 c 128,-1,14
 895.5 576 895.5 576 790 480.5 c 128,-1,15
 684.5 385 684.5 385 499 385 c 128,-1,16
 313.5 385 313.5 385 143.5 462 c 1,17,-1
 143.5 645 l 1,18,19
 320.5 525 320.5 525 482.5 525 c 0,20,21
 605.5 525 605.5 525 673 583.5 c 128,-1,22
 740.5 642 740.5 642 740.5 742 c 128,-1,23
 740.5 842 740.5 842 693.5 892.5 c 128,-1,24
 646.5 943 646.5 943 531.5 970 c 1,25,-1
 445.5 992 l 1,26,27
 279.5 1032 279.5 1032 204 1113 c 128,-1,28
 128.5 1194 128.5 1194 128.5 1330 c 0,29,30
 128.5 1501 128.5 1501 235.5 1604 c 128,-1,31
 342.5 1707 342.5 1707 520.5 1707 c 0,0,1
EndSplineSet
EndChar

StartChar: T
Encoding: 84 84 53
Width: 1024
VWidth: 1747
Flags: W
LayerCount: 2
Fore
SplineSet
56.5 1684 m 1,0,-1
 967.5 1684 l 1,1,-1
 967.5 1539 l 1,2,-1
 594.5 1539 l 1,3,-1
 594.5 410 l 1,4,-1
 431.5 410 l 1,5,-1
 431.5 1539 l 1,6,-1
 56.5 1539 l 1,7,-1
 56.5 1684 l 1,0,-1
EndSplineSet
EndChar

StartChar: U
Encoding: 85 85 54
Width: 1024
VWidth: 1747
Flags: W
LayerCount: 2
Fore
SplineSet
136.5 899 m 2,0,-1
 136.5 1684 l 1,1,-1
 299.5 1684 l 1,2,-1
 299.5 820 l 2,3,4
 299.5 665 299.5 665 321.5 626 c 1,5,6
 373.5 524 373.5 524 512.5 525 c 0,7,8
 651.5 525 651.5 525 704.5 626 c 1,9,10
 726.5 664 726.5 664 725.5 818 c 2,11,-1
 725.5 1684 l 1,12,-1
 887.5 1684 l 1,13,-1
 887.5 899 l 2,14,15
 887.5 704 887.5 704 864.5 621 c 128,-1,16
 841.5 538 841.5 538 787.5 486 c 0,17,18
 681.5 384 681.5 384 512.5 385 c 0,19,20
 345.5 385 345.5 385 238.5 485 c 0,21,22
 183.5 538 183.5 538 160 622 c 128,-1,23
 136.5 706 136.5 706 136.5 899 c 2,0,-1
EndSplineSet
EndChar

StartChar: V
Encoding: 86 86 55
Width: 1024
VWidth: 1747
Flags: W
LayerCount: 2
Fore
SplineSet
511.5 555 m 1,0,-1
 792.5 1684 l 1,1,-1
 959.5 1684 l 1,2,-1
 610.5 410 l 1,3,-1
 414.5 410 l 1,4,-1
 64.5 1684 l 1,5,-1
 231.5 1684 l 1,6,-1
 511.5 555 l 1,0,-1
EndSplineSet
EndChar

StartChar: W
Encoding: 87 87 56
Width: 1024
VWidth: 1747
Flags: W
LayerCount: 2
Fore
SplineSet
32 1684 m 1,0,-1
 190 1684 l 1,1,-1
 304 649 l 1,2,-1
 440 1334 l 1,3,-1
 609 1334 l 1,4,-1
 747 648 l 1,5,-1
 835 1684 l 1,6,-1
 992 1684 l 1,7,-1
 840 410 l 1,8,-1
 687 410 l 1,9,-1
 525 1167 l 1,10,-1
 363 410 l 1,11,-1
 210 410 l 1,12,-1
 32 1684 l 1,0,-1
EndSplineSet
EndChar

StartChar: X
Encoding: 88 88 57
Width: 1024
VWidth: 1747
Flags: W
LayerCount: 2
Fore
SplineSet
87.5 1684 m 1,0,-1
 262.5 1684 l 1,1,-1
 523.5 1203 l 1,2,-1
 791.5 1684 l 1,3,-1
 965.5 1684 l 1,4,-1
 607.5 1085 l 1,5,-1
 990.5 410 l 1,6,-1
 817.5 410 l 1,7,-1
 523.5 958 l 1,8,-1
 207.5 410 l 1,9,-1
 33.5 410 l 1,10,-1
 433.5 1085 l 1,11,-1
 87.5 1684 l 1,0,-1
EndSplineSet
EndChar

StartChar: Y
Encoding: 89 89 58
Width: 1024
VWidth: 1747
Flags: W
LayerCount: 2
Fore
SplineSet
48.5 1684 m 1,0,-1
 220.5 1684 l 1,1,-1
 511.5 1121 l 1,2,-1
 801.5 1684 l 1,3,-1
 975.5 1684 l 1,4,-1
 592.5 981 l 1,5,-1
 592.5 410 l 1,6,-1
 430.5 410 l 1,7,-1
 430.5 981 l 1,8,-1
 48.5 1684 l 1,0,-1
EndSplineSet
EndChar

StartChar: Z
Encoding: 90 90 59
Width: 1024
VWidth: 1747
Flags: W
LayerCount: 2
Fore
SplineSet
123.5 1684 m 5,0,-1
 899.5 1684 l 5,1,-1
 899.5 1552 l 5,2,-1
 274.5 555 l 5,3,-1
 917.5 555 l 5,4,-1
 917.5 410 l 5,5,-1
 106.5 410 l 5,6,-1
 106.5 541 l 5,7,-1
 713.5 1539 l 5,8,-1
 123.5 1539 l 5,9,-1
 123.5 1684 l 5,0,-1
EndSplineSet
EndChar

StartChar: bracketleft
Encoding: 91 91 60
Width: 1024
VWidth: 1747
Flags: W
LayerCount: 2
Fore
SplineSet
342 1737 m 1,0,-1
 682 1737 l 1,1,-1
 682 1615 l 1,2,-1
 489 1615 l 1,3,-1
 489 301 l 1,4,-1
 682 301 l 1,5,-1
 682 179 l 1,6,-1
 342 179 l 1,7,-1
 342 1737 l 1,0,-1
EndSplineSet
EndChar

StartChar: backslash
Encoding: 92 92 61
Width: 1024
VWidth: 1747
Flags: W
LayerCount: 2
Fore
SplineSet
273 1684 m 1,0,-1
 903 247 l 1,1,-1
 751 247 l 1,2,-1
 121 1684 l 1,3,-1
 273 1684 l 1,0,-1
EndSplineSet
EndChar

StartChar: bracketright
Encoding: 93 93 62
Width: 1024
VWidth: 1747
Flags: W
LayerCount: 2
Fore
SplineSet
682 1737 m 5,0,-1
 682 179 l 5,1,-1
 342 179 l 5,2,-1
 342 301 l 5,3,-1
 535 301 l 5,4,-1
 535 1615 l 5,5,-1
 342 1615 l 5,6,-1
 342 1737 l 5,7,-1
 682 1737 l 5,0,-1
EndSplineSet
EndChar

StartChar: asciicircum
Encoding: 94 94 63
Width: 1024
VWidth: 1747
Flags: W
LayerCount: 2
Fore
SplineSet
561.05 1878.05 m 5,0,-1
 815.75 1536.95 l 5,1,-1
 715.85 1536.95 l 5,2,-1
 510.65 1779.05 l 5,3,-1
 308.15 1536.95 l 5,4,-1
 208.25 1536.95 l 5,5,-1
 462.05 1878.05 l 5,6,-1
 561.05 1878.05 l 5,0,-1
EndSplineSet
EndChar

StartChar: underscore
Encoding: 95 95 64
Width: 1024
VWidth: 1747
Flags: W
LayerCount: 2
Fore
SplineSet
960 164 m 5,0,-1
 960 0 l 5,1,-1
 64 0 l 5,2,-1
 64 164 l 5,3,-1
 960 164 l 5,0,-1
EndSplineSet
EndChar

StartChar: grave
Encoding: 96 96 65
Width: 1024
VWidth: 1747
Flags: W
LayerCount: 2
Fore
SplineSet
479 1807 m 1,0,-1
 704 1487 l 1,1,-1
 580 1487 l 1,2,-1
 320 1807 l 1,3,-1
 479 1807 l 1,0,-1
EndSplineSet
EndChar

StartChar: a
Encoding: 97 97 66
Width: 1024
VWidth: 1747
Flags: W
LayerCount: 2
Fore
SplineSet
548 890 m 2,0,1
 289 890 289 890 289 698 c 0,2,3
 289 612 289 612 338 564 c 128,-1,4
 387 516 387 516 473 516 c 0,5,6
 595 516 595 516 665 606 c 128,-1,7
 735 696 735 696 735 855 c 2,8,-1
 735 890 l 1,9,-1
 548 890 l 2,0,1
207 1322 m 1,10,11
 370 1389 370 1389 495 1388 c 0,12,13
 728 1388 728 1388 826 1248 c 0,14,15
 856 1205 856 1205 869.5 1142.5 c 128,-1,16
 883 1080 883 1080 883 955 c 2,17,-1
 883 410 l 1,18,-1
 735 410 l 1,19,-1
 735 551 l 1,20,21
 643 385 643 385 441 385 c 0,22,23
 304 385 304 385 222.5 467.5 c 128,-1,24
 141 550 141 550 141 698.5 c 128,-1,25
 141 847 141 847 242 930 c 128,-1,26
 343 1013 343 1013 537 1013 c 2,27,-1
 735 1013 l 1,28,-1
 735 1038 l 2,29,30
 735 1152 735 1152 681 1203.5 c 128,-1,31
 627 1255 627 1255 491 1255 c 128,-1,32
 355 1255 355 1255 207 1165 c 1,33,-1
 207 1322 l 1,10,11
EndSplineSet
EndChar

StartChar: b
Encoding: 98 98 67
Width: 1024
VWidth: 1747
Flags: W
LayerCount: 2
Fore
SplineSet
525 518 m 4,0,1
 741 518 741 518 739 887 c 260,2,3
 739 1256 739 1256 525 1255 c 4,4,5
 418 1255 418 1255 362.5 1161.5 c 132,-1,6
 307 1068 307 1068 307 887 c 132,-1,7
 307 706 307 706 362.5 612 c 132,-1,8
 418 518 418 518 525 518 c 4,0,1
801.5 519.5 m 132,-1,10
 708 385 708 385 545 385 c 132,-1,11
 382 385 382 385 307 530 c 5,12,-1
 307 410 l 5,13,-1
 160 410 l 5,14,-1
 160 1737 l 5,15,-1
 307 1737 l 5,16,-1
 307 1243 l 5,17,18
 380 1388 380 1388 544.5 1388 c 132,-1,19
 709 1388 709 1388 802 1255.5 c 132,-1,20
 895 1123 895 1123 895 888.5 c 132,-1,9
 895 654 895 654 801.5 519.5 c 132,-1,10
EndSplineSet
EndChar

StartChar: c
Encoding: 99 99 68
Width: 1024
VWidth: 1747
Flags: W
LayerCount: 2
Fore
SplineSet
395.5 614 m 128,-1,1
 470.5 518 470.5 518 613.5 518 c 128,-1,2
 756.5 518 756.5 518 858.5 621 c 1,3,-1
 858.5 458 l 1,4,5
 740.5 385 740.5 385 607.5 385 c 0,6,7
 399.5 385 399.5 385 282.5 518 c 128,-1,8
 165.5 651 165.5 651 165.5 887 c 256,9,10
 165.5 1123 165.5 1123 282.5 1255.5 c 128,-1,11
 399.5 1388 399.5 1388 607.5 1388 c 0,12,13
 735.5 1388 735.5 1388 858.5 1315 c 1,14,-1
 858.5 1150 l 1,15,16
 800.5 1205 800.5 1205 741.5 1230 c 128,-1,17
 682.5 1255 682.5 1255 607.5 1255 c 0,18,19
 468.5 1255 468.5 1255 394.5 1159.5 c 128,-1,20
 320.5 1064 320.5 1064 320.5 887 c 128,-1,0
 320.5 710 320.5 710 395.5 614 c 128,-1,1
EndSplineSet
EndChar

StartChar: d
Encoding: 100 100 69
Width: 1024
VWidth: 1747
Flags: W
LayerCount: 2
Fore
SplineSet
222 1255.5 m 132,-1,1
 316 1388 316 1388 480 1388 c 4,2,3
 645 1388 645 1388 716 1243 c 5,4,-1
 716 1737 l 5,5,-1
 864 1737 l 5,6,-1
 864 410 l 5,7,-1
 716 410 l 5,8,-1
 716 530 l 5,9,10
 641 385 641 385 478 385 c 132,-1,11
 315 385 315 385 221.5 519.5 c 132,-1,12
 128 654 128 654 128 888.5 c 132,-1,0
 128 1123 128 1123 222 1255.5 c 132,-1,1
499 1255 m 260,13,14
 283 1255 283 1255 284 887 c 260,15,16
 284 518 284 518 499 518 c 260,17,18
 605 518 605 518 660.5 612 c 132,-1,19
 716 706 716 706 716 887 c 132,-1,20
 716 1068 716 1068 660.5 1161.5 c 132,-1,21
 605 1255 605 1255 499 1255 c 260,13,14
EndSplineSet
EndChar

StartChar: e
Encoding: 101 101 70
Width: 1024
VWidth: 1747
Flags: W
LayerCount: 2
Fore
SplineSet
873 458 m 1,0,1
 705 385 705 385 561 385 c 0,2,3
 352 385 352 385 234 518.5 c 128,-1,4
 116 652 116 652 116 883.5 c 128,-1,5
 116 1115 116 1115 231.5 1251.5 c 128,-1,6
 347 1388 347 1388 528.5 1388 c 128,-1,7
 710 1388 710 1388 809 1264.5 c 128,-1,8
 908 1141 908 1141 908 927 c 2,9,-1
 908 850 l 1,10,-1
 270 850 l 1,11,-1
 270 845 l 2,12,13
 270 689 270 689 346.5 603.5 c 128,-1,14
 423 518 423 518 561 518 c 0,15,16
 700 518 700 518 873 614 c 1,17,-1
 873 458 l 1,0,1
761 973 m 1,18,19
 761 1111 761 1111 701.5 1183 c 128,-1,20
 642 1255 642 1255 534 1255 c 128,-1,21
 426 1255 426 1255 357 1180.5 c 128,-1,22
 288 1106 288 1106 276 973 c 1,23,-1
 761 973 l 1,18,19
EndSplineSet
EndChar

StartChar: f
Encoding: 102 102 71
Width: 1024
VWidth: 1747
Flags: W
HStem: 410 18G<404.5 551.5> 1243 120<164.5 404.5 551.5 859.5> 1607 131<582.5 859.5>
VStem: 404.5 147<410 1243 1364 1571>
LayerCount: 2
Fore
SplineSet
859.5 1737 m 1,0,-1
 859.5 1607 l 1,1,-1
 692.5 1607 l 2,2,3
 613.5 1607 613.5 1607 582.5 1572.5 c 128,-1,4
 551.5 1538 551.5 1538 551.5 1450 c 2,5,-1
 551.5 1364 l 1,6,-1
 859.5 1364 l 1,7,-1
 859.5 1243 l 1,8,-1
 551.5 1243 l 1,9,-1
 551.5 410 l 1,10,-1
 404.5 410 l 1,11,-1
 404.5 1243 l 1,12,-1
 164.5 1243 l 1,13,-1
 164.5 1364 l 1,14,-1
 404.5 1364 l 1,15,-1
 404.5 1432 l 2,16,17
 404.5 1589 404.5 1589 472 1663 c 128,-1,18
 539.5 1737 539.5 1737 682.5 1737 c 2,19,-1
 859.5 1737 l 1,0,-1
EndSplineSet
EndChar

StartChar: g
Encoding: 103 103 72
Width: 1024
VWidth: 1747
Flags: W
LayerCount: 2
Fore
SplineSet
678.5 626 m 128,-1,1
 732 719 732 719 732 895.5 c 128,-1,2
 732 1072 732 1072 678.5 1163.5 c 128,-1,3
 625 1255 625 1255 519.5 1255 c 128,-1,4
 414 1255 414 1255 357 1163.5 c 128,-1,5
 300 1072 300 1072 300 895 c 256,6,7
 300 718 300 718 357.5 625.5 c 128,-1,8
 415 533 415 533 520 533 c 128,-1,0
 625 533 625 533 678.5 626 c 128,-1,1
238 1254 m 128,-1,10
 332 1388 332 1388 496 1388 c 0,11,12
 659 1388 659 1388 732 1238 c 1,13,-1
 732 1364 l 1,14,-1
 880 1364 l 1,15,-1
 880 471 l 2,16,17
 880 256 880 256 784.5 145 c 128,-1,18
 689 34 689 34 505 34 c 0,19,20
 380 34 380 34 245 81 c 1,21,-1
 245 236 l 1,22,23
 399 159 399 159 511.5 159.5 c 128,-1,24
 624 160 624 160 678 229 c 128,-1,25
 732 298 732 298 732 448 c 2,26,-1
 732 561 l 1,27,28
 663 402 663 402 497.5 402.5 c 132,-1,29
 332 403 332 403 238 537 c 128,-1,30
 144 671 144 671 144 895.5 c 128,-1,9
 144 1120 144 1120 238 1254 c 128,-1,10
EndSplineSet
EndChar

StartChar: h
Encoding: 104 104 73
Width: 1024
VWidth: 1747
Flags: W
LayerCount: 2
Fore
SplineSet
589 1388 m 4,0,1
 861 1388 861 1388 861 1002 c 6,2,-1
 861 410 l 5,3,-1
 713 410 l 5,4,-1
 713 1002 l 6,5,6
 713 1131 713 1131 671 1191.5 c 132,-1,7
 629 1252 629 1252 531.5 1252 c 132,-1,8
 434 1252 434 1252 378.5 1174 c 132,-1,9
 323 1096 323 1096 323 950 c 6,10,-1
 323 410 l 5,11,-1
 176 410 l 5,12,-1
 176 1737 l 5,13,-1
 323 1737 l 5,14,-1
 323 1222 l 5,15,16
 403 1388 403 1388 589 1388 c 4,0,1
EndSplineSet
EndChar

StartChar: i
Encoding: 105 105 74
Width: 1024
VWidth: 1747
Flags: W
HStem: 410 122<146.5 437.5 584.5 877.5> 1243 122<207.5 437.5> 1539 199<437.5 584.5>
VStem: 437.5 147<532 1243 1539 1737>
LayerCount: 2
Fore
SplineSet
256.5 1365 m 5,0,-1
 584.5 1365 l 5,1,-1
 584.5 532 l 5,2,-1
 832 532 l 5,3,-1
 832 410 l 5,4,-1
 192 410 l 5,5,-1
 192 532 l 5,6,-1
 437.5 532 l 5,7,-1
 437.5 1243 l 5,8,-1
 256.5 1243 l 5,9,-1
 256.5 1365 l 5,0,-1
437.5 1737 m 1,10,-1
 584.5 1737 l 1,11,-1
 584.5 1539 l 1,12,-1
 437.5 1539 l 1,13,-1
 437.5 1737 l 1,10,-1
EndSplineSet
EndChar

StartChar: j
Encoding: 106 106 75
Width: 1024
VWidth: 1747
Flags: W
LayerCount: 2
Fore
SplineSet
460 179 m 2,0,1
 604 179 604 179 604 393 c 2,2,-1
 604 1243 l 1,3,-1
 350 1243 l 1,4,-1
 350 1364 l 1,5,-1
 751 1364 l 1,6,-1
 751 393 l 2,7,8
 751 227 751 227 679.5 136.5 c 128,-1,9
 608 46 608 46 476 46 c 2,10,-1
 273 46 l 1,11,-1
 273 179 l 1,12,-1
 460 179 l 2,0,1
604 1737 m 1,13,-1
 751 1737 l 1,14,-1
 751 1539 l 1,15,-1
 604 1539 l 1,16,-1
 604 1737 l 1,13,-1
EndSplineSet
EndChar

StartChar: k
Encoding: 107 107 76
Width: 1024
VWidth: 1747
Flags: W
HStem: 410 18G<126 279 708 898> 1348 17G<649 845>
VStem: 126 152<410 793 969 1737>
LayerCount: 2
Fore
SplineSet
160 1737 m 5,0,-1
 313 1737 l 5,1,-1
 313 969 l 5,2,-1
 700 1365 l 5,3,-1
 879 1365 l 5,4,-1
 526 1005 l 5,5,-1
 932 410 l 5,6,-1
 754 410 l 5,7,-1
 422 903 l 5,8,-1
 313 793 l 5,9,-1
 313 410 l 5,10,-1
 160 410 l 5,11,-1
 160 1737 l 5,0,-1
EndSplineSet
EndChar

StartChar: l
Encoding: 108 108 77
Width: 1024
VWidth: 1747
Flags: W
HStem: 410 133<595.5 861.5> 1624 123<162.5 398.5>
VStem: 398.5 147<597 1624>
LayerCount: 2
Fore
SplineSet
545.5 756 m 2,0,1
 545.5 543 545.5 543 689.5 543 c 2,2,-1
 861.5 543 l 1,3,-1
 861.5 410 l 1,4,-1
 675.5 410 l 2,5,6
 543.5 410 543.5 410 471 500.5 c 128,-1,7
 398.5 591 398.5 591 398.5 756 c 2,8,-1
 398.5 1624 l 1,9,-1
 182.5 1624 l 5,10,-1
 182.5 1747 l 5,11,-1
 545.5 1747 l 1,12,-1
 545.5 756 l 2,0,1
EndSplineSet
EndChar

StartChar: m
Encoding: 109 109 78
Width: 1024
VWidth: 1747
Flags: W
HStem: 410 18G<101 235 443 579 788 923> 1257 131<286 415 613 760> 1347 17G<101 235>
VStem: 101 134<410 1226 1283 1364> 443 134<410 1208> 788 134<410 1228>
LayerCount: 2
Fore
SplineSet
235 1283 m 1,0,1
 287 1388 287 1388 398 1388 c 0,2,3
 510 1388 510 1388 555 1268 c 1,4,5
 608 1388 608 1388 721 1388 c 128,-1,6
 834 1388 834 1388 878.5 1299 c 128,-1,7
 923 1210 923 1210 923 963 c 2,8,-1
 923 410 l 1,9,-1
 788 410 l 1,10,-1
 788 957 l 2,11,12
 788 1159 788 1159 766.5 1208 c 128,-1,13
 745 1257 745 1257 685 1257 c 128,-1,14
 625 1257 625 1257 602 1204.5 c 128,-1,15
 579 1152 579 1152 579 957 c 2,16,-1
 579 410 l 1,17,-1
 443 410 l 1,18,-1
 443 957 l 2,19,20
 443 1162 443 1162 420.5 1209.5 c 128,-1,21
 398 1257 398 1257 339 1257 c 128,-1,22
 280 1257 280 1257 257.5 1204.5 c 128,-1,23
 235 1152 235 1152 235 957 c 2,24,-1
 235 410 l 1,25,-1
 101 410 l 1,26,-1
 101 1364 l 1,27,-1
 235 1364 l 1,28,-1
 235 1283 l 1,0,1
EndSplineSet
EndChar

StartChar: n
Encoding: 110 110 79
Width: 1024
VWidth: 1747
Flags: W
LayerCount: 2
Fore
SplineSet
582.5 1388 m 0,0,1
 854.5 1388 854.5 1388 854.5 1002 c 2,2,-1
 854.5 410 l 1,3,-1
 706.5 410 l 5,4,-1
 706.5 1002 l 2,5,6
 706.5 1131 706.5 1131 664.5 1191.5 c 128,-1,7
 622.5 1252 622.5 1252 525 1252 c 128,-1,8
 427.5 1252 427.5 1252 372 1174 c 128,-1,9
 316.5 1096 316.5 1096 316.5 950 c 2,10,-1
 316.5 410 l 1,11,-1
 169.5 410 l 1,12,-1
 169.5 1364 l 1,13,-1
 316.5 1364 l 1,14,-1
 316.5 1222 l 1,15,16
 396.5 1388 396.5 1388 582.5 1388 c 0,0,1
EndSplineSet
EndChar

StartChar: o
Encoding: 111 111 80
Width: 1024
VWidth: 1747
Flags: W
LayerCount: 2
Fore
SplineSet
739.5 886.5 m 128,-1,1
 739.5 1255 739.5 1255 511.5 1255 c 128,-1,2
 283.5 1255 283.5 1255 283.5 887 c 0,3,4
 283.5 705 283.5 705 341.5 611.5 c 128,-1,5
 399.5 518 399.5 518 511.5 518 c 0,6,0
 739.5 518 739.5 518 739.5 886.5 c 128,-1,1
511.5 1388 m 256,7,8
 698.5 1388 698.5 1388 797 1259.5 c 128,-1,9
 895.5 1131 895.5 1131 895.5 886.5 c 128,-1,10
 895.5 642 895.5 642 797 513.5 c 128,-1,11
 698.5 385 698.5 385 512 385 c 132,-1,12
 325.5 385 325.5 385 227 513.5 c 128,-1,13
 128.5 642 128.5 642 128.5 886.5 c 128,-1,14
 128.5 1131 128.5 1131 226.5 1259.5 c 128,-1,15
 324.5 1388 324.5 1388 511.5 1388 c 256,7,8
EndSplineSet
EndChar

StartChar: p
Encoding: 112 112 81
Width: 1024
VWidth: 1747
Flags: W
LayerCount: 2
Fore
SplineSet
801.5 517.5 m 128,-1,1
 709 385 709 385 545 385 c 0,2,3
 380 385 380 385 308 530 c 1,4,-1
 308 46 l 1,5,-1
 160 46 l 1,6,-1
 160 1364 l 1,7,-1
 308 1364 l 1,8,-1
 308 1243 l 1,9,10
 383 1388 383 1388 546 1388 c 132,-1,11
 709 1388 709 1388 801.5 1254 c 128,-1,12
 894 1120 894 1120 894 885 c 128,-1,0
 894 650 894 650 801.5 517.5 c 128,-1,1
526 518 m 0,13,14
 741 518 741 518 740 887 c 256,15,16
 740 1256 740 1256 526 1255 c 0,17,18
 419 1255 419 1255 363.5 1161.5 c 128,-1,19
 308 1068 308 1068 308 887 c 128,-1,20
 308 706 308 706 363.5 612 c 128,-1,21
 419 518 419 518 526 518 c 0,13,14
EndSplineSet
EndChar

StartChar: q
Encoding: 113 113 82
Width: 1024
VWidth: 1747
Flags: W
LayerCount: 2
Fore
SplineSet
498 1252 m 256,0,1
 283 1252 283 1252 283 883 c 256,2,3
 283 514 283 514 498 515 c 256,4,5
 604 515 604 515 659 608 c 128,-1,6
 714 701 714 701 714 883 c 256,7,8
 714 1065 714 1065 659 1158.5 c 128,-1,9
 604 1252 604 1252 498 1252 c 256,0,1
220.5 1251 m 128,-1,11
 313 1385 313 1385 476 1385 c 128,-1,12
 639 1385 639 1385 714 1240 c 1,13,-1
 714 1364 l 1,14,-1
 862 1364 l 1,15,-1
 862 43 l 1,16,-1
 714 43 l 1,17,-1
 714 528 l 1,18,19
 640 381 640 381 477 381 c 128,-1,20
 314 381 314 381 221 514 c 128,-1,21
 128 647 128 647 128 882 c 128,-1,10
 128 1117 128 1117 220.5 1251 c 128,-1,11
EndSplineSet
EndChar

StartChar: r
Encoding: 114 114 83
Width: 1024
VWidth: 1747
Flags: W
LayerCount: 2
Fore
SplineSet
516.5 1334 m 132,-1,1
 593 1388 593 1388 699.5 1388 c 132,-1,2
 806 1388 806 1388 891 1329 c 5,3,-1
 891 1168 l 5,4,5
 801 1243 801 1243 675 1243 c 132,-1,6
 549 1243 549 1243 476.5 1151 c 132,-1,7
 404 1059 404 1059 404 885 c 6,8,-1
 404 410 l 5,9,-1
 256 410 l 5,10,-1
 256 1364 l 5,11,-1
 404 1364 l 5,12,-1
 404 1178 l 5,13,0
 440 1280 440 1280 516.5 1334 c 132,-1,1
EndSplineSet
EndChar

StartChar: s
Encoding: 115 115 84
Width: 1024
VWidth: 1747
Flags: W
LayerCount: 2
Fore
SplineSet
275 1313.5 m 128,-1,1
 362.5 1388 362.5 1388 514 1388 c 128,-1,2
 665.5 1388 665.5 1388 792.5 1332 c 1,3,-1
 792.5 1178 l 1,4,5
 665.5 1257 665.5 1257 535.5 1257 c 0,6,7
 336.5 1257 336.5 1257 337.5 1117 c 0,8,9
 337.5 1053 337.5 1053 374 1021.5 c 128,-1,10
 410.5 990 410.5 990 557.5 960 c 2,11,-1
 616.5 948 l 2,12,13
 838.5 903 838.5 903 838.5 686 c 0,14,15
 838.5 544 838.5 544 744.5 464.5 c 128,-1,16
 650.5 385 650.5 385 481.5 385 c 0,17,18
 353.5 385 353.5 385 185.5 445 c 1,19,-1
 185.5 607 l 1,20,21
 350.5 517 350.5 517 485.5 516 c 0,22,23
 583.5 516 583.5 516 636.5 558.5 c 128,-1,24
 689.5 601 689.5 601 689.5 677 c 0,25,26
 689.5 786 689.5 786 493.5 828 c 1,27,-1
 431.5 841 l 1,28,29
 303.5 867 303.5 867 245.5 930 c 128,-1,30
 187.5 993 187.5 993 187.5 1102 c 0,31,0
 187.5 1239 187.5 1239 275 1313.5 c 128,-1,1
EndSplineSet
EndChar

StartChar: t
Encoding: 116 116 85
Width: 1024
VWidth: 1747
Flags: W
LayerCount: 2
Fore
SplineSet
537.5 1637 m 1,0,-1
 537.5 1364 l 1,1,-1
 872.5 1364 l 1,2,-1
 872.5 1243 l 1,3,-1
 537.5 1243 l 1,4,-1
 537.5 724 l 2,5,6
 537.5 618 537.5 618 575 576.5 c 128,-1,7
 612.5 535 612.5 535 706.5 535 c 2,8,-1
 872.5 535 l 1,9,-1
 872.5 410 l 1,10,-1
 692.5 410 l 2,11,12
 526.5 410 526.5 410 458.5 480.5 c 128,-1,13
 390.5 551 390.5 551 390.5 724 c 2,14,-1
 390.5 1243 l 1,15,-1
 151.5 1243 l 1,16,-1
 151.5 1364 l 1,17,-1
 390.5 1364 l 1,18,-1
 390.5 1637 l 1,19,-1
 537.5 1637 l 1,0,-1
EndSplineSet
EndChar

StartChar: u
Encoding: 117 117 86
Width: 1024
VWidth: 1747
Flags: W
LayerCount: 2
Fore
SplineSet
442.5 385 m 0,0,1
 170.5 385 170.5 385 169.5 771 c 2,2,-1
 169.5 1364 l 1,3,-1
 316.5 1364 l 1,4,-1
 316.5 771 l 2,5,6
 316.5 642 316.5 642 359.5 581.5 c 128,-1,7
 402.5 521 402.5 521 499 521 c 128,-1,8
 595.5 521 595.5 521 651 599.5 c 128,-1,9
 706.5 678 706.5 678 706.5 823 c 2,10,-1
 706.5 1364 l 1,11,-1
 854.5 1364 l 1,12,-1
 854.5 410 l 1,13,-1
 706.5 410 l 1,14,-1
 706.5 553 l 1,15,16
 627.5 385 627.5 385 442.5 385 c 0,0,1
EndSplineSet
EndChar

StartChar: v
Encoding: 118 118 87
Width: 1024
VWidth: 1747
Flags: W
LayerCount: 2
Fore
SplineSet
98.5 1365 m 1,0,-1
 251.5 1365 l 1,1,-1
 511.5 563 l 1,2,-1
 772.5 1365 l 1,3,-1
 925.5 1365 l 1,4,-1
 606.5 410 l 1,5,-1
 417.5 410 l 1,6,-1
 98.5 1365 l 1,0,-1
EndSplineSet
EndChar

StartChar: w
Encoding: 119 119 88
Width: 1024
VWidth: 1747
Flags: W
LayerCount: 2
Fore
SplineSet
32 1365 m 1,0,-1
 177 1365 l 1,1,-1
 334 593 l 1,2,-1
 461 1086 l 1,3,-1
 587 1086 l 1,4,-1
 717 593 l 1,5,-1
 847 1365 l 1,6,-1
 992 1365 l 1,7,-1
 809 410 l 1,8,-1
 668 410 l 1,9,-1
 525 934 l 1,10,-1
 383 410 l 1,11,-1
 242 410 l 1,12,-1
 32 1365 l 1,0,-1
EndSplineSet
EndChar

StartChar: x
Encoding: 120 120 89
Width: 1024
VWidth: 1747
Flags: W
LayerCount: 2
Fore
SplineSet
913.5 1365 m 1,0,-1
 592.5 908 l 1,1,-1
 944.5 410 l 1,2,-1
 774.5 410 l 1,3,-1
 511.5 793 l 1,4,-1
 250.5 410 l 1,5,-1
 79.5 410 l 1,6,-1
 431.5 908 l 1,7,-1
 110.5 1365 l 1,8,-1
 273.5 1365 l 1,9,-1
 511.5 1020 l 1,10,-1
 747.5 1365 l 1,11,-1
 913.5 1365 l 1,0,-1
EndSplineSet
EndChar

StartChar: y
Encoding: 121 121 90
Width: 1024
VWidth: 1747
Flags: W
LayerCount: 2
Fore
SplineSet
695 717 m 2,0,1
 658 617 658 617 602 454 c 0,2,3
 523 229 523 229 496 179 c 0,4,5
 459 112 459 112 403.5 79 c 128,-1,6
 348 46 348 46 274 46 c 2,7,-1
 156 46 l 1,8,-1
 156 177 l 1,9,-1
 243 177 l 2,10,11
 308 177 308 177 345 217.5 c 128,-1,12
 382 258 382 258 438 425 c 1,13,-1
 92 1365 l 1,14,-1
 248 1365 l 1,15,-1
 513 618 l 1,16,-1
 775 1365 l 1,17,-1
 932 1365 l 1,18,-1
 695 717 l 2,0,1
EndSplineSet
EndChar

StartChar: z
Encoding: 122 122 91
Width: 1024
VWidth: 1747
Flags: W
LayerCount: 2
Fore
SplineSet
197 1367 m 1,0,-1
 847 1367 l 1,1,-1
 847 1224 l 1,2,-1
 333 538 l 1,3,-1
 847 538 l 1,4,-1
 847 410 l 1,5,-1
 177 410 l 1,6,-1
 177 555 l 1,7,-1
 692 1242 l 1,8,-1
 197 1242 l 1,9,-1
 197 1367 l 1,0,-1
EndSplineSet
EndChar

StartChar: braceleft
Encoding: 123 123 92
Width: 1024
VWidth: 1747
Flags: W
LayerCount: 2
Fore
SplineSet
828.5 247 m 1,0,-1
 828.5 125 l 5,1,-1
 777.5 125 l 2,2,3
 578.5 125 578.5 125 510.5 188 c 128,-1,4
 442.5 251 442.5 251 442.5 439 c 2,5,-1
 442.5 643 l 2,6,7
 442.5 772 442.5 772 400 821.5 c 128,-1,8
 357.5 871 357.5 871 244.5 871 c 2,9,-1
 195.5 871 l 1,10,-1
 195.5 993 l 1,11,-1
 244.5 993 l 2,12,13
 357.5 993 357.5 993 400 1042 c 128,-1,14
 442.5 1091 442.5 1091 442.5 1219 c 2,15,-1
 442.5 1423 l 2,16,17
 442.5 1612 442.5 1612 510 1674.5 c 128,-1,18
 577.5 1737 577.5 1737 777.5 1737 c 2,19,-1
 828.5 1737 l 1,20,-1
 828.5 1615 l 1,21,-1
 772.5 1615 l 2,22,23
 660.5 1615 660.5 1615 626.5 1578 c 128,-1,24
 592.5 1541 592.5 1541 592.5 1420 c 2,25,-1
 592.5 1208 l 2,26,27
 592.5 1074 592.5 1074 556 1013.5 c 128,-1,28
 519.5 953 519.5 953 431.5 932 c 1,29,30
 520.5 909 520.5 909 556.5 848.5 c 128,-1,31
 592.5 788 592.5 788 592.5 655 c 2,32,-1
 592.5 443 l 2,33,34
 592.5 321 592.5 321 626 284 c 128,-1,35
 659.5 247 659.5 247 772.5 247 c 2,36,-1
 828.5 247 l 1,0,-1
EndSplineSet
EndChar

StartChar: bar
Encoding: 124 124 93
Width: 1024
VWidth: 1747
Flags: W
LayerCount: 2
Fore
SplineSet
581 1632 m 5,0,-1
 581 985 l 5,1,-1
 443 985 l 5,2,-1
 443 1632 l 5,3,-1
 581 1632 l 5,0,-1
581 758 m 5,4,-1
 581 111 l 5,5,-1
 443 111 l 5,6,-1
 443 758 l 5,7,-1
 581 758 l 5,4,-1
EndSplineSet
EndChar

StartChar: braceright
Encoding: 125 125 94
Width: 1024
VWidth: 1747
Flags: W
LayerCount: 2
Fore
SplineSet
195.5 247 m 1,0,-1
 250.5 247 l 2,1,2
 363.5 247 363.5 247 397.5 285 c 128,-1,3
 431.5 323 431.5 323 431.5 443 c 2,4,-1
 431.5 655 l 2,5,6
 431.5 788 431.5 788 467.5 848.5 c 128,-1,7
 503.5 909 503.5 909 592.5 932 c 1,8,9
 504.5 953 504.5 953 468 1013.5 c 128,-1,10
 431.5 1074 431.5 1074 431.5 1208 c 2,11,-1
 431.5 1420 l 2,12,13
 431.5 1540 431.5 1540 397 1577.5 c 128,-1,14
 362.5 1615 362.5 1615 250.5 1615 c 2,15,-1
 195.5 1615 l 1,16,-1
 195.5 1737 l 1,17,-1
 244.5 1737 l 2,18,19
 443.5 1737 443.5 1737 511 1674.5 c 128,-1,20
 578.5 1612 578.5 1612 578.5 1423 c 2,21,-1
 578.5 1219 l 2,22,23
 578.5 1091 578.5 1091 621.5 1042 c 128,-1,24
 664.5 993 664.5 993 777.5 993 c 2,25,-1
 828.5 993 l 1,26,-1
 828.5 871 l 1,27,-1
 777.5 871 l 2,28,29
 664.5 871 664.5 871 621.5 821.5 c 128,-1,30
 578.5 772 578.5 772 578.5 643 c 2,31,-1
 578.5 439 l 2,32,33
 578.5 250 578.5 250 511.5 187.5 c 128,-1,34
 444.5 125 444.5 125 244.5 125 c 2,35,-1
 195.5 125 l 5,36,-1
 195.5 247 l 1,0,-1
EndSplineSet
EndChar

StartChar: asciitilde
Encoding: 126 126 95
Width: 1024
VWidth: 1747
Flags: W
LayerCount: 2
Fore
SplineSet
710 970 m 4,0,1
 817 970 817 970 935 1075 c 5,2,-1
 935 927 l 5,3,4
 819 830 819 830 698 829 c 4,5,6
 626 829 626 829 535 873 c 4,7,8
 410 934 410 934 324 934 c 4,9,10
 202 934 202 934 89 829 c 5,11,-1
 89 978 l 5,12,13
 207 1075 207 1075 335 1075 c 4,14,15
 429 1075 429 1075 532.5 1022.5 c 132,-1,16
 636 970 636 970 710 970 c 4,0,1
710 970 m 0,17,18
 817 970 817 970 935 1075 c 1,19,-1
 935 927 l 1,20,21
 819 830 819 830 698 829 c 0,22,23
 626 829 626 829 535 873 c 0,24,25
 410 934 410 934 324 934 c 0,26,27
 202 934 202 934 89 829 c 1,28,-1
 89 978 l 1,29,30
 207 1075 207 1075 335 1075 c 0,31,32
 429 1075 429 1075 532.5 1022.5 c 128,-1,33
 636 970 636 970 710 970 c 0,17,18
EndSplineSet
EndChar

StartChar: exclamdown
Encoding: 161 161 96
Width: 1024
VWidth: 1747
Flags: W
LayerCount: 2
Fore
SplineSet
430.5 1467 m 1,0,-1
 430.5 1684 l 1,1,-1
 593.5 1684 l 1,2,-1
 593.5 1467 l 1,3,-1
 430.5 1467 l 1,0,-1
430.5 410 m 1,4,-1
 430.5 969 l 1,5,-1
 446.5 1273 l 1,6,-1
 576.5 1273 l 1,7,-1
 593.5 969 l 1,8,-1
 593.5 410 l 1,9,-1
 430.5 410 l 1,4,-1
EndSplineSet
EndChar

StartChar: cent
Encoding: 162 162 97
Width: 1024
VWidth: 1747
Flags: W
LayerCount: 2
Fore
SplineSet
643 1387 m 1,0,1
 723 1387 723 1387 851 1329 c 1,2,-1
 851 1182 l 1,3,4
 734 1257 734 1257 643 1257 c 1,5,-1
 643 515 l 1,6,7
 732 515 732 515 851 591 c 1,8,-1
 851 445 l 1,9,10
 723 387 723 387 643 387 c 1,11,-1
 643 143 l 1,12,-1
 561 143 l 1,13,-1
 561 387 l 1,14,15
 381 387 381 387 277 529.5 c 128,-1,16
 173 672 173 672 173 886 c 128,-1,17
 173 1100 173 1100 278 1243.5 c 128,-1,18
 383 1387 383 1387 561 1387 c 1,19,-1
 561 1632 l 1,20,-1
 643 1632 l 1,21,-1
 643 1387 l 1,0,1
561 518 m 1,22,-1
 561 1255 l 1,23,24
 455 1255 455 1255 390.5 1149.5 c 128,-1,25
 326 1044 326 1044 326 887 c 256,26,27
 326 730 326 730 390.5 624 c 128,-1,28
 455 518 455 518 561 518 c 1,22,-1
EndSplineSet
EndChar

StartChar: sterling
Encoding: 163 163 98
Width: 1024
VWidth: 1747
Flags: W
LayerCount: 2
Fore
SplineSet
665 1707 m 0,0,1
 768 1707 768 1707 885 1657 c 1,2,-1
 885 1500 l 1,3,4
 786 1575 786 1575 679.5 1575 c 128,-1,5
 573 1575 573 1575 522 1499 c 128,-1,6
 471 1423 471 1423 471 1259 c 2,7,-1
 471 1073 l 1,8,-1
 768 1073 l 1,9,-1
 768 951 l 1,10,-1
 471 951 l 1,11,-1
 471 555 l 1,12,-1
 901 555 l 1,13,-1
 901 410 l 1,14,-1
 123 410 l 1,15,-1
 123 555 l 1,16,-1
 311 555 l 1,17,-1
 311 951 l 1,18,-1
 152 951 l 1,19,-1
 152 1073 l 1,20,-1
 311 1073 l 1,21,-1
 311 1277 l 2,22,23
 311 1494 311 1494 399 1600.5 c 128,-1,24
 487 1707 487 1707 665 1707 c 0,0,1
EndSplineSet
EndChar

StartChar: currency
Encoding: 164 164 99
Width: 1024
VWidth: 1747
Flags: W
LayerCount: 2
Fore
SplineSet
634.5 827 m 128,-1,1
 684.5 881 684.5 881 684.5 958 c 128,-1,2
 684.5 1035 684.5 1035 634.5 1087.5 c 128,-1,3
 584.5 1140 584.5 1140 512 1140 c 128,-1,4
 439.5 1140 439.5 1140 390 1087.5 c 128,-1,5
 340.5 1035 340.5 1035 340.5 957.5 c 128,-1,6
 340.5 880 340.5 880 390 826.5 c 128,-1,7
 439.5 773 439.5 773 512 773 c 128,-1,0
 584.5 773 584.5 773 634.5 827 c 128,-1,1
361.5 1196 m 1,8,9
 434.5 1248 434.5 1248 509.5 1248 c 128,-1,10
 584.5 1248 584.5 1248 664.5 1198 c 1,11,-1
 797.5 1340 l 1,12,-1
 870.5 1260 l 1,13,-1
 736.5 1119 l 1,14,15
 783.5 1037 783.5 1037 783.5 955 c 0,16,17
 783.5 874 783.5 874 734.5 798 c 1,18,-1
 870.5 656 l 1,19,-1
 794.5 576 l 1,20,-1
 661.5 719 l 1,21,22
 588.5 667 588.5 667 512.5 666.5 c 128,-1,23
 436.5 666 436.5 666 358.5 715 c 1,24,-1
 226.5 576 l 1,25,-1
 153.5 653 l 1,26,-1
 286.5 794 l 1,27,28
 238.5 878 238.5 878 238 959 c 128,-1,29
 237.5 1040 237.5 1040 287.5 1117 c 1,30,-1
 153.5 1259 l 1,31,-1
 228.5 1340 l 1,32,-1
 361.5 1196 l 1,8,9
EndSplineSet
EndChar

StartChar: yen
Encoding: 165 165 100
Width: 1024
VWidth: 1747
Flags: W
LayerCount: 2
Fore
SplineSet
48.5 1684 m 1,0,-1
 220.5 1684 l 1,1,-1
 511.5 1121 l 1,2,-1
 801.5 1684 l 1,3,-1
 975.5 1684 l 1,4,-1
 711.5 1205 l 1,5,-1
 913.5 1205 l 1,6,-1
 913.5 1110 l 1,7,-1
 660.5 1110 l 1,8,-1
 592.5 981 l 1,9,-1
 592.5 951 l 1,10,-1
 913.5 951 l 1,11,-1
 913.5 857 l 1,12,-1
 592.5 857 l 1,13,-1
 592.5 410 l 1,14,-1
 430.5 410 l 1,15,-1
 430.5 857 l 1,16,-1
 110.5 857 l 1,17,-1
 110.5 951 l 1,18,-1
 430.5 951 l 1,19,-1
 430.5 981 l 1,20,-1
 357.5 1110 l 1,21,-1
 110.5 1110 l 1,22,-1
 110.5 1205 l 1,23,-1
 304.5 1205 l 1,24,-1
 48.5 1684 l 1,0,-1
EndSplineSet
EndChar

StartChar: section
Encoding: 167 167 101
Width: 1024
VWidth: 1747
Flags: W
LayerCount: 2
Fore
SplineSet
309 1639 m 128,-1,1
 389 1707 389 1707 514 1707 c 128,-1,2
 639 1707 639 1707 767 1657 c 1,3,-1
 767 1517 l 1,4,5
 634 1584 634 1584 548 1584 c 128,-1,6
 462 1584 462 1584 419.5 1550 c 128,-1,7
 377 1516 377 1516 377 1455 c 0,8,9
 377 1378 377 1378 541 1280 c 0,10,11
 562 1267 562 1267 573 1260 c 0,12,13
 743 1158 743 1158 795 1092.5 c 128,-1,14
 847 1027 847 1027 847 941 c 0,15,16
 847 789 847 789 700 700 c 1,17,18
 796 614 796 614 795.5 500.5 c 128,-1,19
 795 387 795 387 713.5 315 c 128,-1,20
 632 243 632 243 506.5 243 c 128,-1,21
 381 243 381 243 241 293 c 1,22,-1
 241 433 l 1,23,24
 380 366 380 366 468 366 c 128,-1,25
 556 366 556 366 601.5 402 c 128,-1,26
 647 438 647 438 647 503 c 0,27,28
 647 590 647 590 470 695 c 1,29,-1
 451 707 l 1,30,31
 279 809 279 809 228 874.5 c 128,-1,32
 177 940 177 940 177 1027 c 0,33,34
 177 1184 177 1184 325 1268 c 1,35,36
 229 1342 229 1342 229 1456.5 c 128,-1,0
 229 1571 229 1571 309 1639 c 128,-1,1
618 759 m 1,37,38
 716 835 716 835 716 907.5 c 128,-1,39
 716 980 716 980 658.5 1038 c 128,-1,40
 601 1096 601 1096 406 1208 c 1,41,42
 308 1132 308 1132 308 1060 c 128,-1,43
 308 988 308 988 364 930 c 128,-1,44
 420 872 420 872 618 759 c 1,37,38
EndSplineSet
EndChar

StartChar: dieresis
Encoding: 168 168 102
Width: 1024
VWidth: 1747
Flags: W
LayerCount: 2
Fore
SplineSet
274.5 1734 m 1,0,-1
 436.5 1734 l 1,1,-1
 436.5 1562 l 1,2,-1
 274.5 1562 l 1,3,-1
 274.5 1734 l 1,0,-1
588.5 1734 m 1,4,-1
 749.5 1734 l 1,5,-1
 749.5 1562 l 1,6,-1
 588.5 1562 l 1,7,-1
 588.5 1734 l 1,4,-1
EndSplineSet
EndChar

StartChar: ordfeminine
Encoding: 170 170 103
Width: 1024
VWidth: 1747
Flags: W
LayerCount: 2
Fore
SplineSet
567.5 1352 m 2,0,1
 452.5 1352 452.5 1352 402.5 1323 c 128,-1,2
 352.5 1294 352.5 1294 352.5 1233 c 128,-1,3
 352.5 1172 352.5 1172 387 1139.5 c 128,-1,4
 421.5 1107 421.5 1107 492.5 1107 c 128,-1,5
 563.5 1107 563.5 1107 616 1168 c 128,-1,6
 668.5 1229 668.5 1229 668.5 1327 c 2,7,-1
 668.5 1352 l 1,8,-1
 567.5 1352 l 2,0,1
284.5 1659 m 1,9,10
 393.5 1707 393.5 1707 497.5 1707 c 0,11,12
 644.5 1707 644.5 1707 713.5 1633.5 c 128,-1,13
 782.5 1560 782.5 1560 782.5 1404 c 2,14,-1
 782.5 1021 l 1,15,-1
 668.5 1021 l 1,16,-1
 668.5 1117 l 1,17,18
 589.5 1005 589.5 1005 458.5 1005 c 0,19,20
 355.5 1005 355.5 1005 295.5 1063 c 128,-1,21
 235.5 1121 235.5 1121 235.5 1225.5 c 128,-1,22
 235.5 1330 235.5 1330 310.5 1390 c 128,-1,23
 385.5 1450 385.5 1450 523.5 1450 c 2,24,-1
 668.5 1450 l 1,25,-1
 668.5 1453 l 2,26,27
 668.5 1608 668.5 1608 479.5 1609 c 0,28,29
 395.5 1609 395.5 1609 284.5 1551 c 1,30,-1
 284.5 1659 l 1,9,10
253.5 915 m 1,31,-1
 788.5 915 l 1,32,-1
 788.5 810 l 1,33,-1
 253.5 810 l 1,34,-1
 253.5 915 l 1,31,-1
EndSplineSet
EndChar

StartChar: guillemotleft
Encoding: 171 171 104
Width: 1024
VWidth: 1747
Flags: W
LayerCount: 2
Fore
SplineSet
518 1313 m 1,0,-1
 518 1150 l 1,1,-1
 277 922 l 1,2,-1
 518 693 l 1,3,-1
 518 530 l 1,4,-1
 143 887 l 1,5,-1
 143 957 l 1,6,-1
 518 1313 l 1,0,-1
881 1313 m 1,7,-1
 881 1150 l 1,8,-1
 640 922 l 1,9,-1
 881 693 l 1,10,-1
 881 530 l 1,11,-1
 506 887 l 1,12,-1
 506 957 l 1,13,-1
 881 1313 l 1,7,-1
EndSplineSet
EndChar

StartChar: logicalnot
Encoding: 172 172 105
Width: 1024
VWidth: 1747
Flags: W
LayerCount: 2
Fore
SplineSet
89 1145 m 5,0,-1
 935 1145 l 1,1,-1
 935 726 l 1,2,-1
 801 726 l 1,3,-1
 801 998 l 1,4,-1
 89 998 l 5,5,-1
 89 1145 l 5,0,-1
EndSplineSet
EndChar

StartChar: degree
Encoding: 176 176 106
Width: 1024
VWidth: 1747
Flags: W
LayerCount: 2
Fore
SplineSet
766 1434 m 128,-1,1
 766 1321 766 1321 691.5 1243 c 128,-1,2
 617 1165 617 1165 510 1165 c 128,-1,3
 403 1165 403 1165 330.5 1241.5 c 128,-1,4
 258 1318 258 1318 258 1433 c 128,-1,5
 258 1548 258 1548 331.5 1627.5 c 128,-1,6
 405 1707 405 1707 512.5 1707 c 128,-1,7
 620 1707 620 1707 693 1627 c 128,-1,0
 766 1547 766 1547 766 1434 c 128,-1,1
512 1597 m 256,8,9
 449 1597 449 1597 404.5 1549.5 c 128,-1,10
 360 1502 360 1502 360 1434 c 256,11,12
 360 1366 360 1366 404 1319.5 c 128,-1,13
 448 1273 448 1273 511 1273 c 128,-1,14
 574 1273 574 1273 619.5 1320 c 128,-1,15
 665 1367 665 1367 665 1434 c 128,-1,16
 665 1501 665 1501 620 1549 c 128,-1,17
 575 1597 575 1597 512 1597 c 256,8,9
EndSplineSet
EndChar

StartChar: plusminus
Encoding: 177 177 107
Width: 1024
VWidth: 1747
Flags: W
LayerCount: 2
Fore
SplineSet
89 555 m 1,0,-1
 935 555 l 1,1,-1
 935 410 l 1,2,-1
 89 410 l 1,3,-1
 89 555 l 1,0,-1
579 1409 m 1,4,-1
 579 1128 l 1,5,-1
 935 1128 l 1,6,-1
 935 983 l 1,7,-1
 579 983 l 1,8,-1
 579 700 l 1,9,-1
 445 700 l 1,10,-1
 445 983 l 1,11,-1
 89 983 l 1,12,-1
 89 1128 l 1,13,-1
 445 1128 l 1,14,-1
 445 1409 l 1,15,-1
 579 1409 l 1,4,-1
EndSplineSet
EndChar

StartChar: twosuperior
Encoding: 178 178 108
Width: 1024
VWidth: 1747
Flags: W
LayerCount: 2
Fore
SplineSet
288.5 1659 m 1,0,1
 392.5 1707 392.5 1707 495 1707 c 128,-1,2
 597.5 1707 597.5 1707 666.5 1650 c 128,-1,3
 735.5 1593 735.5 1593 735.5 1502 c 0,4,5
 735.5 1453 735.5 1453 706 1402.5 c 128,-1,6
 676.5 1352 676.5 1352 580.5 1252 c 2,7,-1
 411.5 1077 l 1,8,-1
 740.5 1077 l 1,9,-1
 740.5 980 l 1,10,-1
 283.5 980 l 1,11,-1
 283.5 1073 l 1,12,-1
 468.5 1266 l 1,13,14
 549.5 1349 549.5 1349 581.5 1401 c 128,-1,15
 613.5 1453 613.5 1453 613.5 1501 c 128,-1,16
 613.5 1549 613.5 1549 573.5 1581.5 c 128,-1,17
 533.5 1614 533.5 1614 461 1614 c 128,-1,18
 388.5 1614 388.5 1614 288.5 1552 c 1,19,-1
 288.5 1659 l 1,0,1
EndSplineSet
EndChar

StartChar: acute
Encoding: 180 180 109
Width: 1024
VWidth: 1747
Flags: W
LayerCount: 2
Fore
SplineSet
545.5 1807 m 1,0,-1
 703.5 1807 l 1,1,-1
 444.5 1487 l 1,2,-1
 320.5 1487 l 1,3,-1
 545.5 1807 l 1,0,-1
EndSplineSet
EndChar

StartChar: paragraph
Encoding: 182 182 110
Width: 1024
VWidth: 1747
Flags: W
LayerCount: 2
Fore
SplineSet
524 1684 m 2,0,-1
 882 1684 l 5,1,-1
 882 241 l 1,2,-1
 770 241 l 1,3,-1
 770 1579 l 1,4,-1
 617 1579 l 1,5,-1
 617 241 l 1,6,-1
 503 241 l 1,7,-1
 503 963 l 1,8,9
 331 963 331 963 236.5 1065 c 128,-1,10
 142 1167 142 1167 142 1326.5 c 128,-1,11
 142 1486 142 1486 247 1585 c 128,-1,12
 352 1684 352 1684 524 1684 c 2,0,-1
EndSplineSet
EndChar

StartChar: periodcentered
Encoding: 183 183 111
Width: 1024
VWidth: 1747
Flags: W
LayerCount: 2
Fore
SplineSet
411 1147 m 1,0,-1
 613 1147 l 1,1,-1
 613 887 l 1,2,-1
 411 887 l 1,3,-1
 411 1147 l 1,0,-1
EndSplineSet
EndChar

StartChar: ordmasculine
Encoding: 186 186 112
Width: 1024
VWidth: 1747
Flags: W
LayerCount: 2
Fore
SplineSet
641 1540.5 m 128,-1,1
 595 1607 595 1607 513 1607 c 128,-1,2
 431 1607 431 1607 384.5 1540.5 c 128,-1,3
 338 1474 338 1474 338 1355 c 256,4,5
 338 1236 338 1236 384.5 1170.5 c 128,-1,6
 431 1105 431 1105 512 1105 c 128,-1,7
 593 1105 593 1105 640 1172 c 128,-1,8
 687 1239 687 1239 687 1356.5 c 128,-1,0
 687 1474 687 1474 641 1540.5 c 128,-1,1
295 1611.5 m 128,-1,10
 376 1707 376 1707 512 1707 c 128,-1,11
 648 1707 648 1707 729 1611.5 c 128,-1,12
 810 1516 810 1516 810 1356 c 128,-1,13
 810 1196 810 1196 729.5 1100.5 c 128,-1,14
 649 1005 649 1005 512.5 1005 c 128,-1,15
 376 1005 376 1005 295 1100.5 c 128,-1,16
 214 1196 214 1196 214 1356 c 128,-1,9
 214 1516 214 1516 295 1611.5 c 128,-1,10
240 915 m 1,17,-1
 780 915 l 1,18,-1
 780 810 l 1,19,-1
 240 810 l 1,20,-1
 240 915 l 1,17,-1
EndSplineSet
EndChar

StartChar: guillemotright
Encoding: 187 187 113
Width: 1024
VWidth: 1747
Flags: W
LayerCount: 2
Fore
SplineSet
506 1313 m 1,0,-1
 881 957 l 1,1,-1
 881 887 l 1,2,-1
 506 530 l 1,3,-1
 506 693 l 1,4,-1
 747 922 l 1,5,-1
 506 1150 l 1,6,-1
 506 1313 l 1,0,-1
143 1313 m 1,7,-1
 518 957 l 1,8,-1
 518 887 l 1,9,-1
 143 530 l 1,10,-1
 143 693 l 1,11,-1
 384 922 l 1,12,-1
 143 1150 l 1,13,-1
 143 1313 l 1,7,-1
EndSplineSet
EndChar

StartChar: onehalf
Encoding: 189 189 114
Width: 1024
Flags: W
LayerCount: 2
Fore
SplineSet
1004 1813 m 5,0,-1
 184 400 l 5,1,-1
 20 400 l 5,2,-1
 838 1813 l 5,3,-1
 1004 1813 l 5,0,-1
1004 400 m 5,4,-1
 564 400 l 5,5,-1
 564 525 l 5,6,-1
 750 672 l 5,7,8
 797 707 797 707 813.5 732.5 c 132,-1,9
 830 758 830 758 830 787 c 4,10,11
 830 802 830 802 826.5 815 c 132,-1,12
 823 828 823 828 814 838.5 c 132,-1,13
 805 849 805 849 789.5 855 c 132,-1,14
 774 861 774 861 750 861 c 4,15,16
 718 861 718 861 690.5 847 c 132,-1,17
 663 833 663 833 625 801 c 5,18,-1
 558 902 l 5,19,20
 580 921 580 921 603 936.5 c 132,-1,21
 626 952 626 952 651.5 962.5 c 132,-1,22
 677 973 677 973 706.5 978.5 c 132,-1,23
 736 984 736 984 771 984 c 4,24,25
 815 984 815 984 854 971.5 c 132,-1,26
 893 959 893 959 922.5 935 c 132,-1,27
 952 911 952 911 969 875.5 c 132,-1,28
 986 840 986 840 986 793 c 4,29,30
 986 763 986 763 976.5 736.5 c 132,-1,31
 967 710 967 710 946.5 683.5 c 132,-1,32
 926 657 926 657 893.5 629 c 4,33,34
 858.6 598.932 858.6 598.932 814 568 c 6,35,-1
 752 525 l 5,36,-1
 1004 525 l 5,37,-1
 1004 400 l 5,4,-1
246 1244 m 5,38,-1
 246 1670 l 5,39,-1
 80 1580 l 5,40,-1
 25 1696 l 5,41,-1
 264 1825 l 5,42,-1
 403 1825 l 5,43,-1
 403 1244 l 5,44,-1
 246 1244 l 5,38,-1
EndSplineSet
EndChar

StartChar: questiondown
Encoding: 191 191 115
Width: 1024
VWidth: 1747
Flags: W
LayerCount: 2
Fore
SplineSet
830 483 m 1,0,1
 684 387 684 387 526.5 387 c 128,-1,2
 369 387 369 387 281.5 469.5 c 128,-1,3
 194 552 194 552 194 688 c 0,4,5
 194 753 194 753 220.5 808.5 c 128,-1,6
 247 864 247 864 322 943 c 2,7,-1
 393 1016 l 1,8,9
 446 1071 446 1071 461.5 1107 c 128,-1,10
 477 1143 477 1143 477 1170 c 2,11,-1
 477 1201 l 2,12,13
 477 1221 477 1221 478 1236 c 1,14,-1
 478 1341 l 1,15,-1
 631 1341 l 1,16,-1
 631 1210 l 2,17,18
 631 1126 631 1126 606.5 1067.5 c 128,-1,19
 582 1009 582 1009 514 940 c 2,20,-1
 442 864 l 1,21,22
 392 814 392 814 373.5 776 c 128,-1,23
 355 738 355 738 355 696 c 0,24,25
 355 620 355 620 407.5 573.5 c 128,-1,26
 460 527 460 527 547 527 c 0,27,28
 673 527 673 527 830 643 c 1,29,-1
 830 483 l 1,0,1
635 1467 m 1,30,-1
 473 1467 l 1,31,-1
 473 1684 l 1,32,-1
 635 1684 l 1,33,-1
 635 1467 l 1,30,-1
EndSplineSet
EndChar

StartChar: Adieresis
Encoding: 196 196 116
Width: 1024
VWidth: 1747
Flags: W
LayerCount: 2
Fore
SplineSet
511.5 1532 m 1,0,-1
 341.5 880 l 1,1,-1
 681.5 880 l 1,2,-1
 511.5 1532 l 1,0,-1
414.5 1684 m 1,3,-1
 610.5 1684 l 1,4,-1
 975.5 410 l 1,5,-1
 808.5 410 l 1,6,-1
 719.5 742 l 1,7,-1
 301.5 742 l 1,8,-1
 215.5 410 l 1,9,-1
 48.5 410 l 1,10,-1
 414.5 1684 l 1,3,-1
273.5 2005 m 5,11,-1
 435.5 2005 l 5,12,-1
 435.5 1832 l 5,13,-1
 273.5 1832 l 5,14,-1
 273.5 2005 l 5,11,-1
587.5 2005 m 5,15,-1
 748.5 2005 l 5,16,-1
 748.5 1832 l 5,17,-1
 587.5 1832 l 5,18,-1
 587.5 2005 l 5,15,-1
EndSplineSet
EndChar

StartChar: Aring
Encoding: 197 197 117
Width: 1024
VWidth: 1747
Flags: W
LayerCount: 2
Fore
SplineSet
632.5 1797 m 256,0,1
 632.5 1851 632.5 1851 597 1889 c 128,-1,2
 561.5 1927 561.5 1927 511 1927 c 128,-1,3
 460.5 1927 460.5 1927 425.5 1890 c 128,-1,4
 390.5 1853 390.5 1853 390.5 1798 c 128,-1,5
 390.5 1743 390.5 1743 426 1705.5 c 128,-1,6
 461.5 1668 461.5 1668 511.5 1668 c 256,7,8
 562.5 1668 562.5 1668 597.5 1705.5 c 128,-1,9
 632.5 1743 632.5 1743 632.5 1797 c 256,0,1
511.5 1528 m 1,10,-1
 341.5 880 l 1,11,-1
 681.5 880 l 1,12,-1
 511.5 1528 l 1,10,-1
731.5 1797 m 0,13,14
 731.5 1666 731.5 1666 632.5 1603 c 1,15,-1
 975.5 410 l 1,16,-1
 808.5 410 l 1,17,-1
 719.5 742 l 1,18,-1
 301.5 742 l 1,19,-1
 215.5 410 l 1,20,-1
 48.5 410 l 1,21,-1
 390.5 1603 l 1,22,23
 344.5 1631 344.5 1631 317.5 1684 c 0,24,25
 292.5 1736 292.5 1736 292.5 1797 c 0,26,27
 292.5 1894 292.5 1894 356 1963 c 128,-1,28
 419.5 2032 419.5 2032 511.5 2032 c 256,29,30
 602.5 2032 602.5 2032 667 1963 c 128,-1,31
 731.5 1894 731.5 1894 731.5 1797 c 0,13,14
EndSplineSet
EndChar

StartChar: AE
Encoding: 198 198 118
Width: 1024
VWidth: 1747
Flags: W
LayerCount: 2
Fore
SplineSet
969 1684 m 1,0,-1
 969 1539 l 1,1,-1
 698 1539 l 1,2,-1
 698 1161 l 1,3,-1
 944 1161 l 1,4,-1
 944 1016 l 1,5,-1
 698 1016 l 1,6,-1
 698 555 l 1,7,-1
 984 555 l 1,8,-1
 984 410 l 1,9,-1
 550 410 l 1,10,-1
 550 736 l 1,11,-1
 268 736 l 1,12,-1
 187 410 l 1,13,-1
 40 410 l 1,14,-1
 368 1684 l 1,15,-1
 969 1684 l 1,0,-1
464 1539 m 1,16,-1
 303 880 l 1,17,-1
 550 880 l 1,18,-1
 550 1539 l 1,19,-1
 464 1539 l 1,16,-1
EndSplineSet
EndChar

StartChar: Eacute
Encoding: 201 201 119
Width: 1024
VWidth: 1747
Flags: W
LayerCount: 2
Fore
SplineSet
150.5 1684 m 1,0,-1
 858.5 1684 l 1,1,-1
 858.5 1539 l 1,2,-1
 311.5 1539 l 1,3,-1
 311.5 1161 l 1,4,-1
 835.5 1161 l 1,5,-1
 835.5 1016 l 1,6,-1
 311.5 1016 l 1,7,-1
 311.5 555 l 1,8,-1
 873.5 555 l 1,9,-1
 873.5 410 l 1,10,-1
 150.5 410 l 1,11,-1
 150.5 1684 l 1,0,-1
544.5 2030 m 5,12,-1
 693.5 2030 l 5,13,-1
 510.5 1805 l 5,14,-1
 387.5 1805 l 5,15,-1
 544.5 2030 l 5,12,-1
EndSplineSet
EndChar

StartChar: Ntilde
Encoding: 209 209 120
Width: 1024
VWidth: 1747
Flags: W
LayerCount: 2
Fore
SplineSet
130 1684 m 1,0,-1
 334 1684 l 1,1,-1
 737 635 l 1,2,-1
 737 1684 l 1,3,-1
 894 1684 l 1,4,-1
 894 410 l 1,5,-1
 688 410 l 1,6,-1
 285 1458 l 1,7,-1
 285 410 l 1,8,-1
 130 410 l 1,9,-1
 130 1684 l 1,0,-1
733.5 1886.5 m 132,-1,11
 692 1836 692 1836 632 1836 c 4,12,13
 574 1836 574 1836 507 1872 c 5,14,-1
 462 1900 l 6,15,16
 426 1921 426 1921 403 1921.5 c 132,-1,17
 380 1922 380 1922 364 1900.5 c 132,-1,18
 348 1879 348 1879 348 1841 c 6,19,-1
 348 1836 l 5,20,-1
 248 1836 l 5,21,22
 248 1922 248 1922 289 1972 c 132,-1,23
 330 2022 330 2022 398 2022 c 4,24,25
 452 2022 452 2022 515 1986 c 5,26,-1
 561 1960 l 5,27,28
 595 1939 595 1939 619 1939 c 132,-1,29
 643 1939 643 1939 659 1960.5 c 132,-1,30
 675 1982 675 1982 675 2017 c 6,31,-1
 675 2022 l 5,32,-1
 775 2022 l 5,33,10
 775 1937 775 1937 733.5 1886.5 c 132,-1,11
EndSplineSet
EndChar

StartChar: Odieresis
Encoding: 214 214 121
Width: 1024
VWidth: 1747
Flags: W
LayerCount: 2
Fore
SplineSet
742.5 1045 m 256,0,1
 742.5 1326 742.5 1326 688.5 1446.5 c 128,-1,2
 634.5 1567 634.5 1567 511.5 1567 c 128,-1,3
 388.5 1567 388.5 1567 335 1446.5 c 128,-1,4
 281.5 1326 281.5 1326 281.5 1045.5 c 128,-1,5
 281.5 765 281.5 765 335 645 c 128,-1,6
 388.5 525 388.5 525 511.5 525 c 128,-1,7
 634.5 525 634.5 525 688.5 644.5 c 128,-1,8
 742.5 764 742.5 764 742.5 1045 c 256,0,1
813 1543 m 128,-1,10
 911.5 1379 911.5 1379 911.5 1046 c 128,-1,11
 911.5 713 911.5 713 813 549 c 128,-1,12
 714.5 385 714.5 385 511.5 385 c 260,13,14
 308.5 385 308.5 385 210.5 548 c 128,-1,15
 112.5 711 112.5 711 112.5 1045 c 128,-1,16
 112.5 1379 112.5 1379 211.5 1543 c 128,-1,17
 310.5 1707 310.5 1707 512.5 1707 c 128,-1,9
 714.5 1707 714.5 1707 813 1543 c 128,-1,10
273.5 2005 m 1,18,-1
 435.5 2005 l 1,19,-1
 435.5 1832 l 1,20,-1
 273.5 1832 l 1,21,-1
 273.5 2005 l 1,18,-1
587.5 2005 m 1,22,-1
 748.5 2005 l 1,23,-1
 748.5 1832 l 1,24,-1
 587.5 1832 l 1,25,-1
 587.5 2005 l 1,22,-1
EndSplineSet
EndChar

StartChar: Udieresis
Encoding: 220 220 122
Width: 1024
VWidth: 1747
Flags: W
LayerCount: 2
Fore
SplineSet
136.5 899 m 2,0,-1
 136.5 1684 l 1,1,-1
 299.5 1684 l 1,2,-1
 299.5 820 l 2,3,4
 299.5 665 299.5 665 321.5 626 c 1,5,6
 373.5 524 373.5 524 512.5 525 c 0,7,8
 651.5 525 651.5 525 704.5 626 c 1,9,10
 726.5 664 726.5 664 725.5 818 c 2,11,-1
 725.5 1684 l 1,12,-1
 887.5 1684 l 1,13,-1
 887.5 899 l 2,14,15
 887.5 704 887.5 704 864.5 621 c 128,-1,16
 841.5 538 841.5 538 787.5 486 c 0,17,18
 681.5 384 681.5 384 512.5 385 c 0,19,20
 345.5 385 345.5 385 238.5 485 c 0,21,22
 183.5 538 183.5 538 160 622 c 128,-1,23
 136.5 706 136.5 706 136.5 899 c 2,0,-1
274.5 2005 m 1,24,-1
 436.5 2005 l 1,25,-1
 436.5 1832 l 1,26,-1
 274.5 1832 l 1,27,-1
 274.5 2005 l 1,24,-1
588.5 2005 m 1,28,-1
 749.5 2005 l 1,29,-1
 749.5 1832 l 1,30,-1
 588.5 1832 l 1,31,-1
 588.5 2005 l 1,28,-1
EndSplineSet
EndChar

StartChar: germandbls
Encoding: 223 223 123
Width: 1024
VWidth: 1747
Flags: W
LayerCount: 2
Fore
SplineSet
345.5 567 m 1,0,1
 465.5 515 465.5 515 556 515 c 128,-1,2
 646.5 515 646.5 515 697.5 556 c 128,-1,3
 748.5 597 748.5 597 748.5 662 c 128,-1,4
 748.5 727 748.5 727 722 767.5 c 128,-1,5
 695.5 808 695.5 808 600.5 871 c 1,6,-1
 546.5 905 l 1,7,8
 400.5 1000 400.5 1000 400.5 1133 c 0,9,10
 400.5 1242 400.5 1242 465 1315 c 128,-1,11
 529.5 1388 529.5 1388 654.5 1418 c 1,12,13
 654.5 1509 654.5 1509 605.5 1558 c 128,-1,14
 556.5 1607 556.5 1607 462.5 1607 c 128,-1,15
 368.5 1607 368.5 1607 323 1551 c 128,-1,16
 277.5 1495 277.5 1495 277.5 1376 c 2,17,-1
 277.5 410 l 1,18,-1
 127.5 410 l 1,19,-1
 127.5 1380 l 2,20,21
 127.5 1562 127.5 1562 212 1649.5 c 128,-1,22
 296.5 1737 296.5 1737 464.5 1737 c 0,23,24
 802.5 1737 802.5 1737 801.5 1364 c 1,25,26
 677.5 1364 677.5 1364 610 1305.5 c 128,-1,27
 542.5 1247 542.5 1247 542.5 1161 c 0,28,29
 542.5 1119 542.5 1119 565 1086.5 c 128,-1,30
 587.5 1054 587.5 1054 640.5 1018 c 2,31,-1
 687.5 986 l 1,32,33
 808.5 907 808.5 907 852.5 837 c 128,-1,34
 896.5 767 896.5 767 896.5 668 c 0,35,36
 896.5 537 896.5 537 807 461 c 128,-1,37
 717.5 385 717.5 385 560.5 385 c 0,38,39
 452.5 385 452.5 385 345.5 427 c 1,40,-1
 345.5 567 l 1,0,1
EndSplineSet
EndChar

StartChar: aring
Encoding: 229 229 128
Width: 1024
VWidth: 1747
Flags: W
LayerCount: 2
Fore
SplineSet
619 1806.5 m 0,0,1
 577 1847 577 1847 529 1847 c 0,2,3
 481 1847 481 1847 441 1806.5 c 0,4,5
 401 1766 401 1766 401 1709.5 c 0,6,7
 401 1653 401 1653 441 1611.5 c 0,8,9
 481 1570 481 1570 529 1570 c 0,10,11
 579 1570 579 1570 619 1611 c 0,12,13
 661 1654 661 1654 661 1710 c 0,14,15
 661 1766 661 1766 619 1806.5 c 0,0,1
671.5 1858.5 m 0,16,17
 735 1794 735 1794 735 1706 c 0,18,19
 735 1618 735 1618 672 1554.5 c 0,20,21
 609 1491 609 1491 531.5 1491 c 0,22,23
 454 1491 454 1491 392.5 1553.5 c 0,24,25
 331 1616 331 1616 331 1705.5 c 0,26,27
 331 1795 331 1795 393 1859 c 0,28,29
 456 1923 456 1923 532 1923 c 0,30,31
 608 1923 608 1923 671.5 1858.5 c 0,16,17
EndSplineSet
Refer: 66 97 N 1 0 0 1 0 0 2
EndChar

StartChar: ae
Encoding: 230 230 129
Width: 1024
VWidth: 1747
Flags: W
LayerCount: 2
Fore
SplineSet
449.5 787 m 2,0,-1
 449.5 848 l 1,1,-1
 411.5 848 l 2,2,3
 276.5 848 276.5 848 228 809.5 c 128,-1,4
 179.5 771 179.5 771 179.5 685 c 0,5,6
 179.5 516 179.5 516 317.5 516 c 0,7,8
 391.5 516 391.5 516 420.5 573 c 128,-1,9
 449.5 630 449.5 630 449.5 787 c 2,0,-1
844.5 970 m 1,10,-1
 844.5 1015 l 2,11,12
 844.5 1144 844.5 1144 813.5 1200.5 c 128,-1,13
 782.5 1257 782.5 1257 713.5 1257 c 256,14,15
 644.5 1257 644.5 1257 613.5 1199 c 128,-1,16
 582.5 1141 582.5 1141 582.5 1007 c 2,17,-1
 582.5 970 l 1,18,-1
 844.5 970 l 1,10,-1
517.5 1280 m 1,19,20
 572.5 1388 572.5 1388 716 1388 c 128,-1,21
 859.5 1388 859.5 1388 917.5 1287 c 128,-1,22
 975.5 1186 975.5 1186 975.5 925 c 2,23,-1
 975.5 848 l 1,24,-1
 582.5 848 l 1,25,26
 580.5 822 580.5 822 580.5 777 c 0,27,28
 580.5 659 580.5 659 620.5 580 c 0,29,30
 652.5 516 652.5 516 751.5 516 c 0,31,32
 878.5 516 878.5 516 957.5 603 c 1,33,-1
 957.5 457 l 1,34,35
 867.5 385 867.5 385 751.5 385 c 0,36,37
 571.5 385 571.5 385 519.5 521 c 1,38,39
 456.5 384 456.5 384 303.5 385 c 0,40,41
 178.5 385 178.5 385 113.5 458.5 c 128,-1,42
 48.5 532 48.5 532 48.5 674.5 c 128,-1,43
 48.5 817 48.5 817 128.5 893.5 c 128,-1,44
 208.5 970 208.5 970 361.5 970 c 2,45,-1
 454.5 970 l 1,46,-1
 454.5 1045 l 2,47,48
 454.5 1147 454.5 1147 415 1202 c 128,-1,49
 375.5 1257 375.5 1257 289.5 1257 c 128,-1,50
 203.5 1257 203.5 1257 99.5 1187 c 1,51,-1
 99.5 1330 l 1,52,53
 219.5 1388 219.5 1388 315.5 1388 c 0,54,55
 460.5 1388 460.5 1388 517.5 1280 c 1,19,20
EndSplineSet
EndChar

StartChar: ccedilla
Encoding: 231 231 130
Width: 1024
VWidth: 1747
Flags: W
LayerCount: 2
Fore
SplineSet
858.5 1150 m 1,0,1
 752.5 1255 752.5 1255 611.5 1255 c 128,-1,2
 470.5 1255 470.5 1255 395.5 1160 c 128,-1,3
 320.5 1065 320.5 1065 320.5 888 c 128,-1,4
 320.5 711 320.5 711 395.5 614.5 c 128,-1,5
 470.5 518 470.5 518 613.5 518 c 128,-1,6
 756.5 518 756.5 518 858.5 621 c 1,7,-1
 858.5 458 l 1,8,9
 739.5 385 739.5 385 607.5 385 c 0,10,11
 400.5 385 400.5 385 283 518 c 128,-1,12
 165.5 651 165.5 651 165.5 886.5 c 128,-1,13
 165.5 1122 165.5 1122 282.5 1255 c 256,14,15
 399.5 1388 399.5 1388 607.5 1388 c 0,16,17
 740.5 1388 740.5 1388 858.5 1315 c 1,18,-1
 858.5 1150 l 1,0,1
554.5 382 m 2,19,-1
 636.5 382 l 1,20,21
 639.5 356 639.5 356 639.5 343 c 0,22,23
 639.5 234 639.5 234 546.5 154 c 1,24,25
 513.5 128 513.5 128 438.5 127 c 0,26,27
 411.5 127 411.5 127 374.5 137 c 1,28,-1
 374.5 237 l 1,29,30
 420.5 223 420.5 223 446.5 223.5 c 128,-1,31
 472.5 224 472.5 224 500 232.5 c 128,-1,32
 527.5 241 527.5 241 530.5 277 c 1,33,34
 537.5 284 537.5 284 537.5 333 c 128,-1,35
 537.5 382 537.5 382 554.5 382 c 2,19,-1
EndSplineSet
EndChar

StartChar: ntilde
Encoding: 241 241 139
Width: 1024
VWidth: 1747
Flags: W
LayerCount: 2
Fore
SplineSet
729 1596 m 4,0,1
 687.5 1545 687.5 1545 628.5 1545 c 4,2,3
 569.5 1545 569.5 1545 502.5 1582 c 5,4,-1
 457.5 1610 l 5,5,6
 388.905 1650.01 388.905 1650.01 359.5 1610.5 c 4,7,8
 343.5 1589 343.5 1589 343.5 1551 c 6,9,-1
 343.5 1545 l 5,10,-1
 243.5 1545 l 5,11,12
 243.5 1633 243.5 1633 284.5 1682.5 c 4,13,14
 325.5 1732 325.5 1732 388 1732 c 4,15,16
 450.5 1732 450.5 1732 510.5 1696 c 5,17,-1
 556.5 1670 l 5,18,19
 590.5 1649 590.5 1649 614.5 1649 c 4,20,21
 638.5 1649 638.5 1649 654.5 1670.5 c 4,22,23
 670.5 1692 670.5 1692 670.5 1727 c 6,24,-1
 670.5 1732 l 5,25,-1
 770.5 1732 l 5,26,27
 770.5 1647 770.5 1647 729 1596 c 4,0,1
EndSplineSet
Refer: 79 110 N 1 0 0 1 0 0 2
EndChar

StartChar: divide
Encoding: 247 247 144
Width: 1024
VWidth: 1747
Flags: W
LayerCount: 2
Fore
SplineSet
415 747 m 1,0,-1
 611 747 l 1,1,-1
 611 538 l 1,2,-1
 415 538 l 1,3,-1
 415 747 l 1,0,-1
415 1378 m 1,4,-1
 611 1378 l 1,5,-1
 611 1168 l 1,6,-1
 415 1168 l 1,7,-1
 415 1378 l 1,4,-1
89 1030 m 1,8,-1
 935 1030 l 1,9,-1
 935 885 l 1,10,-1
 89 885 l 1,11,-1
 89 1030 l 1,8,-1
EndSplineSet
EndChar

StartChar: thorn
Encoding: 254 254 149
Width: 1024
VWidth: 1747
Flags: W
LayerCount: 2
Fore
SplineSet
786.5 517.5 m 128,-1,1
 694 385 694 385 530 385 c 0,2,3
 365 385 365 385 293 530 c 1,4,-1
 293 46 l 1,5,-1
 145 46 l 1,6,-1
 145 1747 l 1,7,-1
 293 1747 l 1,8,-1
 293 1243 l 1,9,10
 368 1388 368 1388 531 1388 c 128,-1,11
 694 1388 694 1388 786.5 1254 c 128,-1,12
 879 1120 879 1120 879 885 c 128,-1,0
 879 650 879 650 786.5 517.5 c 128,-1,1
511 518 m 0,13,14
 726 518 726 518 725 887 c 256,15,16
 725 1256 725 1256 511 1255 c 0,17,18
 404 1255 404 1255 348.5 1161.5 c 128,-1,19
 293 1068 293 1068 293 887 c 128,-1,20
 293 706 293 706 348.5 612 c 128,-1,21
 404 518 404 518 511 518 c 0,13,14
EndSplineSet
EndChar

StartChar: florin
Encoding: 402 402 151
Width: 1024
VWidth: 1747
Flags: W
LayerCount: 2
Fore
SplineSet
859.5 1737 m 1,0,-1
 859.5 1607 l 1,1,-1
 690.5 1607 l 2,2,3
 612.5 1607 612.5 1607 582 1572.5 c 128,-1,4
 551.5 1538 551.5 1538 551.5 1450 c 2,5,-1
 551.5 1364 l 1,6,-1
 859.5 1364 l 1,7,-1
 859.5 1243 l 1,8,-1
 551.5 1243 l 1,9,-1
 551.5 393 l 2,10,11
 551.5 210 551.5 210 486 128 c 128,-1,12
 420.5 46 420.5 46 275.5 46 c 2,13,-1
 219.5 46 l 1,14,-1
 219.5 179 l 1,15,-1
 258.5 179 l 2,16,17
 344.5 179 344.5 179 373.5 220.5 c 128,-1,18
 402.5 262 402.5 262 402.5 393 c 2,19,-1
 402.5 1243 l 1,20,-1
 164.5 1243 l 1,21,-1
 164.5 1364 l 1,22,-1
 401.5 1364 l 1,23,-1
 401.5 1432 l 2,24,25
 401.5 1661 401.5 1661 548.5 1715 c 1,26,27
 604.5 1737 604.5 1737 682.5 1737 c 2,28,-1
 859.5 1737 l 1,0,-1
EndSplineSet
EndChar

StartChar: Sigma
Encoding: 931 931 152
Width: 1024
VWidth: 1747
Flags: W
LayerCount: 2
Fore
SplineSet
639.5 1047 m 1,0,-1
 274.5 555 l 1,1,-1
 917.5 555 l 1,2,-1
 917.5 410 l 1,3,-1
 106.5 410 l 1,4,-1
 106.5 555 l 1,5,-1
 469.5 1047 l 1,6,-1
 106.5 1539 l 1,7,-1
 106.5 1684 l 1,8,-1
 917.5 1684 l 1,9,-1
 917.5 1539 l 1,10,-1
 274.5 1539 l 1,11,-1
 639.5 1047 l 1,0,-1
EndSplineSet
EndChar

StartChar: Phi
Encoding: 934 934 153
Width: 1024
VWidth: 1747
Flags: W
LayerCount: 2
Fore
SplineSet
113 1045 m 256,0,1
 113 1401 113 1401 431 1438 c 1,2,-1
 431 1539 l 1,3,-1
 313 1539 l 1,4,-1
 313 1684 l 1,5,-1
 710 1684 l 1,6,-1
 710 1539 l 1,7,-1
 593 1539 l 1,8,-1
 593 1438 l 1,9,10
 911 1401 911 1401 911 1045 c 256,11,12
 911 844 911 844 812 747 c 0,13,14
 734 670 734 670 593 654 c 1,15,-1
 593 555 l 1,16,-1
 710 555 l 1,17,-1
 710 410 l 1,18,-1
 313 410 l 1,19,-1
 313 555 l 1,20,-1
 431 555 l 1,21,-1
 431 654 l 1,22,23
 288 670 288 670 211 747 c 0,24,25
 113 844 113 844 113 1045 c 256,0,1
593 804 m 1,26,27
 654 818 654 818 688 853 c 1,28,29
 741 911 741 911 741.5 1045.5 c 128,-1,30
 742 1180 742 1180 688 1238 c 1,31,32
 653 1274 653 1274 593 1288 c 1,33,-1
 593 804 l 1,26,27
431 804 m 1,34,-1
 431 1288 l 1,35,36
 370 1274 370 1274 336 1238 c 0,37,38
 282 1180 282 1180 282 1045.5 c 128,-1,39
 282 911 282 911 336 853 c 0,40,41
 370 818 370 818 431 804 c 1,34,-1
EndSplineSet
EndChar

StartChar: Omega
Encoding: 937 937 154
Width: 1024
VWidth: 1747
Flags: W
LayerCount: 2
Fore
SplineSet
78 410 m 1,0,-1
 78 556 l 1,1,-1
 274 556 l 1,2,3
 176 670 176 670 131.5 793 c 128,-1,4
 87 916 87 916 87 1077 c 0,5,6
 87 1342 87 1342 202.5 1498.5 c 128,-1,7
 318 1655 318 1655 511 1655 c 128,-1,8
 704 1655 704 1655 819.5 1499 c 128,-1,9
 935 1343 935 1343 935 1077 c 0,10,11
 935 917 935 917 890.5 793.5 c 128,-1,12
 846 670 846 670 748 556 c 1,13,-1
 946 556 l 1,14,-1
 946 410 l 1,15,-1
 576 410 l 1,16,-1
 576 556 l 1,17,18
 672 621 672 621 725.5 761.5 c 128,-1,19
 779 902 779 902 779 1095 c 128,-1,20
 779 1288 779 1288 707 1401 c 128,-1,21
 635 1514 635 1514 512 1514 c 256,22,23
 389 1514 389 1514 317 1401 c 128,-1,24
 245 1288 245 1288 245 1095 c 128,-1,25
 245 902 245 902 299 761.5 c 128,-1,26
 353 621 353 621 448 556 c 1,27,-1
 448 410 l 1,28,-1
 78 410 l 1,0,-1
EndSplineSet
EndChar

StartChar: alpha
Encoding: 945 945 155
Width: 1024
VWidth: 1747
Flags: W
LayerCount: 2
Fore
SplineSet
628 854 m 1,0,-1
 593 1051 l 2,1,2
 557 1253 557 1253 415 1254 c 0,3,4
 336 1254 336 1254 288 1160 c 0,5,6
 226 1043 226 1043 226 871 c 128,-1,7
 226 699 226 699 286.5 608.5 c 128,-1,8
 347 518 347 518 415 518 c 0,9,10
 521 518 521 518 580 700 c 2,11,-1
 628 854 l 1,0,-1
711 1115 m 1,12,-1
 790 1364 l 1,13,-1
 921 1364 l 1,14,-1
 757 847 l 1,15,-1
 789 660 l 2,16,17
 797 618 797 618 827 580.5 c 128,-1,18
 857 543 857 543 882 543 c 2,19,-1
 953 543 l 1,20,-1
 953 410 l 1,21,-1
 865 410 l 2,22,23
 790 410 790 410 722 481 c 0,24,25
 689 517 689 517 676 592 c 1,26,27
 639 499 639 499 565 423 c 1,28,29
 529 388 529 388 415 388 c 0,30,31
 257 388 257 388 164 520 c 128,-1,32
 71 652 71 652 71 896 c 128,-1,33
 71 1140 71 1140 178.5 1263.5 c 128,-1,34
 286 1387 286 1387 415 1387 c 0,35,36
 664 1386 664 1386 711 1115 c 1,12,-1
EndSplineSet
EndChar

StartChar: delta
Encoding: 948 948 156
Width: 1024
VWidth: 1747
Flags: W
LayerCount: 2
Fore
SplineSet
739.5 886.5 m 128,-1,1
 739.5 1255 739.5 1255 511.5 1255 c 128,-1,2
 283.5 1255 283.5 1255 283.5 887 c 0,3,4
 283.5 705 283.5 705 341.5 611.5 c 128,-1,5
 399.5 518 399.5 518 511.5 518 c 0,6,0
 739.5 518 739.5 518 739.5 886.5 c 128,-1,1
128.5 887 m 0,7,8
 128.5 1192 128.5 1192 285.5 1320 c 1,9,10
 270.5 1329 270.5 1329 238.5 1364 c 0,11,12
 188.5 1416 188.5 1416 189.5 1492 c 0,13,14
 189.5 1608 189.5 1608 284 1677.5 c 128,-1,15
 378.5 1747 378.5 1747 536.5 1747 c 0,16,17
 618.5 1747 618.5 1747 658.5 1738 c 1,18,-1
 778.5 1708 l 1,19,-1
 778.5 1560 l 1,20,21
 659.5 1606 659.5 1606 536.5 1606 c 2,22,-1
 510.5 1606 l 2,23,24
 452.5 1606 452.5 1606 403.5 1567 c 1,25,-1
 372.5 1543 l 1,26,27
 350.5 1523 350.5 1523 351 1489 c 128,-1,28
 351.5 1455 351.5 1455 362 1439 c 128,-1,29
 372.5 1423 372.5 1423 400 1405.5 c 128,-1,30
 427.5 1388 427.5 1388 511.5 1388 c 0,31,32
 699.5 1388 699.5 1388 797.5 1257.5 c 128,-1,33
 895.5 1127 895.5 1127 895.5 884.5 c 128,-1,34
 895.5 642 895.5 642 797 513.5 c 128,-1,35
 698.5 385 698.5 385 512 385 c 128,-1,36
 325.5 385 325.5 385 227 513.5 c 128,-1,37
 128.5 642 128.5 642 128.5 887 c 0,7,8
EndSplineSet
EndChar

StartChar: pi
Encoding: 960 960 157
Width: 1024
VWidth: 1747
Flags: W
HStem: 376 130<784 951> 410 18G<185 330> 1208 155<71 185 330 672 817 930>
VStem: 185 144<410 1208> 672 144<534 1208>
LayerCount: 2
Fore
SplineSet
953 398 m 1,0,1
 900 377 900 377 823 376.5 c 128,-1,2
 746 376 746 376 709 432 c 128,-1,3
 672 488 672 488 672 638 c 2,4,-1
 672 1208 l 1,5,-1
 330 1208 l 1,6,-1
 330 410 l 1,7,-1
 185 410 l 1,8,-1
 185 1208 l 1,9,-1
 71 1208 l 1,10,-1
 71 1364 l 5,11,-1
 930 1364 l 1,12,-1
 930 1208 l 1,13,-1
 817 1208 l 1,14,-1
 817 621 l 2,15,16
 817 560 817 560 836.5 533 c 128,-1,17
 856 506 856 506 887.5 506 c 128,-1,18
 919 506 919 506 953 511 c 1,19,-1
 953 398 l 1,0,1
EndSplineSet
EndChar

StartChar: sigma
Encoding: 963 963 158
Width: 1024
VWidth: 1747
Flags: W
LayerCount: 2
Fore
SplineSet
492.5 1207 m 1,0,1
 384.5 1207 384.5 1207 327 1137.5 c 128,-1,2
 269.5 1068 269.5 1068 269.5 887 c 256,3,4
 269.5 705 269.5 705 327.5 611.5 c 128,-1,5
 385.5 518 385.5 518 498 518 c 128,-1,6
 610.5 518 610.5 518 668 611.5 c 128,-1,7
 725.5 705 725.5 705 725.5 829 c 0,8,9
 725.5 1041 725.5 1041 587.5 1152 c 0,10,11
 540.5 1190 540.5 1190 492.5 1207 c 1,0,1
716.5 1208 m 1,12,13
 881.5 1070 881.5 1070 881.5 829 c 0,14,15
 881.5 634 881.5 634 760.5 492 c 0,16,17
 669.5 384 669.5 384 490.5 384.5 c 128,-1,18
 311.5 385 311.5 385 213 513.5 c 128,-1,19
 114.5 642 114.5 642 114.5 878 c 128,-1,20
 114.5 1114 114.5 1114 209.5 1239 c 128,-1,21
 304.5 1364 304.5 1364 497.5 1364 c 2,22,-1
 909.5 1364 l 1,23,-1
 909.5 1208 l 1,24,-1
 716.5 1208 l 1,12,13
EndSplineSet
EndChar

StartChar: tau
Encoding: 964 964 159
Width: 1024
VWidth: 1747
Flags: W
LayerCount: 2
Fore
SplineSet
584.5 747 m 2,0,1
 584.5 623 584.5 623 613 583 c 128,-1,2
 641.5 543 641.5 543 727.5 543 c 2,3,-1
 798.5 543 l 1,4,-1
 798.5 410 l 1,5,-1
 709.5 410 l 2,6,7
 565.5 410 565.5 410 500 492.5 c 128,-1,8
 434.5 575 434.5 575 434.5 756 c 2,9,-1
 434.5 1208 l 1,10,-1
 146.5 1208 l 1,11,-1
 146.5 1364 l 1,12,-1
 877.5 1364 l 1,13,-1
 877.5 1208 l 1,14,-1
 584.5 1208 l 1,15,-1
 584.5 747 l 2,0,1
EndSplineSet
EndChar

StartChar: nsuperior
Encoding: 8319 8319 161
Width: 1024
VWidth: 1747
Flags: W
LayerCount: 2
Fore
SplineSet
369.5 1432 m 1,0,1
 435.5 1528 435.5 1528 541.5 1527 c 0,2,3
 747.5 1527 747.5 1527 748.5 1303 c 2,4,-1
 748.5 980 l 1,5,-1
 655.5 980 l 1,6,-1
 655.5 1300 l 2,7,8
 655.5 1452 655.5 1452 530.5 1452 c 0,9,10
 455.5 1452 455.5 1452 412.5 1406 c 128,-1,11
 369.5 1360 369.5 1360 369.5 1282 c 2,12,-1
 369.5 980 l 1,13,-1
 275.5 980 l 1,14,-1
 275.5 1515 l 1,15,-1
 369.5 1515 l 1,16,-1
 369.5 1432 l 1,0,1
EndSplineSet
EndChar

StartChar: peseta
Encoding: 8359 8359 162
Width: 1024
VWidth: 1747
Flags: W
LayerCount: 2
Fore
SplineSet
104.5 1542 m 1,0,-1
 104.5 1063 l 1,1,-1
 204.5 1063 l 2,2,3
 260.5 1063 260.5 1063 292 1125.5 c 128,-1,4
 323.5 1188 323.5 1188 323.5 1303 c 0,5,6
 323.5 1417 323.5 1417 292.5 1479.5 c 128,-1,7
 261.5 1542 261.5 1542 204.5 1542 c 2,8,-1
 104.5 1542 l 1,0,-1
950 462.5 m 128,-1,10
 900.5 385 900.5 385 823 385 c 128,-1,11
 745.5 385 745.5 385 658.5 445 c 5,12,-1
 658.5 445 l 1,13,-1
 586.5 445 l 2,14,15
 502.5 445 502.5 445 470 513 c 128,-1,16
 437.5 581 437.5 581 437.5 760 c 2,17,-1
 437.5 1279 l 1,18,-1
 406.5 1279 l 1,19,20
 406.5 1108 406.5 1108 354.5 1015 c 128,-1,21
 302.5 922 302.5 922 204.5 922 c 2,22,-1
 104.5 922 l 1,23,-1
 104.5 410 l 1,24,-1
 24.5 410 l 1,25,-1
 24.5 1684 l 1,26,-1
 204.5 1684 l 2,27,28
 290.5 1684 290.5 1684 356.5 1587 c 0,29,30
 403.5 1517 403.5 1517 403.5 1401 c 1,31,-1
 437.5 1401 l 1,32,-1
 437.5 1673 l 1,33,-1
 510.5 1673 l 1,34,-1
 510.5 1401 l 1,35,-1
 662.5 1401 l 1,36,-1
 662.5 1279 l 1,37,-1
 510.5 1279 l 1,38,-1
 510.5 760 l 2,39,40
 510.5 643 510.5 643 526 610 c 128,-1,41
 541.5 577 541.5 577 586.5 577 c 2,42,-1
 658.5 577 l 1,43,-1
 658.5 607 l 1,44,45
 738.5 517 738.5 517 816.5 516 c 0,46,47
 868.5 516 868.5 516 896.5 554 c 128,-1,48
 924.5 592 924.5 592 924.5 658.5 c 128,-1,49
 924.5 725 924.5 725 904 759.5 c 128,-1,50
 883.5 794 883.5 794 815.5 825 c 1,51,-1
 790.5 838 l 1,52,53
 722.5 869 722.5 869 692.5 932.5 c 128,-1,54
 662.5 996 662.5 996 662.5 1119 c 128,-1,55
 662.5 1242 662.5 1242 706.5 1315 c 128,-1,56
 750.5 1388 750.5 1388 832 1388 c 128,-1,57
 913.5 1388 913.5 1388 974.5 1337 c 1,58,-1
 974.5 1189 l 1,59,60
 911.5 1257 911.5 1257 841.5 1257 c 0,61,62
 732.5 1257 732.5 1257 732.5 1114 c 0,63,64
 732.5 1059 732.5 1059 752.5 1028 c 128,-1,65
 772.5 997 772.5 997 831.5 969 c 2,66,-1
 855.5 957 l 1,67,68
 933.5 921 933.5 921 966.5 855.5 c 128,-1,69
 999.5 790 999.5 790 999.5 665 c 128,-1,9
 999.5 540 999.5 540 950 462.5 c 128,-1,10
EndSplineSet
EndChar

StartChar: Euro
Encoding: 8364 8364 163
Width: 1024
VWidth: 1747
Flags: W
LayerCount: 2
Fore
SplineSet
921.5 455 m 1,0,1
 808.5 385 808.5 385 677.5 385 c 0,2,3
 496.5 385 496.5 385 386.5 508 c 128,-1,4
 276.5 631 276.5 631 241.5 873 c 1,5,-1
 102.5 873 l 1,6,-1
 140.5 967 l 1,7,-1
 234.5 967 l 1,8,9
 231.5 977 231.5 977 231.5 1008 c 128,-1,10
 231.5 1039 231.5 1039 232.5 1045.5 c 128,-1,11
 233.5 1052 233.5 1052 233.5 1082 c 128,-1,12
 233.5 1112 233.5 1112 234.5 1126 c 1,13,-1
 102.5 1126 l 1,14,-1
 140.5 1219 l 1,15,-1
 241.5 1219 l 1,16,17
 319.5 1707 319.5 1707 677.5 1707 c 0,18,19
 805.5 1707 805.5 1707 921.5 1637 c 1,20,-1
 921.5 1460 l 1,21,22
 809.5 1570 809.5 1570 686.5 1570 c 0,23,24
 442.5 1570 442.5 1570 403.5 1219 c 1,25,-1
 788.5 1219 l 1,26,-1
 749.5 1126 l 1,27,-1
 396.5 1126 l 1,28,29
 393.5 1088 393.5 1088 393.5 1045 c 1,30,-1
 393.5 1003 l 5,31,32
 395.5 992 395.5 992 395.5 967 c 1,33,-1
 683.5 967 l 1,34,-1
 644.5 873 l 1,35,-1
 403.5 873 l 1,36,37
 422.5 700 422.5 700 492 610.5 c 128,-1,38
 561.5 521 561.5 521 685.5 521 c 0,39,40
 810.5 521 810.5 521 921.5 631 c 1,41,-1
 921.5 455 l 1,0,1
EndSplineSet
EndChar

StartChar: arrowleft
Encoding: 8592 8592 164
Width: 1024
VWidth: 1747
Flags: W
LayerCount: 2
Fore
SplineSet
71.5 853 m 1,0,-1
 71.5 923 l 1,1,-1
 304.5 1172 l 1,2,-1
 375.5 1095 l 1,3,-1
 248.5 958 l 1,4,-1
 952.5 958 l 1,5,-1
 952.5 818 l 1,6,-1
 248.5 818 l 1,7,-1
 375.5 682 l 1,8,-1
 304.5 605 l 1,9,-1
 71.5 853 l 1,0,-1
EndSplineSet
EndChar

StartChar: arrowup
Encoding: 8593 8593 165
Width: 1024
VWidth: 1747
Flags: W
LayerCount: 2
Fore
SplineSet
545 1349 m 1,0,-1
 778 1101 l 1,1,-1
 705 1024 l 1,2,-1
 578 1161 l 1,3,-1
 578 410 l 1,4,-1
 447 410 l 1,5,-1
 447 1161 l 1,6,-1
 318 1024 l 1,7,-1
 246 1101 l 1,8,-1
 480 1349 l 1,9,-1
 545 1349 l 1,0,-1
EndSplineSet
EndChar

StartChar: arrowright
Encoding: 8594 8594 166
Width: 1024
VWidth: 1747
Flags: W
LayerCount: 2
Fore
SplineSet
952.5 853 m 1,0,-1
 719.5 605 l 1,1,-1
 647.5 682 l 1,2,-1
 775.5 818 l 1,3,-1
 71.5 818 l 1,4,-1
 71.5 958 l 1,5,-1
 775.5 958 l 1,6,-1
 647.5 1095 l 1,7,-1
 719.5 1172 l 1,8,-1
 952.5 923 l 1,9,-1
 952.5 853 l 1,0,-1
EndSplineSet
EndChar

StartChar: arrowdown
Encoding: 8595 8595 167
Width: 1024
VWidth: 1747
Flags: W
LayerCount: 2
Fore
SplineSet
480 410 m 1,0,-1
 246 658 l 1,1,-1
 318 735 l 1,2,-1
 447 598 l 1,3,-1
 447 1349 l 1,4,-1
 578 1349 l 1,5,-1
 578 598 l 1,6,-1
 705 735 l 1,7,-1
 778 658 l 1,8,-1
 545 410 l 1,9,-1
 480 410 l 1,0,-1
EndSplineSet
EndChar

StartChar: arrowboth
Encoding: 8596 8596 168
Width: 1024
VWidth: 1747
Flags: W
LayerCount: 2
Fore
SplineSet
775.5 818 m 1,0,-1
 248.5 818 l 1,1,-1
 375.5 682 l 1,2,-1
 304.5 605 l 1,3,-1
 71.5 853 l 1,4,-1
 71.5 923 l 1,5,-1
 304.5 1172 l 1,6,-1
 375.5 1095 l 1,7,-1
 248.5 958 l 1,8,-1
 775.5 958 l 1,9,-1
 647.5 1095 l 1,10,-1
 719.5 1172 l 1,11,-1
 952.5 923 l 1,12,-1
 952.5 853 l 1,13,-1
 719.5 605 l 1,14,-1
 647.5 682 l 1,15,-1
 775.5 818 l 1,0,-1
EndSplineSet
EndChar

StartChar: arrowupdn
Encoding: 8597 8597 169
Width: 1024
VWidth: 1747
Flags: W
LayerCount: 2
Fore
SplineSet
578 598 m 1,0,-1
 705 735 l 1,1,-1
 778 658 l 1,2,-1
 545 410 l 1,3,-1
 480 410 l 1,4,-1
 246 658 l 1,5,-1
 318 735 l 1,6,-1
 447 598 l 1,7,-1
 447 1161 l 1,8,-1
 318 1024 l 1,9,-1
 246 1101 l 1,10,-1
 480 1349 l 1,11,-1
 545 1349 l 1,12,-1
 778 1101 l 1,13,-1
 705 1024 l 1,14,-1
 578 1161 l 1,15,-1
 578 598 l 1,0,-1
EndSplineSet
EndChar

StartChar: arrowupdnbse
Encoding: 8616 8616 170
Width: 1024
VWidth: 1747
Flags: W
LayerCount: 2
Fore
SplineSet
447 550 m 1,0,-1
 246 763 l 1,1,-1
 318 840 l 1,2,-1
 447 703 l 1,3,-1
 447 1161 l 1,4,-1
 318 1024 l 1,5,-1
 246 1101 l 1,6,-1
 480 1349 l 1,7,-1
 545 1349 l 1,8,-1
 778 1101 l 1,9,-1
 705 1024 l 1,10,-1
 578 1161 l 1,11,-1
 578 703 l 1,12,-1
 705 840 l 1,13,-1
 778 763 l 1,14,-1
 578 550 l 1,15,-1
 778 550 l 1,16,-1
 778 410 l 1,17,-1
 246 410 l 1,18,-1
 246 550 l 1,19,-1
 447 550 l 1,0,-1
EndSplineSet
EndChar

StartChar: radical
Encoding: 8730 8730 171
Width: 1024
VWidth: 1747
Flags: W
LayerCount: 2
Fore
SplineSet
95 1035 m 1,0,-1
 62 1142 l 1,1,-1
 295 1225 l 1,2,-1
 471 602 l 1,3,-1
 844 1857 l 1,4,-1
 962 1857 l 1,5,-1
 962 1745 l 1,6,-1
 925 1745 l 1,7,-1
 519 376 l 1,8,-1
 418 376 l 1,9,-1
 221 1080 l 1,10,-1
 95 1035 l 1,0,-1
EndSplineSet
EndChar

StartChar: infinity
Encoding: 8734 8734 172
Width: 1024
VWidth: 1747
Flags: W
LayerCount: 2
Fore
SplineSet
573.5 945 m 1,0,1
 619.5 829 619.5 829 656 786 c 128,-1,2
 692.5 743 692.5 743 745 743 c 128,-1,3
 797.5 743 797.5 743 834 800.5 c 128,-1,4
 870.5 858 870.5 858 870.5 949.5 c 128,-1,5
 870.5 1041 870.5 1041 837 1095.5 c 128,-1,6
 803.5 1150 803.5 1150 749 1150 c 128,-1,7
 694.5 1150 694.5 1150 652.5 1100.5 c 128,-1,8
 610.5 1051 610.5 1051 573.5 945 c 1,0,1
447.5 951 m 1,9,10
 402.5 1065 402.5 1065 366 1107.5 c 128,-1,11
 329.5 1150 329.5 1150 276.5 1150 c 128,-1,12
 223.5 1150 223.5 1150 187.5 1093.5 c 128,-1,13
 151.5 1037 151.5 1037 151.5 945 c 128,-1,14
 151.5 853 151.5 853 184.5 798 c 128,-1,15
 217.5 743 217.5 743 272 743 c 128,-1,16
 326.5 743 326.5 743 368 793 c 128,-1,17
 409.5 843 409.5 843 447.5 951 c 1,9,10
511.5 1062 m 1,18,19
 549.5 1162 549.5 1162 608 1216 c 128,-1,20
 666.5 1270 666.5 1270 739.5 1270 c 0,21,22
 835.5 1270 835.5 1270 904 1176.5 c 128,-1,23
 972.5 1083 972.5 1083 972.5 943.5 c 128,-1,24
 972.5 804 972.5 804 907 713.5 c 128,-1,25
 841.5 623 841.5 623 741.5 623 c 0,26,27
 674.5 623 674.5 623 623.5 665.5 c 128,-1,28
 572.5 708 572.5 708 509.5 820 c 1,29,30
 457.5 714 457.5 714 405 668.5 c 128,-1,31
 352.5 623 352.5 623 283.5 623 c 4,32,33
 183.5 623 183.5 623 117.5 714.5 c 128,-1,34
 51.5 806 51.5 806 51.5 950 c 128,-1,35
 51.5 1094 51.5 1094 114 1182 c 128,-1,36
 176.5 1270 176.5 1270 282.5 1270 c 0,37,38
 357.5 1270 357.5 1270 412 1221 c 128,-1,39
 466.5 1172 466.5 1172 511.5 1062 c 1,18,19
EndSplineSet
EndChar

StartChar: orthogonal
Encoding: 8735 8735 173
Width: 1024
VWidth: 1747
Flags: W
LayerCount: 2
Fore
SplineSet
904.5 705 m 5,0,-1
 119.5 705 l 5,1,-1
 119.5 1342 l 5,2,-1
 255.5 1342 l 5,3,-1
 255.5 850 l 5,4,-1
 904.5 850 l 5,5,-1
 904.5 705 l 5,0,-1
EndSplineSet
EndChar

StartChar: intersection
Encoding: 8745 8745 174
Width: 1024
VWidth: 1747
Flags: W
LayerCount: 2
Fore
SplineSet
150.475 905 m 2,0,1
 150.475 1101 150.475 1101 170.475 1184 c 0,2,3
 191.475 1272 191.475 1272 238.475 1322 c 0,4,5
 284.475 1370 284.475 1370 360.475 1397 c 0,6,7
 428.475 1422 428.475 1422 512.475 1422 c 128,-1,8
 596.475 1422 596.475 1422 664.975 1397 c 128,-1,9
 733.475 1372 733.475 1372 785.475 1322 c 0,10,11
 831.475 1278 831.475 1278 855.475 1186 c 0,12,13
 874.475 1107 874.475 1107 873.475 905 c 2,14,-1
 873.475 410 l 1,15,-1
 736.475 410 l 1,16,-1
 736.475 985 l 2,17,18
 736.475 1064 736.475 1064 726.475 1120 c 0,19,20
 718.475 1169 718.475 1169 713.475 1180 c 0,21,22
 690.475 1229 690.475 1229 629.475 1256 c 0,23,24
 572.475 1282 572.475 1282 512.475 1282 c 0,25,26
 444.475 1282 444.475 1282 395.475 1256 c 0,27,28
 328.475 1221 328.475 1221 312.475 1180 c 1,29,30
 302.475 1152 302.475 1152 298.475 1120 c 0,31,32
 289.475 1024 289.475 1024 289.475 983 c 2,33,-1
 289.475 410 l 1,34,-1
 150.475 410 l 1,35,-1
 150.475 905 l 2,0,1
EndSplineSet
EndChar

StartChar: equivalence
Encoding: 8801 8801 175
Width: 1024
VWidth: 1747
Flags: W
LayerCount: 2
Fore
SplineSet
89 1031 m 1,0,-1
 935 1031 l 1,1,-1
 935 884 l 1,2,-1
 89 884 l 1,3,-1
 89 1031 l 1,0,-1
89 720 m 1,4,-1
 935 720 l 1,5,-1
 935 573 l 1,6,-1
 89 573 l 1,7,-1
 89 720 l 1,4,-1
89 1340 m 1,8,-1
 935 1340 l 1,9,-1
 935 1195 l 1,10,-1
 89 1195 l 1,11,-1
 89 1340 l 1,8,-1
EndSplineSet
EndChar

StartChar: lessequal
Encoding: 8804 8804 176
Width: 1024
VWidth: 1747
Flags: W
LayerCount: 2
Fore
SplineSet
935 783 m 1,0,-1
 935 628 l 1,1,-1
 89 911 l 1,2,-1
 89 1055 l 1,3,-1
 935 1337 l 1,4,-1
 935 1180 l 1,5,-1
 295 983 l 1,6,-1
 935 783 l 1,0,-1
935 555 m 1,7,-1
 935 410 l 1,8,-1
 89 410 l 1,9,-1
 89 555 l 1,10,-1
 935 555 l 1,7,-1
EndSplineSet
EndChar

StartChar: greaterequal
Encoding: 8805 8805 177
Width: 1024
VWidth: 1747
Flags: W
LayerCount: 2
Fore
SplineSet
89 783 m 1,0,-1
 732 983 l 1,1,-1
 89 1180 l 1,2,-1
 89 1337 l 1,3,-1
 935 1055 l 1,4,-1
 935 911 l 1,5,-1
 89 628 l 1,6,-1
 89 783 l 1,0,-1
89 555 m 1,7,-1
 935 555 l 1,8,-1
 935 410 l 1,9,-1
 89 410 l 1,10,-1
 89 555 l 1,7,-1
EndSplineSet
EndChar

StartChar: house
Encoding: 8962 8962 178
Width: 1024
VWidth: 1747
Flags: W
LayerCount: 2
Fore
SplineSet
136 410 m 1,0,-1
 136 962 l 1,1,-1
 512 1451 l 1,2,-1
 888 962 l 1,3,-1
 888 410 l 1,4,-1
 136 410 l 1,0,-1
234 514 m 1,5,-1
 791 514 l 1,6,-1
 791 914 l 1,7,-1
 512 1278 l 1,8,-1
 234 914 l 1,9,-1
 234 514 l 1,5,-1
EndSplineSet
EndChar

StartChar: integraltop
Encoding: 8992 8992 179
Width: 1024
VWidth: 1747
Flags: W
LayerCount: 2
Fore
SplineSet
434 0 m 5,0,-1
 434 1213 l 6,1,2
 434 1698 434 1698 515 1841 c 4,3,4
 621 2030 621 2030 757 2031 c 4,5,6
 821 2031 821 2031 861.5 1995 c 132,-1,7
 902 1959 902 1959 902 1908.5 c 132,-1,8
 902 1858 902 1858 876 1831 c 132,-1,9
 850 1804 850 1804 810.5 1804 c 132,-1,10
 771 1804 771 1804 750.5 1819 c 132,-1,11
 730 1834 730 1834 721.5 1856.5 c 132,-1,12
 713 1879 713 1879 709.5 1909.5 c 132,-1,13
 706 1940 706 1940 693 1940 c 4,14,15
 609 1940 609 1940 597 1412 c 4,16,17
 590 1155 590 1155 590 0 c 5,18,-1
 434 0 l 5,0,-1
EndSplineSet
EndChar

StartChar: integralbottom
Encoding: 8993 8993 180
Width: 1024
VWidth: 1747
Flags: W
LayerCount: 2
Fore
SplineSet
592 2048 m 5,0,-1
 592 813 l 6,1,2
 592 374 592 374 510 187 c 132,-1,3
 428 0 428 0 266 0 c 4,4,5
 202 0 202 0 162 33.5 c 132,-1,6
 122 67 122 67 122 117.5 c 132,-1,7
 122 168 122 168 147.5 195 c 132,-1,8
 173 222 173 222 212.5 222 c 132,-1,9
 252 222 252 222 272.5 207 c 132,-1,10
 293 192 293 192 301.5 169.5 c 132,-1,11
 310 147 310 147 313.5 116 c 132,-1,12
 317 85 317 85 331 85 c 4,13,14
 414 85 414 85 427 614 c 4,15,16
 434 863 434 863 434 2048 c 5,17,-1
 592 2048 l 5,0,-1
EndSplineSet
EndChar

StartChar: SF100000
Encoding: 9472 9472 181
Width: 1024
VWidth: 1747
Flags: W
LayerCount: 2
Fore
SplineSet
0 1056 m 1,0,-1
 1024 1056 l 1,1,-1
 1024 992 l 1,2,-1
 0 992 l 5,3,-1
 0 1056 l 1,0,-1
EndSplineSet
EndChar

StartChar: SF110000
Encoding: 9474 9474 182
Width: 1024
VWidth: 1747
Flags: W
LayerCount: 2
Fore
SplineSet
486 2048 m 1,0,-1
 538 2048 l 5,1,-1
 538 0 l 5,2,-1
 486 0 l 1,3,-1
 486 2048 l 1,0,-1
EndSplineSet
EndChar

StartChar: SF010000
Encoding: 9484 9484 183
Width: 1024
VWidth: 1747
Flags: W
LayerCount: 2
Fore
SplineSet
480 0 m 1,0,-1
 480 1056 l 1,1,-1
 1024 1056 l 1,2,-1
 1024 992 l 1,3,-1
 544 992 l 1,4,-1
 544 0 l 1,5,-1
 480 0 l 1,0,-1
EndSplineSet
EndChar

StartChar: SF030000
Encoding: 9488 9488 184
Width: 1024
VWidth: 1747
Flags: W
LayerCount: 2
Fore
SplineSet
480 0 m 1,0,-1
 480 992 l 1,1,-1
 0 992 l 1,2,-1
 0 1056 l 1,3,-1
 544 1056 l 5,4,-1
 544 0 l 5,5,-1
 480 0 l 1,0,-1
EndSplineSet
EndChar

StartChar: SF020000
Encoding: 9492 9492 185
Width: 1024
VWidth: 1747
Flags: W
LayerCount: 2
Fore
SplineSet
480 992 m 5,0,-1
 480 2048 l 1,1,-1
 544 2048 l 1,2,-1
 544 1056 l 1,3,-1
 1024 1056 l 1,4,-1
 1024 992 l 5,5,-1
 480 992 l 5,0,-1
EndSplineSet
EndChar

StartChar: SF040000
Encoding: 9496 9496 186
Width: 1024
VWidth: 1747
Flags: W
LayerCount: 2
Fore
SplineSet
0 992 m 1,0,-1
 0 1056 l 1,1,-1
 480 1056 l 1,2,-1
 480 2048 l 1,3,-1
 544 2048 l 5,4,-1
 544 992 l 5,5,-1
 0 992 l 1,0,-1
EndSplineSet
EndChar

StartChar: SF080000
Encoding: 9500 9500 187
Width: 1024
VWidth: 1747
Flags: W
LayerCount: 2
Fore
SplineSet
480 0 m 1,0,-1
 480 2048 l 1,1,-1
 544 2048 l 1,2,-1
 544 1056 l 1,3,-1
 1024 1056 l 1,4,-1
 1024 992 l 5,5,-1
 544 992 l 5,6,-1
 544 0 l 1,7,-1
 480 0 l 1,0,-1
EndSplineSet
EndChar

StartChar: SF090000
Encoding: 9508 9508 188
Width: 1024
VWidth: 1747
Flags: W
LayerCount: 2
Fore
SplineSet
480 0 m 1,0,-1
 480 992 l 1,1,-1
 0 992 l 1,2,-1
 0 1056 l 1,3,-1
 480 1056 l 1,4,-1
 480 2048 l 1,5,-1
 544 2048 l 5,6,-1
 544 0 l 5,7,-1
 480 0 l 1,0,-1
EndSplineSet
EndChar

StartChar: SF060000
Encoding: 9516 9516 189
Width: 1024
VWidth: 1747
Flags: W
LayerCount: 2
Fore
SplineSet
480 0 m 1,0,-1
 480 992 l 1,1,-1
 0 992 l 1,2,-1
 0 1056 l 1,3,-1
 1024 1056 l 1,4,-1
 1024 992 l 1,5,-1
 544 992 l 5,6,-1
 544 0 l 5,7,-1
 480 0 l 1,0,-1
EndSplineSet
EndChar

StartChar: SF070000
Encoding: 9524 9524 190
Width: 1024
VWidth: 1747
Flags: W
LayerCount: 2
Fore
SplineSet
0 992 m 1,0,-1
 0 1056 l 1,1,-1
 480 1056 l 1,2,-1
 480 2048 l 1,3,-1
 544 2048 l 5,4,-1
 544 1056 l 5,5,-1
 1024 1056 l 1,6,-1
 1024 992 l 1,7,-1
 0 992 l 1,0,-1
EndSplineSet
EndChar

StartChar: SF050000
Encoding: 9532 9532 191
Width: 1024
VWidth: 1747
Flags: W
LayerCount: 2
Fore
SplineSet
544 992 m 5,0,-1
 544 0 l 5,1,-1
 480 0 l 1,2,-1
 480 992 l 1,3,-1
 0 992 l 1,4,-1
 0 1056 l 1,5,-1
 480 1056 l 1,6,-1
 480 2048 l 1,7,-1
 544 2048 l 5,8,-1
 544 1056 l 5,9,-1
 1024 1056 l 1,10,-1
 1024 992 l 1,11,-1
 544 992 l 5,0,-1
EndSplineSet
EndChar

StartChar: SF430000
Encoding: 9552 9552 192
Width: 1024
VWidth: 1747
Flags: W
LayerCount: 2
Fore
SplineSet
0 960 m 5,0,-1
 0 1088 l 5,1,-1
 1024 1088 l 5,2,-1
 1024 960 l 5,3,-1
 0 960 l 5,0,-1
EndSplineSet
EndChar

StartChar: SF240000
Encoding: 9553 9553 193
Width: 1024
VWidth: 1747
Flags: W
LayerCount: 2
Fore
SplineSet
448 0 m 1,0,-1
 448 2048 l 1,1,-1
 576 2048 l 5,2,-1
 576 0 l 5,3,-1
 448 0 l 1,0,-1
EndSplineSet
EndChar

StartChar: SF510000
Encoding: 9554 9554 194
Width: 1024
VWidth: 1747
Flags: W
LayerCount: 2
Fore
SplineSet
480 0 m 1,0,-1
 480 1088 l 1,1,-1
 1024 1088 l 1,2,-1
 1024 960 l 5,3,-1
 544 960 l 5,4,-1
 544 0 l 1,5,-1
 480 0 l 1,0,-1
EndSplineSet
EndChar

StartChar: SF520000
Encoding: 9555 9555 195
Width: 1024
VWidth: 1747
Flags: W
LayerCount: 2
Fore
SplineSet
448 0 m 1,0,-1
 448 1056 l 1,1,-1
 1024 1056 l 1,2,-1
 1024 992 l 1,3,-1
 576 992 l 5,4,-1
 576 0 l 5,5,-1
 448 0 l 1,0,-1
EndSplineSet
EndChar

StartChar: SF390000
Encoding: 9556 9556 196
Width: 1024
VWidth: 1747
Flags: W
LayerCount: 2
Fore
SplineSet
448 0 m 1,0,-1
 448 1088 l 1,1,-1
 1024 1088 l 1,2,-1
 1024 960 l 1,3,-1
 576 960 l 5,4,-1
 576 0 l 5,5,-1
 448 0 l 1,0,-1
EndSplineSet
EndChar

StartChar: SF220000
Encoding: 9557 9557 197
Width: 1024
VWidth: 1747
Flags: W
LayerCount: 2
Fore
SplineSet
480 0 m 1,0,-1
 480 960 l 1,1,-1
 0 960 l 1,2,-1
 0 1088 l 1,3,-1
 544 1088 l 5,4,-1
 544 0 l 5,5,-1
 480 0 l 1,0,-1
EndSplineSet
EndChar

StartChar: SF210000
Encoding: 9558 9558 198
Width: 1024
VWidth: 1747
Flags: W
LayerCount: 2
Fore
SplineSet
448 0 m 1,0,-1
 448 992 l 5,1,-1
 0 992 l 5,2,-1
 0 1056 l 1,3,-1
 576 1056 l 1,4,-1
 576 0 l 1,5,-1
 448 0 l 1,0,-1
EndSplineSet
EndChar

StartChar: SF250000
Encoding: 9559 9559 199
Width: 1024
VWidth: 1747
Flags: W
LayerCount: 2
Fore
SplineSet
448 0 m 5,0,-1
 448 960 l 5,1,-1
 0 960 l 5,2,-1
 0 1088 l 5,3,-1
 576 1088 l 5,4,-1
 576 0 l 5,5,-1
 448 0 l 5,0,-1
EndSplineSet
EndChar

StartChar: SF500000
Encoding: 9560 9560 200
Width: 1024
VWidth: 1747
Flags: W
LayerCount: 2
Fore
SplineSet
480 960 m 1,0,-1
 480 2048 l 1,1,-1
 544 2048 l 5,2,-1
 544 1088 l 5,3,-1
 1024 1088 l 1,4,-1
 1024 960 l 1,5,-1
 480 960 l 1,0,-1
EndSplineSet
EndChar

StartChar: SF490000
Encoding: 9561 9561 201
Width: 1024
VWidth: 1747
Flags: W
LayerCount: 2
Fore
SplineSet
448 992 m 5,0,-1
 448 2048 l 1,1,-1
 576 2048 l 1,2,-1
 576 1056 l 1,3,-1
 1024 1056 l 1,4,-1
 1024 992 l 5,5,-1
 448 992 l 5,0,-1
EndSplineSet
EndChar

StartChar: SF380000
Encoding: 9562 9562 202
Width: 1024
VWidth: 1747
Flags: W
LayerCount: 2
Fore
SplineSet
448 960 m 5,0,-1
 448 2048 l 5,1,-1
 576 2048 l 5,2,-1
 576 1088 l 5,3,-1
 1024 1088 l 5,4,-1
 1024 960 l 5,5,-1
 448 960 l 5,0,-1
EndSplineSet
EndChar

StartChar: SF280000
Encoding: 9563 9563 203
Width: 1024
VWidth: 1747
Flags: W
LayerCount: 2
Fore
SplineSet
0 960 m 1,0,-1
 0 1088 l 1,1,-1
 480 1088 l 1,2,-1
 480 2048 l 1,3,-1
 544 2048 l 5,4,-1
 544 960 l 5,5,-1
 0 960 l 1,0,-1
EndSplineSet
EndChar

StartChar: SF270000
Encoding: 9564 9564 204
Width: 1024
VWidth: 1747
Flags: W
LayerCount: 2
Fore
SplineSet
0 992 m 5,0,-1
 0 1056 l 1,1,-1
 448 1056 l 1,2,-1
 448 2048 l 1,3,-1
 576 2048 l 1,4,-1
 576 992 l 5,5,-1
 0 992 l 5,0,-1
EndSplineSet
EndChar

StartChar: SF260000
Encoding: 9565 9565 205
Width: 1024
VWidth: 1747
Flags: W
LayerCount: 2
Fore
SplineSet
0 960 m 5,0,-1
 0 1088 l 5,1,-1
 448 1088 l 5,2,-1
 448 2048 l 5,3,-1
 576 2048 l 5,4,-1
 576 960 l 5,5,-1
 0 960 l 5,0,-1
EndSplineSet
EndChar

StartChar: SF360000
Encoding: 9566 9566 206
Width: 1024
VWidth: 1747
Flags: W
LayerCount: 2
Fore
SplineSet
480 0 m 1,0,-1
 480 2048 l 1,1,-1
 544 2048 l 5,2,-1
 544 1088 l 5,3,-1
 1024 1088 l 1,4,-1
 1024 960 l 1,5,-1
 544 960 l 5,6,-1
 544 0 l 5,7,-1
 480 0 l 1,0,-1
EndSplineSet
EndChar

StartChar: SF370000
Encoding: 9567 9567 207
Width: 1024
VWidth: 1747
Flags: W
LayerCount: 2
Fore
SplineSet
448 0 m 1,0,-1
 448 2048 l 1,1,-1
 576 2048 l 1,2,-1
 576 1056 l 1,3,-1
 1024 1056 l 1,4,-1
 1024 992 l 5,5,-1
 576 992 l 5,6,-1
 576 0 l 1,7,-1
 448 0 l 1,0,-1
EndSplineSet
EndChar

StartChar: SF420000
Encoding: 9568 9568 208
Width: 1024
VWidth: 1747
Flags: W
LayerCount: 2
Fore
SplineSet
448 0 m 5,0,-1
 448 2048 l 5,1,-1
 576 2048 l 5,2,-1
 576 1088 l 5,3,-1
 1024 1088 l 5,4,-1
 1024 960 l 5,5,-1
 576 960 l 5,6,-1
 576 0 l 5,7,-1
 448 0 l 5,0,-1
EndSplineSet
EndChar

StartChar: SF190000
Encoding: 9569 9569 209
Width: 1024
VWidth: 1747
Flags: W
LayerCount: 2
Fore
SplineSet
480 0 m 1,0,-1
 480 960 l 1,1,-1
 0 960 l 1,2,-1
 0 1088 l 1,3,-1
 480 1088 l 1,4,-1
 480 2048 l 1,5,-1
 544 2048 l 5,6,-1
 544 0 l 5,7,-1
 480 0 l 1,0,-1
EndSplineSet
EndChar

StartChar: SF200000
Encoding: 9570 9570 210
Width: 1024
VWidth: 1747
Flags: W
LayerCount: 2
Fore
SplineSet
448 0 m 1,0,-1
 448 992 l 5,1,-1
 0 992 l 5,2,-1
 0 1056 l 1,3,-1
 448 1056 l 1,4,-1
 448 2048 l 1,5,-1
 576 2048 l 1,6,-1
 576 0 l 1,7,-1
 448 0 l 1,0,-1
EndSplineSet
EndChar

StartChar: SF230000
Encoding: 9571 9571 211
Width: 1024
VWidth: 1747
Flags: W
LayerCount: 2
Fore
SplineSet
448 0 m 5,0,-1
 448 960 l 5,1,-1
 0 960 l 5,2,-1
 0 1088 l 5,3,-1
 448 1088 l 5,4,-1
 448 2048 l 5,5,-1
 576 2048 l 5,6,-1
 576 0 l 5,7,-1
 448 0 l 5,0,-1
EndSplineSet
EndChar

StartChar: SF470000
Encoding: 9572 9572 212
Width: 1024
VWidth: 1747
Flags: W
LayerCount: 2
Fore
SplineSet
480 0 m 1,0,-1
 480 960 l 1,1,-1
 0 960 l 1,2,-1
 0 1088 l 1,3,-1
 1024 1088 l 1,4,-1
 1024 960 l 1,5,-1
 544 960 l 5,6,-1
 544 0 l 5,7,-1
 480 0 l 1,0,-1
EndSplineSet
EndChar

StartChar: SF480000
Encoding: 9573 9573 213
Width: 1024
VWidth: 1747
Flags: W
LayerCount: 2
Fore
SplineSet
448 0 m 1,0,-1
 448 992 l 5,1,-1
 0 992 l 5,2,-1
 0 1056 l 1,3,-1
 1024 1056 l 1,4,-1
 1024 992 l 5,5,-1
 576 992 l 5,6,-1
 576 0 l 1,7,-1
 448 0 l 1,0,-1
EndSplineSet
EndChar

StartChar: SF410000
Encoding: 9574 9574 214
Width: 1024
VWidth: 1747
Flags: W
LayerCount: 2
Fore
SplineSet
448 0 m 5,0,-1
 448 960 l 5,1,-1
 0 960 l 5,2,-1
 0 1088 l 5,3,-1
 1024 1088 l 5,4,-1
 1024 960 l 5,5,-1
 576 960 l 5,6,-1
 576 0 l 5,7,-1
 448 0 l 5,0,-1
EndSplineSet
EndChar

StartChar: SF450000
Encoding: 9575 9575 215
Width: 1024
VWidth: 1747
Flags: W
LayerCount: 2
Fore
SplineSet
0 960 m 1,0,-1
 0 1088 l 1,1,-1
 480 1088 l 1,2,-1
 480 2048 l 1,3,-1
 544 2048 l 5,4,-1
 544 1088 l 5,5,-1
 1024 1088 l 1,6,-1
 1024 960 l 1,7,-1
 0 960 l 1,0,-1
EndSplineSet
EndChar

StartChar: SF460000
Encoding: 9576 9576 216
Width: 1024
VWidth: 1747
Flags: W
LayerCount: 2
Fore
SplineSet
0 992 m 1,0,-1
 0 1056 l 5,1,-1
 448 1056 l 5,2,-1
 448 2048 l 1,3,-1
 576 2048 l 1,4,-1
 576 1056 l 5,5,-1
 1024 1056 l 5,6,-1
 1024 992 l 1,7,-1
 0 992 l 1,0,-1
EndSplineSet
EndChar

StartChar: SF400000
Encoding: 9577 9577 217
Width: 1024
VWidth: 1747
Flags: W
LayerCount: 2
Fore
SplineSet
0 960 m 5,0,-1
 0 1088 l 5,1,-1
 448 1088 l 5,2,-1
 448 2048 l 5,3,-1
 576 2048 l 5,4,-1
 576 1088 l 5,5,-1
 1024 1088 l 5,6,-1
 1024 960 l 5,7,-1
 0 960 l 5,0,-1
EndSplineSet
EndChar

StartChar: SF540000
Encoding: 9578 9578 218
Width: 1024
VWidth: 1747
Flags: W
LayerCount: 2
Fore
SplineSet
544 960 m 5,0,-1
 544 0 l 5,1,-1
 480 0 l 1,2,-1
 480 960 l 1,3,-1
 0 960 l 1,4,-1
 0 1088 l 1,5,-1
 480 1088 l 1,6,-1
 480 2048 l 1,7,-1
 544 2048 l 5,8,-1
 544 1088 l 5,9,-1
 1024 1088 l 1,10,-1
 1024 960 l 1,11,-1
 544 960 l 5,0,-1
EndSplineSet
EndChar

StartChar: SF530000
Encoding: 9579 9579 219
Width: 1024
VWidth: 1747
Flags: W
LayerCount: 2
Fore
SplineSet
576 992 m 5,0,-1
 576 0 l 1,1,-1
 448 0 l 1,2,-1
 448 992 l 5,3,-1
 0 992 l 5,4,-1
 0 1056 l 1,5,-1
 448 1056 l 1,6,-1
 448 2048 l 1,7,-1
 576 2048 l 1,8,-1
 576 1056 l 1,9,-1
 1024 1056 l 1,10,-1
 1024 992 l 5,11,-1
 576 992 l 5,0,-1
EndSplineSet
EndChar

StartChar: SF440000
Encoding: 9580 9580 220
Width: 1024
VWidth: 1747
Flags: W
LayerCount: 2
Fore
SplineSet
576 960 m 5,0,-1
 576 0 l 5,1,-1
 448 0 l 5,2,-1
 448 960 l 5,3,-1
 0 960 l 5,4,-1
 0 1088 l 5,5,-1
 448 1088 l 5,6,-1
 448 2048 l 5,7,-1
 576 2048 l 5,8,-1
 576 1088 l 5,9,-1
 1024 1088 l 5,10,-1
 1024 960 l 5,11,-1
 576 960 l 5,0,-1
EndSplineSet
EndChar

StartChar: upblock
Encoding: 9600 9600 221
Width: 1024
VWidth: 1747
Flags: W
LayerCount: 2
Fore
SplineSet
0 1024 m 5,0,-1
 0 2048 l 1,1,-1
 1024 2048 l 1,2,-1
 1024 1024 l 1,3,-1
 0 1024 l 5,0,-1
EndSplineSet
EndChar

StartChar: dnblock
Encoding: 9604 9604 222
Width: 1024
VWidth: 1747
Flags: W
LayerCount: 2
Fore
SplineSet
0 0 m 1,0,-1
 0 1024 l 5,1,-1
 1024 1024 l 1,2,-1
 1024 0 l 1,3,-1
 0 0 l 1,0,-1
EndSplineSet
EndChar

StartChar: block
Encoding: 9608 9608 223
Width: 1024
VWidth: 1747
Flags: W
LayerCount: 2
Fore
SplineSet
0 2048 m 1,0,-1
 1024 2048 l 1,1,-1
 1024 0 l 1,2,-1
 0 0 l 1,3,-1
 0 2048 l 1,0,-1
EndSplineSet
EndChar

StartChar: lfblock
Encoding: 9612 9612 224
Width: 1024
VWidth: 1747
Flags: W
LayerCount: 2
Fore
SplineSet
0 0 m 1,0,-1
 0 2048 l 1,1,-1
 512 2048 l 1,2,-1
 512 0 l 5,3,-1
 0 0 l 1,0,-1
EndSplineSet
EndChar

StartChar: rtblock
Encoding: 9616 9616 225
Width: 1024
VWidth: 1747
Flags: W
LayerCount: 2
Fore
SplineSet
512 0 m 1,0,-1
 512 2048 l 1,1,-1
 1024 2048 l 5,2,-1
 1024 0 l 5,3,-1
 512 0 l 1,0,-1
EndSplineSet
EndChar

StartChar: ltshade
Encoding: 9617 9617 226
Width: 1024
VWidth: 1747
Flags: W
LayerCount: 2
Fore
SplineSet
705 2012 m 1,0,-1
 794 2012 l 1,1,-1
 794 1924 l 1,2,-1
 705 1924 l 1,3,-1
 705 2012 l 1,0,-1
352 2012 m 1,4,-1
 440 2012 l 1,5,-1
 440 1924 l 1,6,-1
 352 1924 l 1,7,-1
 352 2012 l 1,4,-1
0 2012 m 1,8,-1
 88 2012 l 1,9,-1
 88 1924 l 1,10,-1
 0 1924 l 1,11,-1
 0 2012 l 1,8,-1
881 1836 m 1,12,-1
 970 1836 l 1,13,-1
 970 1749 l 1,14,-1
 881 1749 l 1,15,-1
 881 1836 l 1,12,-1
530 1836 m 1,16,-1
 618 1836 l 1,17,-1
 618 1749 l 1,18,-1
 530 1749 l 1,19,-1
 530 1836 l 1,16,-1
176 1836 m 1,20,-1
 264 1836 l 1,21,-1
 264 1749 l 1,22,-1
 176 1749 l 1,23,-1
 176 1836 l 1,20,-1
705 1661 m 1,24,-1
 794 1661 l 1,25,-1
 794 1574 l 1,26,-1
 705 1574 l 1,27,-1
 705 1661 l 1,24,-1
352 1661 m 1,28,-1
 440 1661 l 1,29,-1
 440 1574 l 1,30,-1
 352 1574 l 1,31,-1
 352 1661 l 1,28,-1
0 1661 m 1,32,-1
 88 1661 l 1,33,-1
 88 1574 l 1,34,-1
 0 1574 l 1,35,-1
 0 1661 l 1,32,-1
881 1487 m 1,36,-1
 970 1487 l 1,37,-1
 970 1399 l 1,38,-1
 881 1399 l 1,39,-1
 881 1487 l 1,36,-1
530 1487 m 1,40,-1
 618 1487 l 1,41,-1
 618 1399 l 1,42,-1
 530 1399 l 1,43,-1
 530 1487 l 1,40,-1
176 1487 m 1,44,-1
 264 1487 l 1,45,-1
 264 1399 l 1,46,-1
 176 1399 l 1,47,-1
 176 1487 l 1,44,-1
705 1312 m 1,48,-1
 794 1312 l 1,49,-1
 794 1225 l 1,50,-1
 705 1225 l 1,51,-1
 705 1312 l 1,48,-1
352 1312 m 1,52,-1
 440 1312 l 1,53,-1
 440 1225 l 1,54,-1
 352 1225 l 1,55,-1
 352 1312 l 1,52,-1
0 1312 m 1,56,-1
 88 1312 l 1,57,-1
 88 1225 l 1,58,-1
 0 1225 l 1,59,-1
 0 1312 l 1,56,-1
881 1137 m 1,60,-1
 970 1137 l 1,61,-1
 970 1050 l 1,62,-1
 881 1050 l 1,63,-1
 881 1137 l 1,60,-1
530 1137 m 1,64,-1
 618 1137 l 1,65,-1
 618 1050 l 1,66,-1
 530 1050 l 1,67,-1
 530 1137 l 1,64,-1
176 1137 m 1,68,-1
 264 1137 l 1,69,-1
 264 1050 l 1,70,-1
 176 1050 l 1,71,-1
 176 1137 l 1,68,-1
705 962 m 1,72,-1
 794 962 l 1,73,-1
 794 875 l 1,74,-1
 705 875 l 1,75,-1
 705 962 l 1,72,-1
352 962 m 1,76,-1
 440 962 l 1,77,-1
 440 875 l 1,78,-1
 352 875 l 1,79,-1
 352 962 l 1,76,-1
0 962 m 1,80,-1
 88 962 l 1,81,-1
 88 875 l 1,82,-1
 0 875 l 1,83,-1
 0 962 l 1,80,-1
881 787 m 1,84,-1
 970 787 l 1,85,-1
 970 699 l 1,86,-1
 881 699 l 1,87,-1
 881 787 l 1,84,-1
530 787 m 1,88,-1
 618 787 l 1,89,-1
 618 699 l 1,90,-1
 530 699 l 1,91,-1
 530 787 l 1,88,-1
176 787 m 1,92,-1
 264 787 l 1,93,-1
 264 699 l 1,94,-1
 176 699 l 1,95,-1
 176 787 l 1,92,-1
705 612 m 1,96,-1
 794 612 l 1,97,-1
 794 524 l 1,98,-1
 705 524 l 1,99,-1
 705 612 l 1,96,-1
352 612 m 1,100,-1
 440 612 l 1,101,-1
 440 524 l 1,102,-1
 352 524 l 1,103,-1
 352 612 l 1,100,-1
0 612 m 1,104,-1
 88 612 l 1,105,-1
 88 524 l 1,106,-1
 0 524 l 1,107,-1
 0 612 l 1,104,-1
881 437 m 1,108,-1
 970 437 l 1,109,-1
 970 349 l 1,110,-1
 881 349 l 1,111,-1
 881 437 l 1,108,-1
530 437 m 1,112,-1
 618 437 l 1,113,-1
 618 349 l 1,114,-1
 530 349 l 1,115,-1
 530 437 l 1,112,-1
176 437 m 1,116,-1
 264 437 l 1,117,-1
 264 349 l 1,118,-1
 176 349 l 1,119,-1
 176 437 l 1,116,-1
705 263 m 1,120,-1
 794 263 l 1,121,-1
 794 175 l 1,122,-1
 705 175 l 1,123,-1
 705 263 l 1,120,-1
352 263 m 1,124,-1
 440 263 l 1,125,-1
 440 175 l 1,126,-1
 352 175 l 1,127,-1
 352 263 l 1,124,-1
0 263 m 1,128,-1
 88 263 l 1,129,-1
 88 175 l 1,130,-1
 0 175 l 1,131,-1
 0 263 l 1,128,-1
881 87 m 1,132,-1
 970 87 l 1,133,-1
 970 0 l 5,134,-1
 881 0 l 5,135,-1
 881 87 l 1,132,-1
530 87 m 1,136,-1
 618 87 l 1,137,-1
 618 0 l 5,138,-1
 530 0 l 5,139,-1
 530 87 l 1,136,-1
176 87 m 1,140,-1
 264 87 l 1,141,-1
 264 0 l 5,142,-1
 176 0 l 5,143,-1
 176 87 l 1,140,-1
EndSplineSet
EndChar

StartChar: shade
Encoding: 9618 9618 227
Width: 1024
VWidth: 1747
Flags: W
LayerCount: 2
Fore
SplineSet
855.346 2005.86 m 1,0,-1
 940.288 2005.86 l 1,1,-1
 940.288 1920.94 l 1,2,-1
 855.346 1920.94 l 1,3,-1
 855.346 2005.86 l 1,0,-1
513.602 2005.86 m 1,4,-1
 598.544 2005.86 l 1,5,-1
 598.544 1920.94 l 1,6,-1
 513.602 1920.94 l 1,7,-1
 513.602 2005.86 l 1,4,-1
683.486 2005.86 m 1,8,-1
 769.416 2005.86 l 1,9,-1
 769.416 1920.94 l 1,10,-1
 683.486 1920.94 l 1,11,-1
 683.486 2005.86 l 1,8,-1
341.742 2005.86 m 1,12,-1
 427.672 2005.86 l 1,13,-1
 427.672 1920.94 l 1,14,-1
 341.742 1920.94 l 1,15,-1
 341.742 2005.86 l 1,12,-1
-0.00195312 2005.86 m 1,16,-1
 84.9404 2005.86 l 1,17,-1
 84.9404 1920.94 l 1,18,-1
 -0.00195312 1920.94 l 1,19,-1
 -0.00195312 2005.86 l 1,16,-1
170.87 2005.86 m 1,20,-1
 256.8 2005.86 l 1,21,-1
 256.8 1920.94 l 1,22,-1
 170.87 1920.94 l 1,23,-1
 170.87 2005.86 l 1,20,-1
940.288 1836.03 m 1,24,-1
 1024 1836.03 l 1,25,-1
 1024 1750.14 l 1,26,-1
 940.288 1750.14 l 1,27,-1
 940.288 1836.03 l 1,24,-1
598.544 1836.03 m 1,28,-1
 683.486 1836.03 l 1,29,-1
 683.486 1750.14 l 1,30,-1
 598.544 1750.14 l 1,31,-1
 598.544 1836.03 l 1,28,-1
769.416 1836.03 m 1,32,-1
 855.346 1836.03 l 1,33,-1
 855.346 1750.14 l 1,34,-1
 769.416 1750.14 l 1,35,-1
 769.416 1836.03 l 1,32,-1
427.672 1836.03 m 1,36,-1
 513.602 1836.03 l 1,37,-1
 513.602 1750.14 l 1,38,-1
 427.672 1750.14 l 1,39,-1
 427.672 1836.03 l 1,36,-1
84.9404 1836.03 m 1,40,-1
 170.87 1836.03 l 1,41,-1
 170.87 1750.14 l 1,42,-1
 84.9404 1750.14 l 1,43,-1
 84.9404 1836.03 l 1,40,-1
256.8 1836.03 m 1,44,-1
 341.742 1836.03 l 1,45,-1
 341.742 1750.14 l 1,46,-1
 256.8 1750.14 l 1,47,-1
 256.8 1836.03 l 1,44,-1
855.346 1665.23 m 1,48,-1
 940.288 1665.23 l 1,49,-1
 940.288 1580.32 l 1,50,-1
 855.346 1580.32 l 1,51,-1
 855.346 1665.23 l 1,48,-1
513.602 1665.23 m 1,52,-1
 598.544 1665.23 l 1,53,-1
 598.544 1580.32 l 1,54,-1
 513.602 1580.32 l 1,55,-1
 513.602 1665.23 l 1,52,-1
683.486 1665.23 m 1,56,-1
 769.416 1665.23 l 1,57,-1
 769.416 1580.32 l 1,58,-1
 683.486 1580.32 l 1,59,-1
 683.486 1665.23 l 1,56,-1
341.742 1665.23 m 1,60,-1
 427.672 1665.23 l 1,61,-1
 427.672 1580.32 l 1,62,-1
 341.742 1580.32 l 1,63,-1
 341.742 1665.23 l 1,60,-1
-0.00195312 1665.23 m 1,64,-1
 84.9404 1665.23 l 1,65,-1
 84.9404 1580.32 l 1,66,-1
 -0.00195312 1580.32 l 1,67,-1
 -0.00195312 1665.23 l 1,64,-1
170.87 1665.23 m 1,68,-1
 256.8 1665.23 l 1,69,-1
 256.8 1580.32 l 1,70,-1
 170.87 1580.32 l 1,71,-1
 170.87 1665.23 l 1,68,-1
940.288 1495.41 m 1,72,-1
 1024 1495.41 l 1,73,-1
 1024 1409.52 l 1,74,-1
 940.288 1409.52 l 1,75,-1
 940.288 1495.41 l 1,72,-1
598.544 1495.41 m 1,76,-1
 683.486 1495.41 l 1,77,-1
 683.486 1409.52 l 1,78,-1
 598.544 1409.52 l 1,79,-1
 598.544 1495.41 l 1,76,-1
769.416 1495.41 m 1,80,-1
 855.346 1495.41 l 1,81,-1
 855.346 1409.52 l 1,82,-1
 769.416 1409.52 l 1,83,-1
 769.416 1495.41 l 1,80,-1
427.672 1495.41 m 1,84,-1
 513.602 1495.41 l 1,85,-1
 513.602 1409.52 l 1,86,-1
 427.672 1409.52 l 1,87,-1
 427.672 1495.41 l 1,84,-1
84.9404 1495.41 m 1,88,-1
 170.87 1495.41 l 1,89,-1
 170.87 1409.52 l 1,90,-1
 84.9404 1409.52 l 1,91,-1
 84.9404 1495.41 l 1,88,-1
256.8 1495.41 m 1,92,-1
 341.742 1495.41 l 1,93,-1
 341.742 1409.52 l 1,94,-1
 256.8 1409.52 l 1,95,-1
 256.8 1495.41 l 1,92,-1
855.346 1324.61 m 1,96,-1
 940.288 1324.61 l 1,97,-1
 940.288 1239.7 l 1,98,-1
 855.346 1239.7 l 1,99,-1
 855.346 1324.61 l 1,96,-1
513.602 1324.61 m 1,100,-1
 598.544 1324.61 l 1,101,-1
 598.544 1239.7 l 1,102,-1
 513.602 1239.7 l 1,103,-1
 513.602 1324.61 l 1,100,-1
683.486 1324.61 m 1,104,-1
 769.416 1324.61 l 1,105,-1
 769.416 1239.7 l 1,106,-1
 683.486 1239.7 l 1,107,-1
 683.486 1324.61 l 1,104,-1
341.742 1324.61 m 1,108,-1
 427.672 1324.61 l 1,109,-1
 427.672 1239.7 l 1,110,-1
 341.742 1239.7 l 1,111,-1
 341.742 1324.61 l 1,108,-1
-0.00195312 1324.61 m 1,112,-1
 84.9404 1324.61 l 1,113,-1
 84.9404 1239.7 l 1,114,-1
 -0.00195312 1239.7 l 1,115,-1
 -0.00195312 1324.61 l 1,112,-1
170.87 1324.61 m 1,116,-1
 256.8 1324.61 l 1,117,-1
 256.8 1239.7 l 1,118,-1
 170.87 1239.7 l 1,119,-1
 170.87 1324.61 l 1,116,-1
940.288 1153.81 m 1,120,-1
 1024 1153.81 l 1,121,-1
 1024 1068.9 l 1,122,-1
 940.288 1068.9 l 1,123,-1
 940.288 1153.81 l 1,120,-1
598.544 1153.81 m 1,124,-1
 683.486 1153.81 l 1,125,-1
 683.486 1068.9 l 1,126,-1
 598.544 1068.9 l 1,127,-1
 598.544 1153.81 l 1,124,-1
769.416 1153.81 m 1,128,-1
 855.346 1153.81 l 1,129,-1
 855.346 1068.9 l 1,130,-1
 769.416 1068.9 l 1,131,-1
 769.416 1153.81 l 1,128,-1
427.672 1153.81 m 1,132,-1
 513.602 1153.81 l 1,133,-1
 513.602 1068.9 l 1,134,-1
 427.672 1068.9 l 1,135,-1
 427.672 1153.81 l 1,132,-1
84.9404 1153.81 m 1,136,-1
 170.87 1153.81 l 1,137,-1
 170.87 1068.9 l 1,138,-1
 84.9404 1068.9 l 1,139,-1
 84.9404 1153.81 l 1,136,-1
256.8 1153.81 m 1,140,-1
 341.742 1153.81 l 1,141,-1
 341.742 1068.9 l 1,142,-1
 256.8 1068.9 l 1,143,-1
 256.8 1153.81 l 1,140,-1
855.346 983.984 m 1,144,-1
 940.288 983.984 l 1,145,-1
 940.288 899.072 l 1,146,-1
 855.346 899.072 l 1,147,-1
 855.346 983.984 l 1,144,-1
513.602 983.984 m 1,148,-1
 598.544 983.984 l 1,149,-1
 598.544 899.072 l 1,150,-1
 513.602 899.072 l 1,151,-1
 513.602 983.984 l 1,148,-1
683.486 983.984 m 1,152,-1
 769.416 983.984 l 1,153,-1
 769.416 899.072 l 1,154,-1
 683.486 899.072 l 1,155,-1
 683.486 983.984 l 1,152,-1
341.742 983.984 m 1,156,-1
 427.672 983.984 l 1,157,-1
 427.672 899.072 l 1,158,-1
 341.742 899.072 l 1,159,-1
 341.742 983.984 l 1,156,-1
-0.00195312 983.984 m 1,160,-1
 84.9404 983.984 l 1,161,-1
 84.9404 899.072 l 1,162,-1
 -0.00195312 899.072 l 1,163,-1
 -0.00195312 983.984 l 1,160,-1
170.87 983.984 m 1,164,-1
 256.8 983.984 l 1,165,-1
 256.8 899.072 l 1,166,-1
 170.87 899.072 l 1,167,-1
 170.87 983.984 l 1,164,-1
940.288 813.184 m 1,168,-1
 1024 813.184 l 1,169,-1
 1024 728.271 l 1,170,-1
 940.288 728.271 l 1,171,-1
 940.288 813.184 l 1,168,-1
598.544 813.184 m 1,172,-1
 683.486 813.184 l 1,173,-1
 683.486 728.271 l 1,174,-1
 598.544 728.271 l 1,175,-1
 598.544 813.184 l 1,172,-1
769.416 813.184 m 1,176,-1
 855.346 813.184 l 1,177,-1
 855.346 728.271 l 1,178,-1
 769.416 728.271 l 1,179,-1
 769.416 813.184 l 1,176,-1
427.672 813.184 m 1,180,-1
 513.602 813.184 l 1,181,-1
 513.602 728.271 l 1,182,-1
 427.672 728.271 l 1,183,-1
 427.672 813.184 l 1,180,-1
84.9404 813.184 m 1,184,-1
 170.87 813.184 l 1,185,-1
 170.87 728.271 l 1,186,-1
 84.9404 728.271 l 1,187,-1
 84.9404 813.184 l 1,184,-1
256.8 813.184 m 1,188,-1
 341.742 813.184 l 1,189,-1
 341.742 728.271 l 1,190,-1
 256.8 728.271 l 1,191,-1
 256.8 813.184 l 1,188,-1
855.346 643.36 m 1,192,-1
 940.288 643.36 l 1,193,-1
 940.288 557.472 l 1,194,-1
 855.346 557.472 l 1,195,-1
 855.346 643.36 l 1,192,-1
513.602 643.36 m 1,196,-1
 598.544 643.36 l 1,197,-1
 598.544 557.472 l 1,198,-1
 513.602 557.472 l 1,199,-1
 513.602 643.36 l 1,196,-1
683.486 643.36 m 1,200,-1
 769.416 643.36 l 1,201,-1
 769.416 557.472 l 1,202,-1
 683.486 557.472 l 1,203,-1
 683.486 643.36 l 1,200,-1
341.742 643.36 m 1,204,-1
 427.672 643.36 l 1,205,-1
 427.672 557.472 l 1,206,-1
 341.742 557.472 l 1,207,-1
 341.742 643.36 l 1,204,-1
-0.00195312 643.36 m 1,208,-1
 84.9404 643.36 l 1,209,-1
 84.9404 557.472 l 1,210,-1
 -0.00195312 557.472 l 1,211,-1
 -0.00195312 643.36 l 1,208,-1
170.87 643.36 m 1,212,-1
 256.8 643.36 l 1,213,-1
 256.8 557.472 l 1,214,-1
 170.87 557.472 l 1,215,-1
 170.87 643.36 l 1,212,-1
940.288 472.56 m 1,216,-1
 1024 472.56 l 1,217,-1
 1024 387.648 l 1,218,-1
 940.288 387.648 l 1,219,-1
 940.288 472.56 l 1,216,-1
598.544 472.56 m 1,220,-1
 683.486 472.56 l 1,221,-1
 683.486 387.648 l 1,222,-1
 598.544 387.648 l 1,223,-1
 598.544 472.56 l 1,220,-1
769.416 472.56 m 1,224,-1
 855.346 472.56 l 1,225,-1
 855.346 387.648 l 1,226,-1
 769.416 387.648 l 1,227,-1
 769.416 472.56 l 1,224,-1
427.672 472.56 m 1,228,-1
 513.602 472.56 l 1,229,-1
 513.602 387.648 l 1,230,-1
 427.672 387.648 l 1,231,-1
 427.672 472.56 l 1,228,-1
84.9404 472.56 m 1,232,-1
 170.87 472.56 l 1,233,-1
 170.87 387.648 l 1,234,-1
 84.9404 387.648 l 1,235,-1
 84.9404 472.56 l 1,232,-1
256.8 472.56 m 1,236,-1
 341.742 472.56 l 1,237,-1
 341.742 387.648 l 1,238,-1
 256.8 387.648 l 1,239,-1
 256.8 472.56 l 1,236,-1
855.346 302.736 m 1,240,-1
 940.288 302.736 l 1,241,-1
 940.288 216.848 l 1,242,-1
 855.346 216.848 l 1,243,-1
 855.346 302.736 l 1,240,-1
513.602 302.736 m 1,244,-1
 598.544 302.736 l 1,245,-1
 598.544 216.848 l 1,246,-1
 513.602 216.848 l 1,247,-1
 513.602 302.736 l 1,244,-1
683.486 302.736 m 1,248,-1
 769.416 302.736 l 1,249,-1
 769.416 216.848 l 1,250,-1
 683.486 216.848 l 1,251,-1
 683.486 302.736 l 1,248,-1
341.742 302.736 m 1,252,-1
 427.672 302.736 l 1,253,-1
 427.672 216.848 l 1,254,-1
 341.742 216.848 l 1,255,-1
 341.742 302.736 l 1,252,-1
-0.00195312 302.736 m 1,256,-1
 84.9404 302.736 l 1,257,-1
 84.9404 216.848 l 1,258,-1
 -0.00195312 216.848 l 1,259,-1
 -0.00195312 302.736 l 1,256,-1
170.87 302.736 m 1,260,-1
 256.8 302.736 l 1,261,-1
 256.8 216.848 l 1,262,-1
 170.87 216.848 l 1,263,-1
 170.87 302.736 l 1,260,-1
940.288 131.936 m 1,264,-1
 1024 131.936 l 1,265,-1
 1024 42.1436 l 1,266,-1
 940.288 42.1436 l 1,267,-1
 940.288 131.936 l 1,264,-1
598.544 131.936 m 1,268,-1
 683.486 131.936 l 1,269,-1
 683.486 42.1436 l 1,270,-1
 598.544 42.1436 l 1,271,-1
 598.544 131.936 l 1,268,-1
769.416 131.936 m 1,272,-1
 855.346 131.936 l 1,273,-1
 855.346 42.1436 l 1,274,-1
 769.416 42.1436 l 1,275,-1
 769.416 131.936 l 1,272,-1
427.672 131.936 m 1,276,-1
 513.602 131.936 l 1,277,-1
 513.602 42.1436 l 1,278,-1
 427.672 42.1436 l 1,279,-1
 427.672 131.936 l 1,276,-1
84.9404 131.936 m 1,280,-1
 170.87 131.936 l 1,281,-1
 170.87 42.1436 l 1,282,-1
 84.9404 42.1436 l 1,283,-1
 84.9404 131.936 l 1,280,-1
256.8 131.936 m 1,284,-1
 341.742 131.936 l 1,285,-1
 341.742 42.1436 l 1,286,-1
 256.8 42.1436 l 1,287,-1
 256.8 131.936 l 1,284,-1
EndSplineSet
EndChar

StartChar: dkshade
Encoding: 9619 9619 228
Width: 1024
VWidth: 1747
Flags: W
LayerCount: 2
Fore
SplineSet
0 84 m 1,0,-1
 0 2048 l 1,1,-1
 1024 2048 l 5,2,-1
 1024 1968 l 5,3,-1
 941 1968 l 1,4,-1
 941 1889 l 1,5,-1
 1024 1889 l 5,6,-1
 1024 1811 l 5,7,-1
 941 1811 l 1,8,-1
 941 1732 l 1,9,-1
 1024 1732 l 5,10,-1
 1024 1654 l 5,11,-1
 941 1654 l 1,12,-1
 941 1575 l 1,13,-1
 1024 1575 l 5,14,-1
 1024 1497 l 5,15,-1
 941 1497 l 1,16,-1
 941 1418 l 1,17,-1
 1024 1418 l 5,18,-1
 1024 1340 l 5,19,-1
 941 1340 l 1,20,-1
 941 1261 l 1,21,-1
 1024 1261 l 5,22,-1
 1024 1183 l 5,23,-1
 941 1183 l 1,24,-1
 941 1104 l 1,25,-1
 1024 1104 l 5,26,-1
 1024 1026 l 5,27,-1
 941 1026 l 1,28,-1
 941 947 l 1,29,-1
 1024 947 l 5,30,-1
 1024 869 l 5,31,-1
 941 869 l 1,32,-1
 941 790 l 1,33,-1
 1024 790 l 5,34,-1
 1024 712 l 5,35,-1
 941 712 l 1,36,-1
 941 633 l 1,37,-1
 1024 633 l 5,38,-1
 1024 555 l 5,39,-1
 941 555 l 1,40,-1
 941 476 l 1,41,-1
 1024 476 l 5,42,-1
 1024 398 l 5,43,-1
 941 398 l 1,44,-1
 941 319 l 1,45,-1
 1024 319 l 5,46,-1
 1024 241 l 5,47,-1
 941 241 l 1,48,-1
 941 162 l 1,49,-1
 1024 162 l 5,50,-1
 1024 84 l 5,51,-1
 941 84 l 1,52,-1
 941 0 l 1,53,-1
 856 0 l 1,54,-1
 856 84 l 1,55,-1
 771 84 l 1,56,-1
 771 0 l 1,57,-1
 685 0 l 1,58,-1
 685 84 l 1,59,-1
 598 84 l 1,60,-1
 598 0 l 1,61,-1
 513 0 l 1,62,-1
 513 84 l 1,63,-1
 428 84 l 1,64,-1
 428 0 l 1,65,-1
 341 0 l 1,66,-1
 341 84 l 1,67,-1
 256 84 l 1,68,-1
 256 0 l 1,69,-1
 170 0 l 1,70,-1
 170 84 l 1,71,-1
 84 84 l 1,72,-1
 84 0 l 1,73,-1
 0 0 l 1,74,-1
 0 84 l 1,0,-1
771 1811 m 1,75,-1
 771 1732 l 1,76,-1
 856 1732 l 1,77,-1
 856 1811 l 1,78,-1
 771 1811 l 1,75,-1
771 1889 m 1,79,-1
 856 1889 l 1,80,-1
 856 1968 l 1,81,-1
 771 1968 l 1,82,-1
 771 1889 l 1,79,-1
598 1811 m 1,83,-1
 598 1732 l 1,84,-1
 685 1732 l 1,85,-1
 685 1811 l 1,86,-1
 598 1811 l 1,83,-1
771 1183 m 1,87,-1
 771 1104 l 1,88,-1
 856 1104 l 1,89,-1
 856 1183 l 1,90,-1
 771 1183 l 1,87,-1
428 1183 m 1,91,-1
 428 1104 l 1,92,-1
 513 1104 l 1,93,-1
 513 1183 l 1,94,-1
 428 1183 l 1,91,-1
84 1183 m 1,95,-1
 84 1104 l 1,96,-1
 170 1104 l 1,97,-1
 170 1183 l 1,98,-1
 84 1183 l 1,95,-1
598 1889 m 1,99,-1
 685 1889 l 1,100,-1
 685 1968 l 1,101,-1
 598 1968 l 1,102,-1
 598 1889 l 1,99,-1
256 1497 m 1,103,-1
 256 1418 l 1,104,-1
 341 1418 l 1,105,-1
 341 1497 l 1,106,-1
 256 1497 l 1,103,-1
256 1811 m 1,107,-1
 256 1732 l 1,108,-1
 341 1732 l 1,109,-1
 341 1811 l 1,110,-1
 256 1811 l 1,107,-1
256 1575 m 1,111,-1
 341 1575 l 1,112,-1
 341 1654 l 1,113,-1
 256 1654 l 1,114,-1
 256 1575 l 1,111,-1
256 947 m 1,115,-1
 341 947 l 1,116,-1
 341 1026 l 1,117,-1
 256 1026 l 1,118,-1
 256 947 l 1,115,-1
598 633 m 1,119,-1
 685 633 l 1,120,-1
 685 712 l 1,121,-1
 598 712 l 1,122,-1
 598 633 l 1,119,-1
428 633 m 1,123,-1
 513 633 l 1,124,-1
 513 712 l 1,125,-1
 428 712 l 1,126,-1
 428 633 l 1,123,-1
256 633 m 1,127,-1
 341 633 l 1,128,-1
 341 712 l 1,129,-1
 256 712 l 1,130,-1
 256 633 l 1,127,-1
598 1261 m 1,131,-1
 685 1261 l 1,132,-1
 685 1340 l 1,133,-1
 598 1340 l 1,134,-1
 598 1261 l 1,131,-1
598 1183 m 1,135,-1
 598 1104 l 1,136,-1
 685 1104 l 1,137,-1
 685 1183 l 1,138,-1
 598 1183 l 1,135,-1
771 1261 m 1,139,-1
 856 1261 l 1,140,-1
 856 1340 l 1,141,-1
 771 1340 l 1,142,-1
 771 1261 l 1,139,-1
598 319 m 1,143,-1
 685 319 l 1,144,-1
 685 398 l 1,145,-1
 598 398 l 1,146,-1
 598 319 l 1,143,-1
428 1261 m 1,147,-1
 513 1261 l 1,148,-1
 513 1340 l 1,149,-1
 428 1340 l 1,150,-1
 428 1261 l 1,147,-1
428 319 m 1,151,-1
 513 319 l 1,152,-1
 513 398 l 1,153,-1
 428 398 l 1,154,-1
 428 319 l 1,151,-1
84 1261 m 1,155,-1
 170 1261 l 1,156,-1
 170 1340 l 1,157,-1
 84 1340 l 1,158,-1
 84 1261 l 1,155,-1
256 319 m 1,159,-1
 341 319 l 1,160,-1
 341 398 l 1,161,-1
 256 398 l 1,162,-1
 256 319 l 1,159,-1
256 1261 m 1,163,-1
 341 1261 l 1,164,-1
 341 1340 l 1,165,-1
 256 1340 l 1,166,-1
 256 1261 l 1,163,-1
256 1183 m 1,167,-1
 256 1104 l 1,168,-1
 341 1104 l 1,169,-1
 341 1183 l 1,170,-1
 256 1183 l 1,167,-1
84 1497 m 1,171,-1
 84 1418 l 1,172,-1
 170 1418 l 1,173,-1
 170 1497 l 1,174,-1
 84 1497 l 1,171,-1
256 1889 m 1,175,-1
 341 1889 l 1,176,-1
 341 1968 l 1,177,-1
 256 1968 l 1,178,-1
 256 1889 l 1,175,-1
84 1575 m 1,179,-1
 170 1575 l 1,180,-1
 170 1654 l 1,181,-1
 84 1654 l 1,182,-1
 84 1575 l 1,179,-1
428 1497 m 1,183,-1
 428 1418 l 1,184,-1
 513 1418 l 1,185,-1
 513 1497 l 1,186,-1
 428 1497 l 1,183,-1
84 1811 m 1,187,-1
 84 1732 l 1,188,-1
 170 1732 l 1,189,-1
 170 1811 l 1,190,-1
 84 1811 l 1,187,-1
771 947 m 1,191,-1
 856 947 l 1,192,-1
 856 1026 l 1,193,-1
 771 1026 l 1,194,-1
 771 947 l 1,191,-1
428 1575 m 1,195,-1
 513 1575 l 1,196,-1
 513 1654 l 1,197,-1
 428 1654 l 1,198,-1
 428 1575 l 1,195,-1
598 869 m 1,199,-1
 598 790 l 1,200,-1
 685 790 l 1,201,-1
 685 869 l 1,202,-1
 598 869 l 1,199,-1
598 947 m 1,203,-1
 685 947 l 1,204,-1
 685 1026 l 1,205,-1
 598 1026 l 1,206,-1
 598 947 l 1,203,-1
771 1497 m 1,207,-1
 771 1418 l 1,208,-1
 856 1418 l 1,209,-1
 856 1497 l 1,210,-1
 771 1497 l 1,207,-1
771 869 m 1,211,-1
 771 790 l 1,212,-1
 856 790 l 1,213,-1
 856 869 l 1,214,-1
 771 869 l 1,211,-1
428 947 m 1,215,-1
 513 947 l 1,216,-1
 513 1026 l 1,217,-1
 428 1026 l 1,218,-1
 428 947 l 1,215,-1
428 869 m 1,219,-1
 428 790 l 1,220,-1
 513 790 l 1,221,-1
 513 869 l 1,222,-1
 428 869 l 1,219,-1
84 947 m 1,223,-1
 170 947 l 1,224,-1
 170 1026 l 1,225,-1
 84 1026 l 1,226,-1
 84 947 l 1,223,-1
84 869 m 1,227,-1
 84 790 l 1,228,-1
 170 790 l 1,229,-1
 170 869 l 1,230,-1
 84 869 l 1,227,-1
84 1889 m 1,231,-1
 170 1889 l 1,232,-1
 170 1968 l 1,233,-1
 84 1968 l 1,234,-1
 84 1889 l 1,231,-1
256 869 m 1,235,-1
 256 790 l 1,236,-1
 341 790 l 1,237,-1
 341 869 l 1,238,-1
 256 869 l 1,235,-1
771 1575 m 1,239,-1
 856 1575 l 1,240,-1
 856 1654 l 1,241,-1
 771 1654 l 1,242,-1
 771 1575 l 1,239,-1
598 1497 m 1,243,-1
 598 1418 l 1,244,-1
 685 1418 l 1,245,-1
 685 1497 l 1,246,-1
 598 1497 l 1,243,-1
598 555 m 1,247,-1
 598 476 l 1,248,-1
 685 476 l 1,249,-1
 685 555 l 1,250,-1
 598 555 l 1,247,-1
771 633 m 1,251,-1
 856 633 l 1,252,-1
 856 712 l 1,253,-1
 771 712 l 1,254,-1
 771 633 l 1,251,-1
771 555 m 1,255,-1
 771 476 l 1,256,-1
 856 476 l 1,257,-1
 856 555 l 1,258,-1
 771 555 l 1,255,-1
428 1811 m 1,259,-1
 428 1732 l 1,260,-1
 513 1732 l 1,261,-1
 513 1811 l 1,262,-1
 428 1811 l 1,259,-1
428 555 m 1,263,-1
 428 476 l 1,264,-1
 513 476 l 1,265,-1
 513 555 l 1,266,-1
 428 555 l 1,263,-1
84 633 m 1,267,-1
 170 633 l 1,268,-1
 170 712 l 1,269,-1
 84 712 l 1,270,-1
 84 633 l 1,267,-1
84 555 m 1,271,-1
 84 476 l 1,272,-1
 170 476 l 1,273,-1
 170 555 l 1,274,-1
 84 555 l 1,271,-1
256 555 m 1,275,-1
 256 476 l 1,276,-1
 341 476 l 1,277,-1
 341 555 l 1,278,-1
 256 555 l 1,275,-1
598 1575 m 1,279,-1
 685 1575 l 1,280,-1
 685 1654 l 1,281,-1
 598 1654 l 1,282,-1
 598 1575 l 1,279,-1
598 241 m 1,283,-1
 598 162 l 1,284,-1
 685 162 l 1,285,-1
 685 241 l 1,286,-1
 598 241 l 1,283,-1
771 319 m 1,287,-1
 856 319 l 1,288,-1
 856 398 l 1,289,-1
 771 398 l 1,290,-1
 771 319 l 1,287,-1
771 241 m 1,291,-1
 771 162 l 1,292,-1
 856 162 l 1,293,-1
 856 241 l 1,294,-1
 771 241 l 1,291,-1
428 241 m 1,295,-1
 428 162 l 1,296,-1
 513 162 l 1,297,-1
 513 241 l 1,298,-1
 428 241 l 1,295,-1
84 319 m 1,299,-1
 170 319 l 1,300,-1
 170 398 l 1,301,-1
 84 398 l 1,302,-1
 84 319 l 1,299,-1
84 241 m 1,303,-1
 84 162 l 1,304,-1
 170 162 l 1,305,-1
 170 241 l 1,306,-1
 84 241 l 1,303,-1
256 241 m 1,307,-1
 256 162 l 1,308,-1
 341 162 l 1,309,-1
 341 241 l 1,310,-1
 256 241 l 1,307,-1
428 1889 m 1,311,-1
 513 1889 l 1,312,-1
 513 1968 l 1,313,-1
 428 1968 l 1,314,-1
 428 1889 l 1,311,-1
EndSplineSet
EndChar

StartChar: blackrectangle
Encoding: 9644 9644 229
Width: 1024
VWidth: 1747
Flags: W
LayerCount: 2
Fore
SplineSet
896 640 m 1,0,-1
 128 640 l 1,1,-1
 128 1113 l 5,2,-1
 896 1113 l 5,3,-1
 896 640 l 1,0,-1
EndSplineSet
EndChar

StartChar: blackuppointingtriangle
Encoding: 9650 9650 230
Width: 1024
VWidth: 1747
Flags: W
LayerCount: 2
Fore
SplineSet
32 524 m 1,0,-1
 512.5 1548 l 5,1,-1
 992 524 l 1,2,-1
 32 524 l 1,0,-1
EndSplineSet
EndChar

StartChar: blackrightpointingpointer
Encoding: 9658 9658 231
Width: 1024
VWidth: 1747
Flags: W
LayerCount: 2
Fore
SplineSet
99 600.275 m 1,0,-1
 99 1446.52 l 1,1,-1
 925 1024.03 l 5,2,-1
 99 600.275 l 1,0,-1
EndSplineSet
EndChar

StartChar: blackdownpointingtriangle
Encoding: 9660 9660 232
Width: 1024
VWidth: 1747
Flags: W
LayerCount: 2
Fore
SplineSet
512 455 m 1,0,-1
 32 1479 l 1,1,-1
 992 1479 l 1,2,-1
 512 455 l 1,0,-1
EndSplineSet
EndChar

StartChar: blackleftpointingpointer
Encoding: 9668 9668 233
Width: 1024
VWidth: 1747
Flags: W
LayerCount: 2
Fore
SplineSet
99 1024.03 m 5,0,-1
 925 1446.52 l 5,1,-1
 925 600.275 l 5,2,-1
 99 1024.03 l 5,0,-1
EndSplineSet
EndChar

StartChar: circle
Encoding: 9675 9675 234
Width: 1024
VWidth: 1747
Flags: W
LayerCount: 2
Fore
SplineSet
512.5 1371 m 0,0,1
 572.5 1371 572.5 1371 630.5 1342 c 128,-1,2
 688.5 1313 688.5 1313 734.5 1267 c 0,3,4
 835.5 1164 835.5 1164 835.5 1024 c 128,-1,5
 835.5 884 835.5 884 734.5 779 c 0,6,7
 636.5 678 636.5 678 512.5 679 c 0,8,9
 386.5 679 386.5 679 289.5 779 c 0,10,11
 188.5 883 188.5 883 188.5 1024 c 4,12,13
 188.5 1164 188.5 1164 289.5 1267 c 0,14,15
 390.5 1371 390.5 1371 512.5 1371 c 0,0,1
511.5 1221 m 256,16,17
 443.5 1221 443.5 1221 388 1165 c 128,-1,18
 332.5 1109 332.5 1109 332.5 1030 c 128,-1,19
 332.5 951 332.5 951 388.5 894 c 0,20,21
 443.5 839 443.5 839 511.5 839 c 256,22,23
 579.5 839 579.5 839 633.5 894 c 0,24,25
 690.5 951 690.5 951 690.5 1030 c 0,26,27
 690.5 1108 690.5 1108 633.5 1165 c 0,28,29
 579.5 1221 579.5 1221 511.5 1221 c 256,16,17
EndSplineSet
EndChar

StartChar: bulletinverse
Encoding: 9688 9688 235
Width: 1024
VWidth: 1747
Flags: W
LayerCount: 2
Fore
SplineSet
343.5 1256 m 128,-1,1
 275 1183 275 1183 275 1076 c 128,-1,2
 275 969 275 969 343.5 896 c 128,-1,3
 412 823 412 823 511 823 c 128,-1,4
 610 823 610 823 680 897 c 128,-1,5
 750 971 750 971 750 1076.5 c 128,-1,6
 750 1182 750 1182 680.5 1255.5 c 128,-1,7
 611 1329 611 1329 511.5 1329 c 128,-1,0
 412 1329 412 1329 343.5 1256 c 128,-1,1
0 0 m 1,8,-1
 0 2048 l 1,9,-1
 1024 2048 l 1,10,-1
 1024 0 l 1,11,-1
 0 0 l 1,8,-1
EndSplineSet
EndChar

StartChar: invcircle
Encoding: 9689 9689 236
Width: 1024
VWidth: 1747
Flags: W
LayerCount: 2
Fore
SplineSet
0 0 m 1,0,-1
 0 2048 l 1,1,-1
 1024 2048 l 5,2,-1
 1024 0 l 5,3,-1
 0 0 l 1,0,-1
526 1376 m 0,4,5
 465 1376 465 1376 407 1348.5 c 128,-1,6
 349 1321 349 1321 303 1275 c 0,7,8
 202 1172 202 1172 203 1032 c 0,9,10
 203 891 203 891 303 787 c 0,11,12
 401 686 401 686 526 686 c 0,13,14
 650 686 650 686 748 787 c 0,15,16
 849 892 849 892 850 1032 c 0,17,18
 850 1171 850 1171 748 1275 c 0,19,20
 648 1376 648 1376 526 1376 c 0,4,5
526 1229 m 256,21,22
 594 1229 594 1229 648 1172 c 0,23,24
 705 1115 705 1115 705 1038 c 0,25,26
 705 959 705 959 648 902 c 0,27,28
 594 847 594 847 526 847 c 256,29,30
 458 847 458 847 401 902 c 0,31,32
 346 958 346 958 346 1038 c 0,33,34
 346 1117 346 1117 402 1173 c 128,-1,35
 458 1229 458 1229 526 1229 c 256,21,22
EndSplineSet
EndChar

StartChar: smileface
Encoding: 9786 9786 237
Width: 1024
VWidth: 1747
Flags: W
LayerCount: 2
Fore
SplineSet
843 695 m 1,0,1
 706 550 706 550 512.5 550 c 128,-1,2
 319 550 319 550 182 695.5 c 128,-1,3
 45 841 45 841 45 1047.5 c 128,-1,4
 45 1254 45 1254 182 1400 c 128,-1,5
 319 1546 319 1546 512.5 1546 c 128,-1,6
 706 1546 706 1546 842.5 1400 c 128,-1,7
 979 1254 979 1254 979 1047.5 c 128,-1,8
 979 841 979 841 843 695 c 1,0,1
775.5 1329 m 128,-1,10
 666 1445 666 1445 512 1445 c 128,-1,11
 358 1445 358 1445 249 1329 c 128,-1,12
 140 1213 140 1213 140 1048 c 128,-1,13
 140 883 140 883 249 766 c 128,-1,14
 358 649 358 649 512 649 c 128,-1,15
 666 649 666 649 775.5 766 c 128,-1,16
 885 883 885 883 885 1048 c 128,-1,9
 885 1213 885 1213 775.5 1329 c 128,-1,10
512 877 m 0,17,18
 645 877 645 877 693 1044 c 1,19,-1
 736 1044 l 1,20,21
 736 800 736 800 509 800 c 0,22,23
 290 800 290 800 290 1043 c 1,24,-1
 331 1043 l 1,25,26
 396 877 396 877 512 877 c 0,17,18
668 1283 m 0,27,28
 737 1283 737 1283 737 1202.5 c 128,-1,29
 737 1122 737 1122 664.5 1122 c 128,-1,30
 592 1122 592 1122 592 1202.5 c 128,-1,31
 592 1283 592 1283 668 1283 c 0,27,28
361 1122 m 0,32,33
 290 1122 290 1122 290 1202.5 c 128,-1,34
 290 1283 290 1283 367 1283 c 0,35,36
 436 1283 436 1283 436 1202.5 c 128,-1,37
 436 1122 436 1122 361 1122 c 0,32,33
EndSplineSet
EndChar

StartChar: blacksmilingface
Encoding: 9787 9787 238
Width: 1024
VWidth: 1747
Flags: W
LayerCount: 2
Fore
SplineSet
843 695 m 1,0,1
 706 550 706 550 512.5 550 c 132,-1,2
 319 550 319 550 182 695.5 c 128,-1,3
 45 841 45 841 45 1047.5 c 128,-1,4
 45 1254 45 1254 182 1400 c 128,-1,5
 319 1546 319 1546 512.5 1546 c 128,-1,6
 706 1546 706 1546 842.5 1400 c 128,-1,7
 979 1254 979 1254 979 1047.5 c 128,-1,8
 979 841 979 841 843 695 c 1,0,1
292 1043 m 1,9,-1
 242 1043 l 1,10,11
 242 749 242 749 508 748 c 0,12,13
 782 748 782 748 782 1044 c 1,14,-1
 731 1044 l 1,15,16
 671 843 671 843 512 843 c 0,17,18
 370 843 370 843 292 1043 c 1,9,-1
784 1235.5 m 128,-1,20
 784 1334 784 1334 700 1334 c 0,21,22
 607 1334 607 1334 607 1233 c 0,23,24
 607 1137 607 1137 693 1137 c 0,25,19
 784 1137 784 1137 784 1235.5 c 128,-1,20
336 1334 m 0,26,27
 244 1334 244 1334 244 1235.5 c 128,-1,28
 244 1137 244 1137 332 1137 c 128,-1,29
 420 1137 420 1137 420 1235.5 c 128,-1,30
 420 1334 420 1334 336 1334 c 0,26,27
EndSplineSet
EndChar

StartChar: female
Encoding: 9792 9792 239
Width: 1024
VWidth: 1747
Flags: W
LayerCount: 2
Fore
SplineSet
329.251 966 m 128,-1,1
 405.251 890 405.251 890 512.251 890 c 128,-1,2
 619.251 890 619.251 890 695.751 966 c 128,-1,3
 772.251 1042 772.251 1042 772.251 1156.5 c 128,-1,4
 772.251 1271 772.251 1271 695.751 1351 c 128,-1,5
 619.251 1431 619.251 1431 512.251 1431 c 128,-1,6
 405.251 1431 405.251 1431 329.251 1351 c 128,-1,7
 253.251 1271 253.251 1271 253.251 1156.5 c 128,-1,0
 253.251 1042 253.251 1042 329.251 966 c 128,-1,1
246.251 877 m 0,8,9
 134.251 1002 134.251 1002 134.751 1162 c 128,-1,10
 135.251 1322 135.251 1322 245.751 1438.5 c 128,-1,11
 356.251 1555 356.251 1555 512.751 1555 c 128,-1,12
 669.251 1555 669.251 1555 779.251 1438.5 c 128,-1,13
 889.251 1322 889.251 1322 889.251 1154.5 c 128,-1,14
 889.251 987 889.251 987 780.251 877 c 1,15,16
 690.251 788 690.251 788 572.251 776 c 1,17,-1
 572.251 591 l 1,18,-1
 750.251 591 l 1,19,-1
 750.251 503 l 1,20,-1
 568.251 503 l 1,21,-1
 568.251 323 l 1,22,-1
 460.251 323 l 1,23,-1
 460.251 503 l 1,24,-1
 293.251 503 l 1,25,-1
 293.251 591 l 1,26,-1
 459.251 591 l 1,27,-1
 459.251 776 l 1,28,29
 336.251 775 336.251 775 246.251 877 c 0,8,9
EndSplineSet
EndChar

StartChar: male
Encoding: 9794 9794 240
Width: 1024
VWidth: 1747
Flags: W
LayerCount: 2
Fore
SplineSet
557.5 1095 m 1,0,1
 485.5 1175 485.5 1175 387.5 1175 c 128,-1,2
 289.5 1175 289.5 1175 217.5 1103 c 1,3,4
 145.5 1025 145.5 1025 145.5 917 c 128,-1,5
 145.5 809 145.5 809 217.5 731 c 1,6,7
 290.5 655 290.5 655 391.5 655 c 128,-1,8
 492.5 655 492.5 655 566.5 731 c 1,9,10
 634.5 809 634.5 809 634 914 c 128,-1,11
 633.5 1019 633.5 1019 557.5 1095 c 1,0,1
643.5 650 m 1,12,13
 542.5 542 542.5 542 387.5 542 c 0,14,15
 73.5 542 73.5 542 37.5 916 c 1,16,-1
 35.5 919 l 1,17,18
 35.5 1081 35.5 1081 140 1185.5 c 128,-1,19
 244.5 1290 244.5 1290 384 1290 c 128,-1,20
 523.5 1290 523.5 1290 598.5 1216 c 1,21,-1
 824.5 1450 l 1,22,-1
 592.5 1450 l 1,23,-1
 679.5 1543 l 1,24,-1
 988.5 1543 l 1,25,-1
 988.5 1215 l 1,26,-1
 899.5 1120 l 1,27,-1
 899.5 1368 l 1,28,-1
 673.5 1135 l 1,29,30
 741.5 1063 741.5 1063 741.5 911.5 c 128,-1,31
 741.5 760 741.5 760 643.5 650 c 1,12,13
EndSplineSet
EndChar

StartChar: spade
Encoding: 9824 9824 241
Width: 1024
VWidth: 1747
Flags: W
LayerCount: 2
Fore
SplineSet
514 1569 m 1,0,1
 576 1452 576 1452 718 1259 c 1,2,3
 874 1064 874 1064 878 1024 c 1,4,5
 903 964 903 964 903 908 c 2,6,-1
 903 880 l 2,7,8
 903 763 903 763 796 695 c 1,9,10
 760 680 760 680 720 680 c 0,11,12
 619 680 619 680 556 835 c 1,13,-1
 529 835 l 1,14,-1
 529 827 l 2,15,16
 529 628 529 628 584 523 c 1,17,-1
 442 523 l 1,18,-1
 442 527 l 1,19,20
 498 633 498 633 497 833 c 1,21,-1
 496 835 l 1,22,-1
 470 835 l 1,23,-1
 440 773 l 1,24,25
 384 680 384 680 300 680 c 0,26,27
 177 680 177 680 127 827 c 1,28,-1
 121 878 l 1,29,-1
 121 911 l 2,30,31
 121 1039 121 1039 245 1181 c 1,32,33
 451 1452 451 1452 510 1568 c 1,34,-1
 512 1569 l 1,35,-1
 514 1569 l 1,0,1
EndSplineSet
EndChar

StartChar: club
Encoding: 9827 9827 242
Width: 1024
VWidth: 1747
Flags: W
LayerCount: 2
Fore
SplineSet
513 1569 m 0,0,1
 654 1569 654 1569 720 1411 c 1,2,3
 730 1374 730 1374 731 1335 c 0,4,5
 731 1253 731 1253 652 1140 c 1,6,-1
 613 1098 l 1,7,-1
 614 1098 l 1,8,9
 663 1118 663 1118 719 1118 c 2,10,-1
 731 1118 l 2,11,12
 887 1118 887 1118 950 976 c 1,13,14
 965 930 965 930 965 887 c 0,15,16
 965 744 965 744 828 671 c 0,17,18
 803 658 803 658 755 658 c 0,19,20
 596 658 596 658 529 851 c 1,21,-1
 528 851 l 1,22,-1
 528 844 l 2,23,24
 528 603 528 603 582 527 c 1,25,-1
 582 523 l 1,26,-1
 445 523 l 1,27,-1
 441 527 l 1,28,29
 497 617 497 617 496 851 c 2,30,-1
 496 852 l 1,31,-1
 495 852 l 1,32,33
 429 657 429 657 267 658 c 0,34,35
 141 658 141 658 75 800 c 1,36,37
 59 848 59 848 59 887 c 0,38,39
 59 1051 59 1051 221 1109 c 1,40,41
 264 1118 264 1118 298 1118 c 2,42,-1
 304 1118 l 2,43,44
 360 1118 360 1118 411 1098 c 1,45,-1
 414 1098 l 1,46,-1
 414 1100 l 1,47,48
 359 1150 359 1150 339 1198 c 1,49,50
 300 1276 300 1276 300 1332 c 2,51,-1
 300 1342 l 2,52,53
 300 1483 300 1483 441 1556 c 1,54,55
 488 1569 488 1569 513 1569 c 0,0,1
EndSplineSet
EndChar

StartChar: heart
Encoding: 9829 9829 243
Width: 1024
VWidth: 1747
Flags: W
LayerCount: 2
Fore
SplineSet
271 1569 m 0,0,1
 405 1569 405 1569 480 1405 c 0,2,3
 510 1340 510 1340 510 1305 c 1,4,-1
 512 1305 l 1,5,6
 535 1418 535 1418 595 1493 c 1,7,8
 666 1569 666 1569 755 1569 c 0,9,10
 893 1569 893 1569 976 1412 c 1,11,12
 997 1354 997 1354 997 1303 c 0,13,14
 997 1127 997 1127 860 969 c 1,15,-1
 512 523 l 1,16,-1
 508 523 l 1,17,-1
 138 1006 l 2,18,19
 27 1150 27 1150 27 1300.5 c 128,-1,20
 27 1451 27 1451 159 1538 c 1,21,22
 214 1569 214 1569 271 1569 c 0,0,1
EndSplineSet
EndChar

StartChar: diamond
Encoding: 9830 9830 244
Width: 1024
VWidth: 1747
Flags: W
LayerCount: 2
Fore
SplineSet
512.989 1569 m 1,0,-1
 843.989 1111 l 1,1,2
 889.989 1052 889.989 1052 888.989 1043 c 1,3,-1
 512.989 523 l 1,4,5
 504.989 528 504.989 528 134.989 1043 c 1,6,7
 134.989 1052 134.989 1052 207.989 1149 c 1,8,-1
 512.989 1569 l 1,0,-1
EndSplineSet
EndChar

StartChar: musicalnote
Encoding: 9834 9834 245
Width: 1024
VWidth: 1747
Flags: W
LayerCount: 2
Fore
SplineSet
472 1647 m 1,0,-1
 538 1647 l 1,1,-1
 544 1642 l 1,2,-1
 544 1610 l 1,3,4
 564 1566 564 1566 694 1516 c 1,5,6
 876 1460 876 1460 876 1348 c 0,7,8
 876 1231 876 1231 784 1154 c 1,9,-1
 780 1154 l 1,10,-1
 758 1179 l 1,11,12
 804 1219 804 1219 804 1287 c 0,13,14
 804 1343 804 1343 632 1400 c 1,15,16
 563 1433 563 1433 544 1455 c 1,17,-1
 544 596 l 2,18,19
 544 473 544 473 374 438 c 1,20,-1
 332 438 l 2,21,22
 149 438 149 438 148 573 c 0,23,24
 148 679 148 679 309 696 c 1,25,-1
 327 696 l 2,26,27
 400 696 400 696 465 645 c 1,28,-1
 465 1642 l 1,29,-1
 472 1647 l 1,0,-1
EndSplineSet
EndChar

StartChar: eighthnotebeamed
Encoding: 9835 9835 246
Width: 1024
VWidth: 1747
Flags: W
LayerCount: 2
Fore
SplineSet
398 1643 m 1,0,-1
 919 1480 l 1,1,-1
 921 1476 l 1,2,-1
 921 431 l 2,3,4
 921 306 921 306 776 272 c 1,5,-1
 735 272 l 2,6,7
 574 272 574 272 574 404 c 2,8,-1
 574 410 l 2,9,10
 574 514 574 514 708 529 c 1,11,-1
 737 529 l 2,12,13
 802 529 802 529 864 482 c 1,14,-1
 864 1316 l 1,15,-1
 450 1452 l 1,16,-1
 450 597 l 2,17,18
 450 487 450 487 337 442 c 1,19,-1
 286 436 l 1,20,-1
 267 436 l 2,21,22
 105 436 105 436 103 561 c 2,23,-1
 103 567 l 2,24,25
 103 668 103 668 232 695 c 1,26,-1
 265 695 l 2,27,28
 333 695 333 695 392 641 c 1,29,-1
 392 1635 l 1,30,-1
 398 1643 l 1,0,-1
EndSplineSet
EndChar

StartChar: filledbox
Encoding: 9632 9632 248
Width: 1024
VWidth: 1747
Flags: W
LayerCount: 2
Fore
SplineSet
128 640 m 1,0,-1
 128 1408 l 5,1,-1
 896 1408 l 5,2,-1
 896 640 l 1,3,-1
 128 640 l 1,0,-1
EndSplineSet
EndChar

StartChar: uni2219
Encoding: 8729 8729 249
Width: 1024
VWidth: 1747
Flags: W
LayerCount: 2
Fore
SplineSet
511 1167 m 4,0,1
 539 1167 539 1167 563.5 1155.5 c 132,-1,2
 588 1144 588 1144 606 1125 c 4,3,4
 645 1083 645 1083 645 1024 c 260,5,6
 645 966 645 966 605.5 924 c 132,-1,7
 566 882 566 882 512 882 c 132,-1,8
 458 882 458 882 418.5 924 c 132,-1,9
 379 966 379 966 379 1024 c 260,10,11
 379 1084 379 1084 418.5 1125.5 c 132,-1,12
 458 1167 458 1167 511 1167 c 4,0,1
EndSplineSet
EndChar

StartChar: sun
Encoding: 9788 9788 250
Width: 1024
Flags: W
LayerCount: 2
Fore
SplineSet
512 820 m 256,0,1
 597 820 597 820 657 879.5 c 128,-1,2
 717 939 717 939 717 1025 c 256,3,4
 717 1109 717 1109 657 1169.5 c 128,-1,5
 597 1230 597 1230 512 1230 c 256,6,7
 429 1230 429 1230 368 1170 c 128,-1,8
 307 1110 307 1110 307 1025 c 256,9,10
 307 940 307 940 367.5 880 c 128,-1,11
 428 820 428 820 512 820 c 256,0,1
451 563 m 1,12,-1
 451 703 l 1,13,14
 384 718 384 718 328 754 c 1,15,-1
 229 656 l 1,16,-1
 143 742 l 1,17,-1
 241 840 l 1,18,19
 204 898 204 898 190 963 c 1,20,-1
 51 963 l 1,21,-1
 51 1086 l 1,22,-1
 190 1086 l 1,23,24
 204 1149 204 1149 241 1209 c 1,25,-1
 143 1307 l 1,26,-1
 229 1394 l 1,27,-1
 328 1295 l 1,28,29
 384 1331 384 1331 451 1347 c 1,30,-1
 451 1486 l 1,31,-1
 574 1486 l 1,32,-1
 574 1347 l 1,33,34
 641 1331 641 1331 697 1295 c 1,35,-1
 795 1394 l 1,36,-1
 882 1307 l 1,37,-1
 784 1209 l 1,38,39
 821 1149 821 1149 834 1086 c 1,40,-1
 973 1086 l 1,41,-1
 973 963 l 1,42,-1
 834 963 l 1,43,44
 820 898 820 898 784 840 c 1,45,-1
 882 742 l 1,46,-1
 795 656 l 1,47,-1
 696 754 l 1,48,49
 641 718 641 718 574 703 c 1,50,-1
 574 563 l 1,51,-1
 451 563 l 1,12,-1
EndSplineSet
EndChar

StartChar: onequarter
Encoding: 188 188 251
Width: 1024
Flags: W
LayerCount: 2
Fore
SplineSet
1004 1813 m 1,0,-1
 184 400 l 1,1,-1
 20 400 l 1,2,-1
 838 1813 l 1,3,-1
 1004 1813 l 1,0,-1
246 1244 m 1,4,-1
 246 1670 l 1,5,-1
 80 1580 l 1,6,-1
 25 1696 l 1,7,-1
 264 1825 l 1,8,-1
 403 1825 l 1,9,-1
 403 1244 l 1,10,-1
 246 1244 l 1,4,-1
1004 509 m 1,11,-1
 914 509 l 1,12,-1
 914 400 l 5,13,-1
 761 400 l 1,14,-1
 761 509 l 1,15,-1
 462 509 l 1,16,-1
 462 631 l 1,17,-1
 681 969 l 1,18,-1
 914 969 l 1,19,-1
 914 631 l 1,20,-1
 1004 631 l 1,21,-1
 1004 509 l 1,11,-1
761 857 m 1,22,-1
 615 631 l 1,23,-1
 761 631 l 1,24,-1
 761 857 l 1,22,-1
EndSplineSet
EndChar

StartChar: mu
Encoding: 956 956 252
Width: 1024
Flags: W
LayerCount: 2
Fore
SplineSet
297.25 1438 m 5,0,-1
 297.25 799 l 6,1,2
 297.25 567 297.25 567 453.85 567 c 4,3,4
 480.85 567 480.85 567 509.649 577 c 132,-1,5
 538.45 587 538.45 587 566.8 609.5 c 132,-1,6
 595.149 632 595.149 632 627.1 671.5 c 132,-1,7
 659.05 711 659.05 711 698.649 772 c 5,8,-1
 698.649 1438 l 5,9,-1
 855.25 1438 l 5,10,-1
 855.25 749 l 6,11,12
 855.25 698 855.25 698 859.75 664 c 132,-1,13
 864.25 630 864.25 630 875.5 609.5 c 132,-1,14
 886.75 589 886.75 589 904.75 580 c 132,-1,15
 922.75 571 922.75 571 949.75 571 c 6,16,-1
 965.95 571 l 5,17,-1
 965.95 432 l 5,18,19
 953.35 429 953.35 429 937.6 426.5 c 132,-1,20
 921.85 424 921.85 424 903.85 424 c 4,21,22
 858.85 424 858.85 424 826.899 436.5 c 132,-1,23
 794.95 449 794.95 449 773.35 472.5 c 132,-1,24
 751.75 496 751.75 496 738.7 530 c 132,-1,25
 725.649 564 725.649 564 717.55 606 c 5,26,27
 678.85 549 678.85 549 642.85 512.5 c 132,-1,28
 606.85 476 606.85 476 571.3 455 c 132,-1,29
 535.75 434 535.75 434 503.8 426 c 132,-1,30
 471.85 418 471.85 418 442.149 418 c 4,31,32
 395.35 418 395.35 418 355.3 436.5 c 132,-1,33
 315.25 455 315.25 455 284.649 494 c 5,34,-1
 297.25 321 l 5,35,-1
 297.25 24 l 5,36,-1
 140.649 24 l 5,37,-1
 140.649 1438 l 5,38,-1
 297.25 1438 l 5,0,-1
EndSplineSet
EndChar

StartChar: theta
Encoding: 952 952 253
Width: 1024
Flags: W
LayerCount: 2
Fore
SplineSet
902.15 1323.25 m 0,0,1
 930.5 1203.1 930.5 1203.1 930.5 1051.9 c 128,-1,2
 930.5 900.699 930.5 900.699 902.15 780.55 c 128,-1,3
 873.8 660.399 873.8 660.399 819.8 572.199 c 0,4,5
 705.187 385 705.187 385 506.6 385 c 4,6,7
 206.476 385 206.476 385 121.85 743.649 c 0,8,9
 93.5 863.8 93.5 863.8 93.5 1014.55 c 128,-1,10
 93.5 1165.3 93.5 1165.3 121.85 1286.35 c 128,-1,11
 150.2 1407.4 150.2 1407.4 204.2 1495.6 c 0,12,13
 319.363 1683.7 319.363 1683.7 517.4 1683.7 c 0,14,15
 817.1 1683.7 817.1 1683.7 902.15 1323.25 c 0,0,1
770.3 1121.2 m 1,16,17
 749.772 1552.3 749.772 1552.3 512 1552.3 c 0,18,19
 395.027 1552.3 395.027 1552.3 327.95 1424.95 c 0,20,21
 268.032 1311.19 268.032 1311.19 256.4 1121.2 c 1,22,-1
 770.3 1121.2 l 1,16,17
251.9 989.8 m 1,23,24
 262.191 516.398 262.191 516.398 512 516.399 c 0,25,26
 635.474 516.399 635.474 516.399 704.6 658.6 c 0,27,28
 764.15 781.1 764.15 781.1 772.1 989.8 c 1,29,-1
 251.9 989.8 l 1,23,24
EndSplineSet
EndChar

StartChar: phi
Encoding: 966 966 254
Width: 1024
Flags: W
LayerCount: 2
Fore
SplineSet
278.883 490.926 m 1,0,1
 101.778 609.626 101.778 609.626 101.778 782.082 c 0,2,3
 101.778 896.974 101.778 896.974 177.591 1028.28 c 0,4,5
 308.452 1254.94 308.452 1254.94 523.175 1254.94 c 0,6,7
 607.315 1254.94 607.315 1254.94 697.652 1216.26 c 1,8,-1
 856.817 1491.94 l 1,9,-1
 971.86 1425.52 l 1,10,-1
 812.696 1149.84 l 1,11,12
 992.66 1028.06 992.66 1028.06 992.66 857.001 c 0,13,14
 992.66 745.505 992.66 745.505 916.2 613.071 c 0,15,16
 784.599 385.131 784.599 385.131 570.638 385.131 c 0,17,18
 485.875 385.131 485.875 385.131 393.926 424.505 c 1,19,-1
 233.546 146.72 l 1,20,-1
 118.503 213.14 l 1,21,-1
 278.883 490.926 l 1,0,1
639.737 1115.95 m 1,22,23
 593.567 1134.37 593.567 1134.37 545.315 1134.37 c 128,-1,24
 497.063 1134.37 497.063 1134.37 447.212 1109.72 c 0,25,26
 363.437 1068.3 363.437 1068.3 302.889 963.425 c 128,-1,27
 242.331 858.535 242.331 858.535 242.331 787.464 c 128,-1,28
 242.331 716.393 242.331 716.393 266.484 671.35 c 128,-1,29
 290.638 626.306 290.638 626.306 336.798 591.237 c 1,30,-1
 639.737 1115.95 l 1,22,23
451.841 524.817 m 1,31,32
 499.314 505.874 499.314 505.874 547.655 505.874 c 128,-1,33
 595.997 505.874 595.997 505.874 644.663 529.937 c 0,34,35
 729.747 572.006 729.747 572.006 790.19 676.697 c 128,-1,36
 850.635 781.39 850.635 781.39 850.635 852.521 c 128,-1,37
 850.635 923.651 850.635 923.651 826.138 968.852 c 128,-1,38
 801.642 1014.05 801.642 1014.05 754.781 1049.52 c 1,39,-1
 451.841 524.817 l 1,31,32
EndSplineSet
EndChar

StartChar: epsilon
Encoding: 949 949 255
Width: 1024
Flags: W
LayerCount: 2
Fore
SplineSet
589.4 534 m 4,0,1
 728.216 534 728.216 534 900.8 581 c 5,2,-1
 900.8 428 l 5,3,4
 724.891 385 724.891 385 575 385 c 4,5,6
 123.2 385 123.2 385 123.2 679 c 4,7,8
 123.2 881.074 123.2 881.074 353.6 919 c 5,9,10
 264.31 935.535 264.31 935.535 211.4 1004.5 c 4,11,12
 165.5 1064.33 165.5 1064.33 165.5 1134 c 4,13,14
 165.5 1425 165.5 1425 575 1425 c 4,15,16
 735.118 1425 735.118 1425 877.4 1388 c 5,17,-1
 877.4 1226 l 5,18,19
 701.144 1277 701.144 1277 556.1 1277 c 4,20,21
 331.1 1277 331.1 1277 331.1 1138 c 4,22,23
 331.1 991 331.1 991 593 991 c 6,24,-1
 763.1 991 l 5,25,-1
 763.1 847 l 5,26,-1
 575 847 l 6,27,28
 294.2 847 294.2 847 294.2 700 c 4,29,30
 294.2 534 294.2 534 589.4 534 c 4,0,1
EndSplineSet
EndChar

StartChar: Gamma
Encoding: 915 915 256
Width: 1024
Flags: W
LayerCount: 2
Fore
SplineSet
381 1540 m 5,0,-1
 381 385 l 5,1,-1
 200 385 l 5,2,-1
 200 1692 l 5,3,-1
 952 1692 l 5,4,-1
 952 1540 l 5,5,-1
 381 1540 l 5,0,-1
EndSplineSet
EndChar

StartChar: approxequal
Encoding: 8776 8776 257
Width: 1024
Flags: W
LayerCount: 2
Fore
SplineSet
905.3 1105.05 m 5,0,1
 855.8 1060.05 855.8 1060.05 801.35 1033.5 c 132,-1,2
 746.9 1006.95 746.9 1006.95 683 1006.95 c 4,3,4
 633.5 1006.95 633.5 1006.95 589.85 1021.8 c 132,-1,5
 546.2 1036.65 546.2 1036.65 503.9 1055.1 c 132,-1,6
 461.6 1073.55 461.6 1073.55 419.3 1088.4 c 132,-1,7
 377 1103.25 377 1103.25 330.2 1103.25 c 4,8,9
 287 1103.25 287 1103.25 249.2 1083 c 132,-1,10
 211.4 1062.75 211.4 1062.75 179.9 1036.65 c 5,11,-1
 118.7 1138.35 l 5,12,13
 167.3 1182.45 167.3 1182.45 222.65 1209.9 c 132,-1,14
 278 1237.35 278 1237.35 341.9 1237.35 c 4,15,16
 390.5 1237.35 390.5 1237.35 434.6 1222.5 c 132,-1,17
 478.7 1207.65 478.7 1207.65 520.55 1189.65 c 132,-1,18
 562.4 1171.65 562.4 1171.65 605.15 1156.35 c 132,-1,19
 647.9 1141.05 647.9 1141.05 693.8 1141.05 c 4,20,21
 737 1141.05 737 1141.05 775.25 1160.4 c 132,-1,22
 813.5 1179.75 813.5 1179.75 845 1207.65 c 5,23,-1
 905.3 1105.05 l 5,0,1
905.3 772.95 m 5,24,25
 855.8 727.05 855.8 727.05 801.35 700.05 c 132,-1,26
 746.9 673.05 746.9 673.05 683 673.05 c 4,27,28
 633.5 673.05 633.5 673.05 589.85 687.9 c 132,-1,29
 546.2 702.75 546.2 702.75 503.9 721.2 c 132,-1,30
 461.6 739.65 461.6 739.65 419.3 754.5 c 132,-1,31
 377 769.351 377 769.351 330.2 769.351 c 4,32,33
 287 769.351 287 769.351 249.2 750 c 132,-1,34
 211.4 730.65 211.4 730.65 179.9 702.75 c 5,35,-1
 118.7 806.25 l 5,36,37
 167.3 850.351 167.3 850.351 222.65 876.9 c 132,-1,38
 278 903.45 278 903.45 341.9 903.45 c 4,39,40
 390.5 903.45 390.5 903.45 434.6 888.601 c 132,-1,41
 478.7 873.75 478.7 873.75 520.55 855.75 c 132,-1,42
 562.4 837.75 562.4 837.75 605.15 822.45 c 132,-1,43
 647.9 807.15 647.9 807.15 693.8 807.15 c 4,44,45
 737 807.15 737 807.15 775.25 826.95 c 132,-1,46
 813.5 846.75 813.5 846.75 845 874.65 c 5,47,-1
 905.3 772.95 l 5,24,25
EndSplineSet
EndChar

StartChar: revlogicalnot
Encoding: 8976 8976 258
Width: 1024
VWidth: 1747
Flags: W
LayerCount: 2
Fore
SplineSet
935 1145 m 5,0,-1
 89 1145 l 5,1,-1
 89 726 l 5,2,-1
 223 726 l 5,3,-1
 223 998 l 5,4,-1
 935 998 l 5,5,-1
 935 1145 l 5,0,-1
EndSplineSet
EndChar

StartChar: dotlessi
Encoding: 305 305 259
Width: 1024
VWidth: 1747
Flags: W
LayerCount: 2
Fore
SplineSet
256.5 1365 m 5,0,-1
 584.5 1365 l 5,1,-1
 584.5 532 l 5,2,-1
 832 532 l 5,3,-1
 832 410 l 5,4,-1
 192 410 l 5,5,-1
 192 532 l 5,6,-1
 437.5 532 l 5,7,-1
 437.5 1243 l 5,8,-1
 256.5 1243 l 5,9,-1
 256.5 1365 l 5,0,-1
EndSplineSet
EndChar

StartChar: copyright
Encoding: 169 169 260
Width: 1024
Flags: W
LayerCount: 2
Fore
SplineSet
874.27 1433.36 m 128,-1,1
 1008 1261.72 1008 1261.72 1008 997.124 c 128,-1,2
 1008 732.523 1008 732.523 869.972 566.261 c 128,-1,3
 731.943 400 731.943 400 507.925 400 c 128,-1,4
 283.907 400 283.907 400 149.954 570.87 c 128,-1,5
 16 741.74 16 741.74 16 1006.61 c 128,-1,6
 16 1271.48 16 1271.48 154.443 1438.24 c 128,-1,7
 292.887 1605 292.887 1605 516.713 1605 c 128,-1,0
 740.54 1605 740.54 1605 874.27 1433.36 c 128,-1,1
249.079 1354.6 m 128,-1,9
 149 1222.21 149 1222.21 149 1008.06 c 128,-1,10
 149 793.915 149 793.915 248.754 655.957 c 128,-1,11
 348.508 518 348.508 518 512.447 518 c 128,-1,12
 676.386 518 676.386 518 775.693 650.758 c 128,-1,13
 875 783.516 875 783.516 875 997.492 c 128,-1,14
 875 1211.47 875 1211.47 775.385 1349.23 c 128,-1,15
 675.769 1487 675.769 1487 512.463 1487 c 128,-1,8
 349.157 1487 349.157 1487 249.079 1354.6 c 128,-1,9
411 999 m 0,16,17
 411 815 411 815 568 815 c 0,18,19
 636 815 636 815 698 848 c 1,20,-1
 698 731 l 1,21,22
 623 701 623 701 542 701 c 0,23,24
 275 701 275 701 274 997 c 0,25,26
 274 1135.06 274 1135.06 348.5 1219 c 128,-1,27
 423.05 1303 423.05 1303 547 1303 c 0,28,29
 631 1303 631 1303 698 1275 c 1,30,-1
 698 1154 l 1,31,32
 632.118 1189 632.118 1189 562.059 1189 c 128,-1,33
 492 1189 492 1189 451.5 1140 c 128,-1,34
 411 1091 411 1091 411 999 c 0,16,17
EndSplineSet
EndChar

StartChar: registered
Encoding: 174 174 261
Width: 1024
Flags: W
LayerCount: 2
Fore
SplineSet
611 961 m 5,0,-1
 538 1126 l 5,1,2
 516 1172 516 1172 468 1172 c 6,3,-1
 448 1172 l 5,4,-1
 448 961 l 5,5,-1
 349 961 l 5,6,-1
 349 1471 l 5,7,-1
 502 1471 l 6,8,9
 588 1471 588 1471 639 1439.5 c 132,-1,10
 690 1408 690 1408 690 1341 c 4,11,12
 690 1221 690 1221 579 1203 c 5,13,14
 614 1193 614 1193 644 1132 c 6,15,-1
 725 961 l 5,16,-1
 611 961 l 5,0,-1
488 1247 m 6,17,18
 588 1247 588 1247 588 1318.5 c 132,-1,19
 588 1390 588 1390 492 1390 c 6,20,-1
 448 1390 l 5,21,-1
 448 1247 l 5,22,-1
 488 1247 l 6,17,18
512 1563 m 4,23,24
 442 1563 442 1563 381 1535.5 c 132,-1,25
 320 1508 320 1508 274 1461 c 4,26,27
 176 1360 176 1360 177 1216 c 4,28,29
 176 1071 176 1071 274 970 c 4,30,31
 373 868 373 868 512 868 c 4,32,33
 652 868 652 868 750 970 c 4,34,35
 848 1071 848 1071 847 1216 c 4,36,37
 848 1360 848 1360 750 1461 c 4,38,39
 650 1563 650 1563 512 1563 c 4,23,24
512 1663 m 4,40,41
 604 1663 604 1663 686 1627.5 c 132,-1,42
 768 1592 768 1592 828 1532 c 4,43,44
 960 1402 960 1402 960 1216 c 4,45,46
 960 1031 960 1031 828.5 899.5 c 132,-1,47
 697 768 697 768 512 768 c 132,-1,48
 327 768 327 768 195.5 899.5 c 132,-1,49
 64 1031 64 1031 64 1216 c 4,50,51
 64 1402 64 1402 196 1532 c 4,52,53
 328 1663 328 1663 512 1663 c 4,40,41
EndSplineSet
EndChar

StartChar: Theta
Encoding: 920 920 263
Width: 1024
Flags: W
LayerCount: 2
Fore
SplineSet
839.22 531.109 m 128,-1,1
 704.74 375.15 704.74 375.15 492.118 375.15 c 128,-1,2
 279.496 375.15 279.496 375.15 164.898 531.585 c 128,-1,3
 50.2998 688.02 50.2998 688.02 50.2998 980.498 c 128,-1,4
 50.2998 1272.98 50.2998 1272.98 184.329 1428.41 c 128,-1,5
 318.358 1583.85 318.358 1583.85 530.474 1583.85 c 128,-1,6
 742.589 1583.85 742.589 1583.85 858.145 1427.03 c 128,-1,7
 973.7 1270.2 973.7 1270.2 973.7 978.635 c 128,-1,0
 973.7 687.068 973.7 687.068 839.22 531.109 c 128,-1,1
735.316 1317.89 m 128,-1,9
 662.533 1444.35 662.533 1444.35 514.755 1444.35 c 128,-1,10
 366.978 1444.35 366.978 1444.35 291.439 1313.79 c 128,-1,11
 215.9 1183.23 215.9 1183.23 215.9 982.65 c 0,12,13
 215.9 648.139 215.9 648.139 377.9 548.85 c 0,14,15
 433.7 514.65 433.7 514.65 510.2 514.65 c 128,-1,16
 586.7 514.65 586.7 514.65 642.5 551.1 c 128,-1,17
 698.3 587.55 698.3 587.55 735.2 650.1 c 0,18,19
 808.1 773.677 808.1 773.677 808.1 982.552 c 128,-1,8
 808.1 1191.43 808.1 1191.43 735.316 1317.89 c 128,-1,9
341 913.15 m 1,20,-1
 341 1048.15 l 1,21,-1
 683 1048.15 l 1,22,-1
 683 913.15 l 1,23,-1
 341 913.15 l 1,20,-1
EndSplineSet
EndChar

StartChar: oslash
Encoding: 248 248 264
Width: 1024
Flags: W
LayerCount: 2
Fore
SplineSet
305.9 422.3 m 1,0,1
 88.0996 527.379 88.0996 527.379 88.0996 842.6 c 0,2,3
 88.0996 1062.84 88.0996 1062.84 203.511 1189.42 c 128,-1,5
 318.923 1316 318.923 1316 521 1316 c 0,6,7
 560.6 1316 560.6 1316 602.9 1310.6 c 1,8,-1
 663.2 1493.3 l 1,9,-1
 794.6 1493.3 l 1,10,-1
 720.8 1273.7 l 1,11,12
 935.9 1170.91 935.9 1170.91 935.9 855.2 c 0,13,14
 935.9 633.633 935.9 633.633 821.117 506.816 c 128,-1,16
 706.334 380 706.334 380 503 380 c 0,17,18
 462.5 380 462.5 380 423.8 385.4 c 1,19,-1
 362.6 202.7 l 1,20,-1
 232.1 202.7 l 1,21,-1
 305.9 422.3 l 1,0,1
467.9 514.1 m 1,22,23
 489.5 510.5 489.5 510.5 538.55 510.5 c 128,-1,24
 587.6 510.5 587.6 510.5 637.1 537.5 c 128,-1,25
 686.6 564.5 686.6 564.5 718.1 610.85 c 0,26,27
 779.3 700.902 779.3 700.902 779.3 824.851 c 0,28,29
 779.3 1048.68 779.3 1048.68 674 1133.3 c 1,30,-1
 467.9 514.1 l 1,22,23
557.9 1181 m 1,31,32
 530.896 1185.5 530.896 1185.5 483.648 1185.5 c 128,-1,33
 436.4 1185.5 436.4 1185.5 386.9 1158.5 c 128,-1,34
 337.4 1131.5 337.4 1131.5 305.9 1085.15 c 0,35,36
 244.7 995.098 244.7 995.098 244.7 870.699 c 0,37,38
 244.7 643.487 244.7 643.487 351.8 561.8 c 1,39,-1
 557.9 1181 l 1,31,32
EndSplineSet
EndChar

StartChar: Oslash
Encoding: 216 216 265
Width: 1024
Flags: W
LayerCount: 2
Fore
SplineSet
281.6 433.1 m 1,0,1
 56.5996 561.671 56.5996 561.671 56.5996 978.5 c 0,2,3
 56.5996 1278.09 56.5996 1278.09 193.85 1440.65 c 0,4,5
 318.849 1588.7 318.849 1588.7 521 1588.7 c 0,6,7
 576.8 1588.7 576.8 1588.7 624.5 1577.9 c 1,8,-1
 682.1 1766 l 1,9,-1
 812.6 1766 l 1,10,-1
 742.4 1533.8 l 1,11,12
 967.4 1400.93 967.4 1400.93 967.4 992 c 0,13,14
 967.4 690.609 967.4 690.609 830.15 528.05 c 0,15,16
 705.151 380 705.151 380 503 380 c 0,17,18
 449.9 380 449.9 380 399.5 389 c 1,19,-1
 344.6 202.699 l 1,20,-1
 213.2 202.699 l 1,21,-1
 281.6 433.1 l 1,0,1
584 1439.3 m 1,22,23
 549.801 1448.3 549.801 1448.3 493.101 1448.3 c 128,-1,24
 436.4 1448.3 436.4 1448.3 381.95 1411.85 c 128,-1,25
 327.5 1375.4 327.5 1375.4 292.4 1312.85 c 0,26,27
 223.1 1189.35 223.1 1189.35 223.1 987.5 c 0,28,29
 223.1 704.556 223.1 704.556 329.3 593.3 c 1,30,-1
 584 1439.3 l 1,22,23
441.8 526.699 m 1,31,32
 466.277 519.5 466.277 519.5 526.938 519.5 c 128,-1,33
 587.6 519.5 587.6 519.5 642.05 555.949 c 128,-1,34
 696.5 592.399 696.5 592.399 732.05 654.949 c 0,35,36
 801.8 777.676 801.8 777.676 801.8 980.3 c 0,37,38
 801.8 1257.1 801.8 1257.1 694.7 1372.7 c 1,39,-1
 441.8 526.699 l 1,31,32
EndSplineSet
EndChar

StartChar: multiply
Encoding: 215 215 266
Width: 1024
Flags: W
LayerCount: 2
Fore
SplineSet
882.8 1069.5 m 5,0,-1
 611.9 798.6 l 5,1,-1
 886.4 525.9 l 5,2,-1
 781.1 420.6 l 5,3,-1
 508.4 695.1 l 5,4,-1
 237.5 424.2 l 5,5,-1
 142.1 520.5 l 5,6,-1
 413 791.4 l 5,7,-1
 137.6 1064.1 l 5,8,-1
 242.9 1169.4 l 5,9,-1
 515.6 894 l 5,10,-1
 786.5 1164.9 l 5,11,-1
 882.8 1069.5 l 5,0,-1
EndSplineSet
EndChar

StartChar: Aacute
Encoding: 193 193 267
Width: 1024
VWidth: 1747
Flags: W
LayerCount: 2
Fore
SplineSet
554.5 2030 m 5,0,-1
 703.5 2030 l 5,1,-1
 520.5 1805 l 5,2,-1
 397.5 1805 l 5,3,-1
 554.5 2030 l 5,0,-1
511.5 1532 m 1,4,-1
 341.5 880 l 1,5,-1
 681.5 880 l 1,6,-1
 511.5 1532 l 1,4,-1
414.5 1684 m 1,7,-1
 610.5 1684 l 1,8,-1
 975.5 410 l 1,9,-1
 808.5 410 l 1,10,-1
 719.5 742 l 1,11,-1
 301.5 742 l 1,12,-1
 215.5 410 l 1,13,-1
 48.5 410 l 1,14,-1
 414.5 1684 l 1,7,-1
511.5 1532 m 1,15,-1
 341.5 880 l 1,16,-1
 681.5 880 l 1,17,-1
 511.5 1532 l 1,15,-1
414.5 1684 m 1,18,-1
 610.5 1684 l 1,19,-1
 975.5 410 l 1,20,-1
 808.5 410 l 1,21,-1
 719.5 742 l 1,22,-1
 301.5 742 l 1,23,-1
 215.5 410 l 1,24,-1
 48.5 410 l 1,25,-1
 414.5 1684 l 1,18,-1
EndSplineSet
EndChar

StartChar: Acircumflex
Encoding: 194 194 268
Width: 1024
VWidth: 1747
Flags: W
LayerCount: 2
Fore
SplineSet
799.45 1766.65 m 5,0,-1
 634.75 1766.65 l 5,1,-1
 513.25 1858.45 l 5,2,-1
 391.75 1766.65 l 5,3,-1
 231.55 1766.65 l 5,4,-1
 439.45 1958.35 l 5,5,-1
 590.65 1958.35 l 5,6,-1
 799.45 1766.65 l 5,0,-1
511.5 1532 m 1,7,-1
 341.5 880 l 1,8,-1
 681.5 880 l 1,9,-1
 511.5 1532 l 1,7,-1
414.5 1684 m 1,10,-1
 610.5 1684 l 1,11,-1
 975.5 410 l 1,12,-1
 808.5 410 l 1,13,-1
 719.5 742 l 1,14,-1
 301.5 742 l 1,15,-1
 215.5 410 l 1,16,-1
 48.5 410 l 1,17,-1
 414.5 1684 l 1,10,-1
EndSplineSet
EndChar

StartChar: Agrave
Encoding: 192 192 269
Width: 1024
VWidth: 1747
Flags: W
LayerCount: 2
Fore
SplineSet
506.5 2030 m 5,0,-1
 357.5 2030 l 5,1,-1
 540.5 1805 l 5,2,-1
 663.5 1805 l 5,3,-1
 506.5 2030 l 5,0,-1
511.5 1532 m 1,4,-1
 341.5 880 l 1,5,-1
 681.5 880 l 1,6,-1
 511.5 1532 l 1,4,-1
414.5 1684 m 1,7,-1
 610.5 1684 l 1,8,-1
 975.5 410 l 1,9,-1
 808.5 410 l 1,10,-1
 719.5 742 l 1,11,-1
 301.5 742 l 1,12,-1
 215.5 410 l 1,13,-1
 48.5 410 l 1,14,-1
 414.5 1684 l 1,7,-1
511.5 1532 m 1,15,-1
 341.5 880 l 1,16,-1
 681.5 880 l 1,17,-1
 511.5 1532 l 1,15,-1
414.5 1684 m 1,18,-1
 610.5 1684 l 1,19,-1
 975.5 410 l 1,20,-1
 808.5 410 l 1,21,-1
 719.5 742 l 1,22,-1
 301.5 742 l 1,23,-1
 215.5 410 l 1,24,-1
 48.5 410 l 1,25,-1
 414.5 1684 l 1,18,-1
EndSplineSet
EndChar

StartChar: atilde
Encoding: 227 227 270
Width: 1024
VWidth: 1747
Flags: W
LayerCount: 2
Fore
SplineSet
729 1596 m 4,0,1
 687.5 1545 687.5 1545 628.5 1545 c 4,2,3
 569.5 1545 569.5 1545 502.5 1582 c 5,4,-1
 457.5 1610 l 5,5,6
 388.905 1650.01 388.905 1650.01 359.5 1610.5 c 4,7,8
 343.5 1589 343.5 1589 343.5 1551 c 6,9,-1
 343.5 1545 l 5,10,-1
 243.5 1545 l 5,11,12
 243.5 1633 243.5 1633 284.5 1682.5 c 4,13,14
 325.5 1732 325.5 1732 388 1732 c 4,15,16
 450.5 1732 450.5 1732 510.5 1696 c 5,17,-1
 556.5 1670 l 5,18,19
 590.5 1649 590.5 1649 614.5 1649 c 4,20,21
 638.5 1649 638.5 1649 654.5 1670.5 c 4,22,23
 670.5 1692 670.5 1692 670.5 1727 c 6,24,-1
 670.5 1732 l 5,25,-1
 770.5 1732 l 5,26,27
 770.5 1647 770.5 1647 729 1596 c 4,0,1
EndSplineSet
Refer: 66 97 N 1 0 0 1 0 0 2
EndChar

StartChar: Atilde
Encoding: 195 195 271
Width: 1024
VWidth: 1747
Flags: W
LayerCount: 2
Fore
SplineSet
733.5 1886.5 m 132,-1,1
 692 1836 692 1836 632 1836 c 4,2,3
 574 1836 574 1836 507 1872 c 5,4,-1
 462 1900 l 6,5,6
 426 1921 426 1921 403 1921.5 c 132,-1,7
 380 1922 380 1922 364 1900.5 c 132,-1,8
 348 1879 348 1879 348 1841 c 6,9,-1
 348 1836 l 5,10,-1
 248 1836 l 5,11,12
 248 1922 248 1922 289 1972 c 132,-1,13
 330 2022 330 2022 398 2022 c 4,14,15
 452 2022 452 2022 515 1986 c 5,16,-1
 561 1960 l 5,17,18
 595 1939 595 1939 619 1939 c 132,-1,19
 643 1939 643 1939 659 1960.5 c 132,-1,20
 675 1982 675 1982 675 2017 c 6,21,-1
 675 2022 l 5,22,-1
 775 2022 l 5,23,0
 775 1937 775 1937 733.5 1886.5 c 132,-1,1
511.5 1532 m 1,24,-1
 341.5 880 l 1,25,-1
 681.5 880 l 1,26,-1
 511.5 1532 l 1,24,-1
414.5 1684 m 1,27,-1
 610.5 1684 l 1,28,-1
 975.5 410 l 1,29,-1
 808.5 410 l 1,30,-1
 719.5 742 l 1,31,-1
 301.5 742 l 1,32,-1
 215.5 410 l 1,33,-1
 48.5 410 l 1,34,-1
 414.5 1684 l 1,27,-1
EndSplineSet
EndChar

StartChar: eth
Encoding: 240 240 272
Width: 1126
Flags: W
LayerCount: 2
Fore
SplineSet
700.6 1162.99 m 5,0,1
 662.8 1171.09 662.8 1171.09 634 1174.24 c 132,-1,2
 605.2 1177.39 605.2 1177.39 579.1 1177.39 c 4,3,4
 503.5 1177.39 503.5 1177.39 451.3 1149.49 c 132,-1,5
 399.1 1121.59 399.1 1121.59 367.15 1074.34 c 132,-1,6
 335.2 1027.09 335.2 1027.09 320.8 964.99 c 132,-1,7
 306.4 902.891 306.4 902.891 306.4 834.49 c 4,8,9
 306.4 756.19 306.4 756.19 324.85 695.891 c 132,-1,10
 343.3 635.591 343.3 635.591 376.15 594.641 c 132,-1,11
 409 553.69 409 553.69 454.45 532.99 c 132,-1,12
 499.9 512.29 499.9 512.29 553 512.29 c 4,13,14
 615.1 512.29 615.1 512.29 661.45 536.141 c 132,-1,15
 707.8 559.99 707.8 559.99 738.4 602.74 c 132,-1,16
 769 645.49 769 645.49 784.3 705.79 c 132,-1,17
 799.6 766.091 799.6 766.091 799.6 838.99 c 4,18,19
 799.6 916.391 799.6 916.391 775.75 994.69 c 132,-1,20
 751.9 1072.99 751.9 1072.99 700.6 1162.99 c 5,0,1
609.7 1305.19 m 5,21,22
 591.7 1331.29 591.7 1331.29 570.1 1362.34 c 132,-1,23
 548.5 1393.39 548.5 1393.39 525.1 1424.89 c 5,24,-1
 273.1 1370.89 l 5,25,-1
 273.1 1502.29 l 5,26,-1
 440.5 1537.39 l 5,27,-1
 337 1667.89 l 5,28,-1
 532.3 1667.89 l 5,29,-1
 606.1 1574.29 l 5,30,-1
 873.4 1629.19 l 5,31,-1
 873.4 1498.69 l 5,32,-1
 689.8 1461.79 l 5,33,34
 755.5 1370.89 755.5 1370.89 805.9 1288.54 c 132,-1,35
 856.3 1206.19 856.3 1206.19 890.5 1130.59 c 132,-1,36
 924.7 1054.99 924.7 1054.99 942.7 984.79 c 132,-1,37
 960.7 914.591 960.7 914.591 960.7 847.99 c 4,38,39
 960.7 800.29 960.7 800.29 953.05 746.74 c 132,-1,40
 945.4 693.19 945.4 693.19 927.4 641.44 c 132,-1,41
 909.4 589.69 909.4 589.69 878.35 542.44 c 132,-1,42
 847.3 495.19 847.3 495.19 800.95 458.74 c 132,-1,43
 754.6 422.29 754.6 422.29 690.25 401.141 c 132,-1,44
 625.9 379.99 625.9 379.99 540.4 379.99 c 4,45,46
 445 379.99 445 379.99 371.2 411.94 c 132,-1,47
 297.4 443.891 297.4 443.891 247.45 502.391 c 132,-1,48
 197.5 560.891 197.5 560.891 171.4 643.24 c 132,-1,49
 145.3 725.591 145.3 725.591 145.3 825.49 c 4,50,51
 145.3 923.591 145.3 923.591 173.2 1011.34 c 132,-1,52
 201.1 1099.09 201.1 1099.09 255.1 1165.24 c 132,-1,53
 309.1 1231.39 309.1 1231.39 387.85 1270.09 c 132,-1,54
 466.6 1308.79 466.6 1308.79 569.2 1308.79 c 4,55,56
 575.5 1308.79 575.5 1308.79 587.2 1307.89 c 132,-1,57
 598.9 1306.99 598.9 1306.99 609.7 1305.19 c 5,21,22
EndSplineSet
EndChar

StartChar: Eth
Encoding: 208 208 273
Width: 1024
Flags: W
LayerCount: 2
Fore
SplineSet
125.05 1687 m 1,0,-1
 411.25 1687 l 2,1,2
 685.75 1687 685.75 1687 816.7 1529.5 c 128,-1,3
 947.649 1372 947.649 1372 947.649 1048 c 0,4,5
 947.649 954 947.649 954 935.5 868 c 128,-1,6
 923.35 782 923.35 782 895.45 708 c 128,-1,7
 867.55 634 867.55 634 822.55 573.5 c 128,-1,8
 777.55 513 777.55 513 712.3 470 c 128,-1,9
 647.05 427 647.05 427 559.3 403.5 c 128,-1,10
 471.55 380 471.55 380 359.05 380 c 2,11,-1
 125.05 380 l 1,12,-1
 125.05 982 l 1,13,-1
 -0.0498047 982 l 1,14,-1
 -0.0498047 1132 l 1,15,-1
 125.05 1132 l 1,16,-1
 125.05 1687 l 1,0,-1
285.25 534 m 1,17,-1
 386.95 534 l 2,18,19
 587.649 534 587.649 534 683.5 659.5 c 128,-1,20
 779.35 785 779.35 785 779.35 1035 c 0,21,22
 779.35 1174 779.35 1174 757.3 1270 c 128,-1,23
 735.25 1366 735.25 1366 689.35 1425 c 128,-1,24
 643.45 1484 643.45 1484 572.8 1510.5 c 128,-1,25
 502.149 1537 502.149 1537 405.85 1537 c 2,26,-1
 285.25 1537 l 1,27,-1
 285.25 1132 l 1,28,-1
 488.649 1132 l 1,29,-1
 488.649 982 l 1,30,-1
 285.25 982 l 1,31,-1
 285.25 534 l 1,17,-1
EndSplineSet
EndChar

StartChar: Ecircumflex
Encoding: 202 202 274
Width: 1024
VWidth: 1747
Flags: W
LayerCount: 2
Fore
SplineSet
799.45 1766.65 m 5,0,-1
 634.75 1766.65 l 5,1,-1
 513.25 1858.45 l 5,2,-1
 391.75 1766.65 l 5,3,-1
 231.55 1766.65 l 5,4,-1
 439.45 1958.35 l 5,5,-1
 590.65 1958.35 l 5,6,-1
 799.45 1766.65 l 5,0,-1
150.5 1684 m 1,7,-1
 858.5 1684 l 1,8,-1
 858.5 1539 l 1,9,-1
 311.5 1539 l 1,10,-1
 311.5 1161 l 1,11,-1
 835.5 1161 l 1,12,-1
 835.5 1016 l 1,13,-1
 311.5 1016 l 1,14,-1
 311.5 555 l 1,15,-1
 873.5 555 l 1,16,-1
 873.5 410 l 1,17,-1
 150.5 410 l 1,18,-1
 150.5 1684 l 1,7,-1
EndSplineSet
EndChar

StartChar: Edieresis
Encoding: 203 203 275
Width: 1024
VWidth: 1747
Flags: W
LayerCount: 2
Fore
SplineSet
273.5 2005 m 5,0,-1
 435.5 2005 l 5,1,-1
 435.5 1832 l 5,2,-1
 273.5 1832 l 5,3,-1
 273.5 2005 l 5,0,-1
587.5 2005 m 5,4,-1
 748.5 2005 l 5,5,-1
 748.5 1832 l 5,6,-1
 587.5 1832 l 5,7,-1
 587.5 2005 l 5,4,-1
150.5 1684 m 1,8,-1
 858.5 1684 l 1,9,-1
 858.5 1539 l 1,10,-1
 311.5 1539 l 1,11,-1
 311.5 1161 l 1,12,-1
 835.5 1161 l 1,13,-1
 835.5 1016 l 1,14,-1
 311.5 1016 l 1,15,-1
 311.5 555 l 1,16,-1
 873.5 555 l 1,17,-1
 873.5 410 l 1,18,-1
 150.5 410 l 1,19,-1
 150.5 1684 l 1,8,-1
EndSplineSet
EndChar

StartChar: Egrave
Encoding: 200 200 276
Width: 1024
VWidth: 1747
Flags: W
LayerCount: 2
Fore
SplineSet
506.5 2030 m 5,0,-1
 357.5 2030 l 5,1,-1
 540.5 1805 l 5,2,-1
 663.5 1805 l 5,3,-1
 506.5 2030 l 5,0,-1
150.5 1684 m 1,4,-1
 858.5 1684 l 1,5,-1
 858.5 1539 l 1,6,-1
 311.5 1539 l 1,7,-1
 311.5 1161 l 1,8,-1
 835.5 1161 l 1,9,-1
 835.5 1016 l 1,10,-1
 311.5 1016 l 1,11,-1
 311.5 555 l 1,12,-1
 873.5 555 l 1,13,-1
 873.5 410 l 1,14,-1
 150.5 410 l 1,15,-1
 150.5 1684 l 1,4,-1
EndSplineSet
EndChar

StartChar: Iacute
Encoding: 205 205 277
Width: 1024
VWidth: 1747
Flags: W
LayerCount: 2
Fore
SplineSet
544.5 2030 m 5,0,-1
 693.5 2030 l 5,1,-1
 510.5 1805 l 5,2,-1
 387.5 1805 l 5,3,-1
 544.5 2030 l 5,0,-1
180.5 1684 m 1,4,-1
 843.5 1684 l 1,5,-1
 843.5 1539 l 1,6,-1
 593.5 1539 l 1,7,-1
 593.5 555 l 1,8,-1
 843.5 555 l 1,9,-1
 843.5 410 l 1,10,-1
 180.5 410 l 1,11,-1
 180.5 555 l 1,12,-1
 431.5 555 l 1,13,-1
 431.5 1539 l 1,14,-1
 180.5 1539 l 1,15,-1
 180.5 1684 l 1,4,-1
EndSplineSet
EndChar

StartChar: Icircumflex
Encoding: 206 206 278
Width: 1024
VWidth: 1747
Flags: W
LayerCount: 2
Fore
SplineSet
799.45 1766.65 m 5,0,-1
 634.75 1766.65 l 5,1,-1
 513.25 1858.45 l 5,2,-1
 391.75 1766.65 l 5,3,-1
 231.55 1766.65 l 5,4,-1
 439.45 1958.35 l 5,5,-1
 590.65 1958.35 l 5,6,-1
 799.45 1766.65 l 5,0,-1
180.5 1684 m 1,7,-1
 843.5 1684 l 1,8,-1
 843.5 1539 l 1,9,-1
 593.5 1539 l 1,10,-1
 593.5 555 l 1,11,-1
 843.5 555 l 1,12,-1
 843.5 410 l 1,13,-1
 180.5 410 l 1,14,-1
 180.5 555 l 1,15,-1
 431.5 555 l 1,16,-1
 431.5 1539 l 1,17,-1
 180.5 1539 l 1,18,-1
 180.5 1684 l 1,7,-1
EndSplineSet
EndChar

StartChar: Idieresis
Encoding: 207 207 279
Width: 1024
VWidth: 1747
Flags: W
LayerCount: 2
Fore
SplineSet
273.5 2005 m 5,0,-1
 435.5 2005 l 5,1,-1
 435.5 1832 l 5,2,-1
 273.5 1832 l 5,3,-1
 273.5 2005 l 5,0,-1
587.5 2005 m 5,4,-1
 748.5 2005 l 5,5,-1
 748.5 1832 l 5,6,-1
 587.5 1832 l 5,7,-1
 587.5 2005 l 5,4,-1
180.5 1684 m 1,8,-1
 843.5 1684 l 1,9,-1
 843.5 1539 l 1,10,-1
 593.5 1539 l 1,11,-1
 593.5 555 l 1,12,-1
 843.5 555 l 1,13,-1
 843.5 410 l 1,14,-1
 180.5 410 l 1,15,-1
 180.5 555 l 1,16,-1
 431.5 555 l 1,17,-1
 431.5 1539 l 1,18,-1
 180.5 1539 l 1,19,-1
 180.5 1684 l 1,8,-1
EndSplineSet
EndChar

StartChar: brokenbar
Encoding: 166 166 280
Width: 1024
Flags: W
LayerCount: 2
Fore
SplineSet
585.8 0 m 5,0,-1
 438.2 0 l 5,1,-1
 438.2 752.4 l 5,2,-1
 585.8 752.4 l 5,3,-1
 585.8 0 l 5,0,-1
438.2 1113.3 m 5,4,-1
 438.2 1843.2 l 5,5,-1
 585.8 1843.2 l 5,6,-1
 585.8 1113.3 l 5,7,-1
 438.2 1113.3 l 5,4,-1
EndSplineSet
EndChar

StartChar: Igrave
Encoding: 204 204 281
Width: 1024
VWidth: 1747
Flags: W
LayerCount: 2
Fore
SplineSet
506.5 2030 m 5,0,-1
 357.5 2030 l 5,1,-1
 540.5 1805 l 5,2,-1
 663.5 1805 l 5,3,-1
 506.5 2030 l 5,0,-1
180.5 1684 m 1,4,-1
 843.5 1684 l 1,5,-1
 843.5 1539 l 1,6,-1
 593.5 1539 l 1,7,-1
 593.5 555 l 1,8,-1
 843.5 555 l 1,9,-1
 843.5 410 l 1,10,-1
 180.5 410 l 1,11,-1
 180.5 555 l 1,12,-1
 431.5 555 l 1,13,-1
 431.5 1539 l 1,14,-1
 180.5 1539 l 1,15,-1
 180.5 1684 l 1,4,-1
EndSplineSet
EndChar

StartChar: Oacute
Encoding: 211 211 282
Width: 1024
VWidth: 1747
Flags: W
LayerCount: 2
Fore
SplineSet
544.5 2030 m 5,0,-1
 693.5 2030 l 5,1,-1
 510.5 1805 l 5,2,-1
 387.5 1805 l 5,3,-1
 544.5 2030 l 5,0,-1
742.5 1045 m 256,4,5
 742.5 1326 742.5 1326 688.5 1446.5 c 128,-1,6
 634.5 1567 634.5 1567 511.5 1567 c 128,-1,7
 388.5 1567 388.5 1567 335 1446.5 c 128,-1,8
 281.5 1326 281.5 1326 281.5 1045.5 c 128,-1,9
 281.5 765 281.5 765 335 645 c 128,-1,10
 388.5 525 388.5 525 511.5 525 c 128,-1,11
 634.5 525 634.5 525 688.5 644.5 c 128,-1,12
 742.5 764 742.5 764 742.5 1045 c 256,4,5
813 1543 m 128,-1,14
 911.5 1379 911.5 1379 911.5 1046 c 128,-1,15
 911.5 713 911.5 713 813 549 c 128,-1,16
 714.5 385 714.5 385 511.5 385 c 256,17,18
 308.5 385 308.5 385 210.5 548 c 128,-1,19
 112.5 711 112.5 711 112.5 1045 c 128,-1,20
 112.5 1379 112.5 1379 211.5 1543 c 128,-1,21
 310.5 1707 310.5 1707 512.5 1707 c 128,-1,13
 714.5 1707 714.5 1707 813 1543 c 128,-1,14
EndSplineSet
EndChar

StartChar: Ograve
Encoding: 210 210 283
Width: 1024
VWidth: 1747
Flags: W
LayerCount: 2
Fore
SplineSet
506.5 2030 m 5,0,-1
 357.5 2030 l 5,1,-1
 540.5 1805 l 5,2,-1
 663.5 1805 l 5,3,-1
 506.5 2030 l 5,0,-1
742.5 1045 m 256,4,5
 742.5 1326 742.5 1326 688.5 1446.5 c 128,-1,6
 634.5 1567 634.5 1567 511.5 1567 c 128,-1,7
 388.5 1567 388.5 1567 335 1446.5 c 128,-1,8
 281.5 1326 281.5 1326 281.5 1045.5 c 128,-1,9
 281.5 765 281.5 765 335 645 c 128,-1,10
 388.5 525 388.5 525 511.5 525 c 128,-1,11
 634.5 525 634.5 525 688.5 644.5 c 128,-1,12
 742.5 764 742.5 764 742.5 1045 c 256,4,5
813 1543 m 128,-1,14
 911.5 1379 911.5 1379 911.5 1046 c 128,-1,15
 911.5 713 911.5 713 813 549 c 128,-1,16
 714.5 385 714.5 385 511.5 385 c 256,17,18
 308.5 385 308.5 385 210.5 548 c 128,-1,19
 112.5 711 112.5 711 112.5 1045 c 128,-1,20
 112.5 1379 112.5 1379 211.5 1543 c 128,-1,21
 310.5 1707 310.5 1707 512.5 1707 c 128,-1,13
 714.5 1707 714.5 1707 813 1543 c 128,-1,14
EndSplineSet
EndChar

StartChar: Ocircumflex
Encoding: 212 212 284
Width: 1024
VWidth: 1747
Flags: W
LayerCount: 2
Fore
SplineSet
799.45 1766.65 m 5,0,-1
 634.75 1766.65 l 5,1,-1
 513.25 1858.45 l 5,2,-1
 391.75 1766.65 l 5,3,-1
 231.55 1766.65 l 5,4,-1
 439.45 1958.35 l 5,5,-1
 590.65 1958.35 l 5,6,-1
 799.45 1766.65 l 5,0,-1
742.5 1045 m 256,7,8
 742.5 1326 742.5 1326 688.5 1446.5 c 128,-1,9
 634.5 1567 634.5 1567 511.5 1567 c 128,-1,10
 388.5 1567 388.5 1567 335 1446.5 c 128,-1,11
 281.5 1326 281.5 1326 281.5 1045.5 c 128,-1,12
 281.5 765 281.5 765 335 645 c 128,-1,13
 388.5 525 388.5 525 511.5 525 c 128,-1,14
 634.5 525 634.5 525 688.5 644.5 c 128,-1,15
 742.5 764 742.5 764 742.5 1045 c 256,7,8
813 1543 m 128,-1,17
 911.5 1379 911.5 1379 911.5 1046 c 128,-1,18
 911.5 713 911.5 713 813 549 c 128,-1,19
 714.5 385 714.5 385 511.5 385 c 256,20,21
 308.5 385 308.5 385 210.5 548 c 128,-1,22
 112.5 711 112.5 711 112.5 1045 c 128,-1,23
 112.5 1379 112.5 1379 211.5 1543 c 128,-1,24
 310.5 1707 310.5 1707 512.5 1707 c 128,-1,16
 714.5 1707 714.5 1707 813 1543 c 128,-1,17
EndSplineSet
EndChar

StartChar: Otilde
Encoding: 213 213 285
Width: 1024
VWidth: 1747
Flags: W
LayerCount: 2
Fore
SplineSet
733.5 1886.5 m 132,-1,1
 692 1836 692 1836 632 1836 c 4,2,3
 574 1836 574 1836 507 1872 c 5,4,-1
 462 1900 l 6,5,6
 426 1921 426 1921 403 1921.5 c 132,-1,7
 380 1922 380 1922 364 1900.5 c 132,-1,8
 348 1879 348 1879 348 1841 c 6,9,-1
 348 1836 l 5,10,-1
 248 1836 l 5,11,12
 248 1922 248 1922 289 1972 c 132,-1,13
 330 2022 330 2022 398 2022 c 4,14,15
 452 2022 452 2022 515 1986 c 5,16,-1
 561 1960 l 5,17,18
 595 1939 595 1939 619 1939 c 132,-1,19
 643 1939 643 1939 659 1960.5 c 132,-1,20
 675 1982 675 1982 675 2017 c 6,21,-1
 675 2022 l 5,22,-1
 775 2022 l 5,23,0
 775 1937 775 1937 733.5 1886.5 c 132,-1,1
742.5 1045 m 256,24,25
 742.5 1326 742.5 1326 688.5 1446.5 c 128,-1,26
 634.5 1567 634.5 1567 511.5 1567 c 128,-1,27
 388.5 1567 388.5 1567 335 1446.5 c 128,-1,28
 281.5 1326 281.5 1326 281.5 1045.5 c 128,-1,29
 281.5 765 281.5 765 335 645 c 128,-1,30
 388.5 525 388.5 525 511.5 525 c 128,-1,31
 634.5 525 634.5 525 688.5 644.5 c 128,-1,32
 742.5 764 742.5 764 742.5 1045 c 256,24,25
813 1543 m 128,-1,34
 911.5 1379 911.5 1379 911.5 1046 c 128,-1,35
 911.5 713 911.5 713 813 549 c 128,-1,36
 714.5 385 714.5 385 511.5 385 c 256,37,38
 308.5 385 308.5 385 210.5 548 c 128,-1,39
 112.5 711 112.5 711 112.5 1045 c 128,-1,40
 112.5 1379 112.5 1379 211.5 1543 c 128,-1,41
 310.5 1707 310.5 1707 512.5 1707 c 128,-1,33
 714.5 1707 714.5 1707 813 1543 c 128,-1,34
EndSplineSet
EndChar

StartChar: Ugrave
Encoding: 217 217 286
Width: 1024
VWidth: 1747
Flags: W
LayerCount: 2
Fore
SplineSet
506.5 2030 m 5,0,-1
 357.5 2030 l 5,1,-1
 540.5 1805 l 5,2,-1
 663.5 1805 l 5,3,-1
 506.5 2030 l 5,0,-1
136.5 899 m 2,4,-1
 136.5 1684 l 1,5,-1
 299.5 1684 l 1,6,-1
 299.5 820 l 2,7,8
 299.5 665 299.5 665 321.5 626 c 1,9,10
 373.5 524 373.5 524 512.5 525 c 0,11,12
 651.5 525 651.5 525 704.5 626 c 1,13,14
 726.5 664 726.5 664 725.5 818 c 2,15,-1
 725.5 1684 l 1,16,-1
 887.5 1684 l 1,17,-1
 887.5 899 l 2,18,19
 887.5 704 887.5 704 864.5 621 c 128,-1,20
 841.5 538 841.5 538 787.5 486 c 0,21,22
 681.5 384 681.5 384 512.5 385 c 0,23,24
 345.5 385 345.5 385 238.5 485 c 0,25,26
 183.5 538 183.5 538 160 622 c 128,-1,27
 136.5 706 136.5 706 136.5 899 c 2,4,-1
EndSplineSet
EndChar

StartChar: Uacute
Encoding: 218 218 287
Width: 1024
VWidth: 1747
Flags: W
LayerCount: 2
Fore
SplineSet
544.5 2030 m 5,0,-1
 693.5 2030 l 5,1,-1
 510.5 1805 l 5,2,-1
 387.5 1805 l 5,3,-1
 544.5 2030 l 5,0,-1
136.5 899 m 2,4,-1
 136.5 1684 l 1,5,-1
 299.5 1684 l 1,6,-1
 299.5 820 l 2,7,8
 299.5 665 299.5 665 321.5 626 c 1,9,10
 373.5 524 373.5 524 512.5 525 c 0,11,12
 651.5 525 651.5 525 704.5 626 c 1,13,14
 726.5 664 726.5 664 725.5 818 c 2,15,-1
 725.5 1684 l 1,16,-1
 887.5 1684 l 1,17,-1
 887.5 899 l 2,18,19
 887.5 704 887.5 704 864.5 621 c 128,-1,20
 841.5 538 841.5 538 787.5 486 c 0,21,22
 681.5 384 681.5 384 512.5 385 c 0,23,24
 345.5 385 345.5 385 238.5 485 c 0,25,26
 183.5 538 183.5 538 160 622 c 128,-1,27
 136.5 706 136.5 706 136.5 899 c 2,4,-1
EndSplineSet
EndChar

StartChar: Ucircumflex
Encoding: 219 219 288
Width: 1024
VWidth: 1747
Flags: W
LayerCount: 2
Fore
SplineSet
799.45 1766.65 m 5,0,-1
 634.75 1766.65 l 5,1,-1
 513.25 1858.45 l 5,2,-1
 391.75 1766.65 l 5,3,-1
 231.55 1766.65 l 5,4,-1
 439.45 1958.35 l 5,5,-1
 590.65 1958.35 l 5,6,-1
 799.45 1766.65 l 5,0,-1
136.5 899 m 2,7,-1
 136.5 1684 l 1,8,-1
 299.5 1684 l 1,9,-1
 299.5 820 l 2,10,11
 299.5 665 299.5 665 321.5 626 c 1,12,13
 373.5 524 373.5 524 512.5 525 c 0,14,15
 651.5 525 651.5 525 704.5 626 c 1,16,17
 726.5 664 726.5 664 725.5 818 c 2,18,-1
 725.5 1684 l 1,19,-1
 887.5 1684 l 1,20,-1
 887.5 899 l 2,21,22
 887.5 704 887.5 704 864.5 621 c 128,-1,23
 841.5 538 841.5 538 787.5 486 c 0,24,25
 681.5 384 681.5 384 512.5 385 c 0,26,27
 345.5 385 345.5 385 238.5 485 c 0,28,29
 183.5 538 183.5 538 160 622 c 128,-1,30
 136.5 706 136.5 706 136.5 899 c 2,7,-1
EndSplineSet
EndChar

StartChar: otilde
Encoding: 245 245 289
Width: 1024
VWidth: 1747
Flags: W
LayerCount: 2
Fore
SplineSet
729 1596 m 132,-1,1
 687.5 1545 687.5 1545 628.5 1545 c 132,-1,2
 569.5 1545 569.5 1545 502.5 1582 c 5,3,-1
 457.5 1610 l 5,4,5
 388.905 1650.01 388.905 1650.01 359.5 1610.5 c 4,6,7
 343.5 1589 343.5 1589 343.5 1551 c 6,8,-1
 343.5 1545 l 5,9,-1
 243.5 1545 l 5,10,11
 243.5 1633 243.5 1633 284.5 1682.5 c 132,-1,12
 325.5 1732 325.5 1732 388 1732 c 132,-1,13
 450.5 1732 450.5 1732 510.5 1696 c 5,14,-1
 556.5 1670 l 5,15,16
 590.5 1649 590.5 1649 614.5 1649 c 132,-1,17
 638.5 1649 638.5 1649 654.5 1670.5 c 132,-1,18
 670.5 1692 670.5 1692 670.5 1727 c 6,19,-1
 670.5 1732 l 5,20,-1
 770.5 1732 l 5,21,0
 770.5 1647 770.5 1647 729 1596 c 132,-1,1
739.5 886.5 m 128,-1,23
 739.5 1255 739.5 1255 511.5 1255 c 128,-1,24
 283.5 1255 283.5 1255 283.5 887 c 0,25,26
 283.5 705 283.5 705 341.5 611.5 c 128,-1,27
 399.5 518 399.5 518 511.5 518 c 0,28,22
 739.5 518 739.5 518 739.5 886.5 c 128,-1,23
511.5 1388 m 256,29,30
 698.5 1388 698.5 1388 797 1259.5 c 128,-1,31
 895.5 1131 895.5 1131 895.5 886.5 c 128,-1,32
 895.5 642 895.5 642 797 513.5 c 128,-1,33
 698.5 385 698.5 385 512 385 c 128,-1,34
 325.5 385 325.5 385 227 513.5 c 128,-1,35
 128.5 642 128.5 642 128.5 886.5 c 128,-1,36
 128.5 1131 128.5 1131 226.5 1259.5 c 128,-1,37
 324.5 1388 324.5 1388 511.5 1388 c 256,29,30
EndSplineSet
EndChar

StartChar: Thorn
Encoding: 222 222 290
Width: 1024
Flags: W
LayerCount: 2
Fore
SplineSet
302.4 1586.3 m 1,0,-1
 302.4 1410.8 l 1,1,-1
 473.4 1410.8 l 2,2,3
 560.7 1410.8 560.7 1410.8 640.8 1390.1 c 128,-1,4
 720.9 1369.4 720.9 1369.4 781.65 1324.85 c 128,-1,5
 842.4 1280.3 842.4 1280.3 878.4 1210.1 c 128,-1,6
 914.4 1139.9 914.4 1139.9 914.4 1041.8 c 0,7,8
 914.4 969.8 914.4 969.8 887.4 897.8 c 128,-1,9
 860.4 825.8 860.4 825.8 803.7 768.2 c 128,-1,10
 747 710.6 747 710.6 658.8 674.6 c 128,-1,11
 570.6 638.6 570.6 638.6 448.2 638.6 c 2,12,-1
 302.4 638.6 l 1,13,-1
 302.4 410 l 1,14,-1
 142.2 410 l 1,15,-1
 142.2 1586.3 l 1,16,-1
 302.4 1586.3 l 1,0,-1
747.9 1034.6 m 0,17,18
 747.9 1091.3 747.9 1091.3 729 1136.3 c 128,-1,19
 710.1 1181.3 710.1 1181.3 673.65 1213.25 c 128,-1,20
 637.2 1245.2 637.2 1245.2 585 1261.85 c 128,-1,21
 532.8 1278.5 532.8 1278.5 466.2 1278.5 c 2,22,-1
 302.4 1278.5 l 1,23,-1
 302.4 775.4 l 1,24,-1
 451.8 775.4 l 2,25,26
 594 775.4 594 775.4 670.95 842 c 128,-1,27
 747.9 908.6 747.9 908.6 747.9 1034.6 c 0,17,18
EndSplineSet
EndChar

StartChar: yacute
Encoding: 253 253 291
Width: 1024
VWidth: 1747
Flags: W
LayerCount: 2
Fore
SplineSet
695 717 m 2,0,1
 658 617 658 617 602 454 c 0,2,3
 523 229 523 229 496 179 c 0,4,5
 459 112 459 112 403.5 79 c 0,6,7
 348 46 348 46 274 46 c 2,8,-1
 156 46 l 1,9,-1
 156 177 l 1,10,-1
 243 177 l 2,11,12
 308 177 308 177 345 217.5 c 0,13,14
 382 258 382 258 438 425 c 1,15,-1
 92 1365 l 1,16,-1
 248 1365 l 1,17,-1
 513 618 l 1,18,-1
 775 1365 l 1,19,-1
 932 1365 l 1,20,-1
 695 717 l 2,0,1
EndSplineSet
Refer: 109 180 S 1 0 0 1 0 0 2
EndChar

StartChar: Yacute
Encoding: 221 221 292
Width: 1024
VWidth: 1747
Flags: W
LayerCount: 2
Fore
SplineSet
544.5 2030 m 5,0,-1
 693.5 2030 l 5,1,-1
 510.5 1805 l 5,2,-1
 387.5 1805 l 5,3,-1
 544.5 2030 l 5,0,-1
48.5 1684 m 1,4,-1
 220.5 1684 l 1,5,-1
 511.5 1121 l 1,6,-1
 801.5 1684 l 1,7,-1
 975.5 1684 l 1,8,-1
 592.5 981 l 1,9,-1
 592.5 410 l 1,10,-1
 430.5 410 l 1,11,-1
 430.5 981 l 1,12,-1
 48.5 1684 l 1,4,-1
EndSplineSet
EndChar

StartChar: macron
Encoding: 175 175 293
Width: 1024
Flags: W
LayerCount: 2
Fore
SplineSet
747.8 1512.5 m 5,0,-1
 276.2 1512.5 l 5,1,-1
 276.2 1632.2 l 5,2,-1
 747.8 1632.2 l 5,3,-1
 747.8 1512.5 l 5,0,-1
5.2998 1203.6 m 0,4,-1
EndSplineSet
EndChar

StartChar: uni00AD
Encoding: 173 173 294
Width: 1024
Flags: W
LayerCount: 2
Fore
SplineSet
747.8 998.5 m 5,0,-1
 276.2 998.5 l 5,1,-1
 276.2 1118.2 l 5,2,-1
 747.8 1118.2 l 5,3,-1
 747.8 998.5 l 5,0,-1
5.2998 1203.6 m 0,4,-1
EndSplineSet
EndChar

StartChar: underscoredbl
Encoding: 8215 8215 295
Width: 1024
Flags: W
LayerCount: 2
Fore
SplineSet
1024 0 m 5,0,-1
 0 0 l 5,1,-1
 0 114.3 l 5,2,-1
 1024 114.3 l 5,3,-1
 1024 0 l 5,0,-1
1024 214.199 m 5,4,-1
 0 214.199 l 5,5,-1
 0 328.5 l 5,6,-1
 1024 328.5 l 5,7,-1
 1024 214.199 l 5,4,-1
EndSplineSet
EndChar

StartChar: threequarters
Encoding: 190 190 296
Width: 1024
Flags: W
LayerCount: 2
Fore
SplineSet
1000.7 1755.29 m 5,0,-1
 170.899 420 l 5,1,-1
 23.2998 420 l 5,2,-1
 851.3 1755.29 l 5,3,-1
 1000.7 1755.29 l 5,0,-1
974.6 523.005 m 5,4,-1
 893.6 523.005 l 5,5,-1
 893.6 420 l 5,6,-1
 755.899 420 l 5,7,-1
 755.899 523.005 l 5,8,-1
 486.8 523.005 l 5,9,-1
 486.8 638.295 l 5,10,-1
 683.899 957.704 l 5,11,-1
 893.6 957.704 l 5,12,-1
 893.6 638.295 l 5,13,-1
 974.6 638.295 l 5,14,-1
 974.6 523.005 l 5,4,-1
755.899 851.865 m 5,15,-1
 624.5 638.295 l 5,16,-1
 755.899 638.295 l 5,17,-1
 755.899 851.865 l 5,15,-1
445.399 1385.79 m 4,18,19
 445.399 1346.1 445.399 1346.1 429.2 1313.03 c 132,-1,20
 413 1279.95 413 1279.95 381.05 1255.38 c 132,-1,21
 349.1 1230.81 349.1 1230.81 301.85 1217.11 c 132,-1,22
 254.6 1203.4 254.6 1203.4 191.6 1203.4 c 4,23,24
 163.7 1203.4 163.7 1203.4 134.899 1206.71 c 132,-1,25
 106.1 1210.02 106.1 1210.02 82.7002 1215.69 c 5,26,-1
 82.7002 1328.15 l 5,27,28
 103.399 1323.42 103.399 1323.42 130.85 1320.58 c 132,-1,29
 158.3 1317.75 158.3 1317.75 184.399 1317.75 c 4,30,31
 241.1 1317.75 241.1 1317.75 264.95 1335.23 c 132,-1,32
 288.8 1352.71 288.8 1352.71 288.8 1382.01 c 4,33,34
 288.8 1414.14 288.8 1414.14 267.2 1426.9 c 132,-1,35
 245.6 1439.65 245.6 1439.65 197 1439.65 c 6,36,-1
 116 1439.65 l 5,37,-1
 116 1546.44 l 5,38,-1
 191.6 1546.44 l 6,39,40
 233.899 1546.44 233.899 1546.44 249.649 1562.98 c 132,-1,41
 265.399 1579.51 265.399 1579.51 265.399 1604.08 c 4,42,43
 265.399 1625.82 265.399 1625.82 248.75 1641.41 c 132,-1,44
 232.1 1657 232.1 1657 191.6 1657 c 4,45,46
 163.7 1657 163.7 1657 139.399 1651.81 c 132,-1,47
 115.1 1646.61 115.1 1646.61 91.7002 1640.94 c 5,48,-1
 91.7002 1747.72 l 5,49,50
 122.3 1759.06 122.3 1759.06 156.05 1763.79 c 132,-1,51
 189.8 1768.51 189.8 1768.51 230.3 1768.51 c 4,52,53
 320.3 1768.51 320.3 1768.51 367.55 1732.6 c 132,-1,54
 414.8 1696.7 414.8 1696.7 414.8 1635.27 c 4,55,56
 414.8 1586.13 414.8 1586.13 397.7 1555.89 c 132,-1,57
 380.6 1525.65 380.6 1525.65 342.8 1509.58 c 5,58,59
 393.2 1499.19 393.2 1499.19 419.3 1468 c 132,-1,60
 445.399 1436.82 445.399 1436.82 445.399 1385.79 c 4,18,19
EndSplineSet
EndChar

StartChar: cedilla
Encoding: 184 184 297
Width: 1024
Flags: W
LayerCount: 2
Fore
SplineSet
619.1 400 m 1,0,-1
 541.7 134.5 l 1,1,-1
 404.9 134.5 l 1,2,-1
 464.3 400 l 1,3,-1
 619.1 400 l 1,0,-1
EndSplineSet
EndChar

StartChar: uni00B9
Encoding: 185 185 298
Width: 1024
Flags: W
LayerCount: 2
Fore
SplineSet
805.4 967.9 m 5,0,-1
 253.701 967.9 l 5,1,-1
 253.701 1098.4 l 5,2,-1
 467.9 1098.4 l 5,3,-1
 467.9 1518.7 l 5,4,-1
 270.801 1421.5 l 5,5,-1
 218.6 1539.4 l 5,6,-1
 499.4 1679.8 l 5,7,-1
 624.5 1679.8 l 5,8,-1
 624.5 1098.4 l 5,9,-1
 805.4 1098.4 l 5,10,-1
 805.4 967.9 l 5,0,-1
EndSplineSet
EndChar

StartChar: uni00B3
Encoding: 179 179 299
Width: 1024
VWidth: 1747
Flags: W
LayerCount: 2
Fore
SplineSet
719.307 1504.64 m 4,0,1
 719.307 1387.73 719.307 1387.73 591.597 1354.09 c 5,2,3
 661.094 1335.89 661.094 1335.89 698.517 1289.01 c 132,-1,4
 735.938 1242.14 735.938 1242.14 735.938 1172.1 c 4,5,6
 735.938 1075.05 735.938 1075.05 669.707 1019.9 c 132,-1,7
 603.477 964.756 603.477 964.756 495.962 964.756 c 132,-1,8
 388.448 964.756 388.448 964.756 288.062 999.498 c 5,9,-1
 288.062 1094.35 l 5,10,11
 383.696 1044.72 383.696 1044.72 469.826 1044.72 c 132,-1,12
 555.956 1044.72 555.956 1044.72 598.13 1080.01 c 132,-1,13
 640.304 1115.3 640.304 1115.3 640.304 1179 c 132,-1,14
 640.304 1242.69 640.304 1242.69 598.13 1278.81 c 132,-1,15
 555.956 1314.93 555.956 1314.93 483.488 1314.93 c 6,16,-1
 410.427 1314.93 l 5,17,-1
 410.427 1392.69 l 5,18,-1
 483.488 1392.69 l 6,19,20
 550.017 1392.69 550.017 1392.69 586.844 1421.37 c 132,-1,21
 623.672 1450.04 623.672 1450.04 623.672 1502.98 c 132,-1,22
 623.672 1555.92 623.672 1555.92 589.22 1584.87 c 132,-1,23
 554.769 1613.83 554.769 1613.83 481.409 1613.83 c 132,-1,24
 408.05 1613.83 408.05 1613.83 308.852 1575.77 c 5,25,-1
 308.852 1663.46 l 5,26,27
 424.088 1693.79 424.088 1693.79 491.21 1693.79 c 4,28,29
 594.566 1693.79 594.566 1693.79 656.937 1641.68 c 132,-1,30
 719.307 1589.56 719.307 1589.56 719.307 1504.64 c 4,0,1
EndSplineSet
EndChar
